<svg id="Layer_1" enable-background="new 0 0 512 512" height="512" viewBox="0 0 512 512" width="512" xmlns="http://www.w3.org/2000/svg"><g><g><path d="m27.439 198.5c-4.809 0-6.845 6.125-2.994 9.004l26.437 19.766c9.873 7.382 15.687 18.988 15.687 31.316 0 13.882-7.361 26.724-19.34 33.74l-16.879 9.886c-3.848 2.254-3.044 8.037 1.274 9.155l41.746 10.809c12.481 3.232 21.198 14.494 21.198 27.386 0 9.346-4.616 18.089-12.333 23.36l-13.366 9.13c-3.395 2.319-2.696 7.516 1.191 8.856l60.689 20.59 242.75 3 68.439-23.59c3.887-1.34 4.585-6.537 1.191-8.856l-13.366-9.13c-7.717-5.271-12.333-14.014-12.333-23.36 0-12.893 8.717-24.155 21.198-27.386l41.746-10.809c4.317-1.118 5.122-6.901 1.274-9.155l-16.879-9.886c-11.979-7.016-19.34-19.858-19.34-33.74 0-12.328 5.814-23.934 15.687-31.316l26.437-19.766c3.851-2.88 1.815-9.004-2.994-9.004z" fill="#fc8d94"/><path d="m487.549 207.5-26.43 19.77c-4.94 3.69-8.86 8.44-11.55 13.8-2.69 5.37-4.14 11.35-4.14 17.52 0 13.88 7.36 26.72 19.34 33.74l16.88 9.88c3.85 2.26 3.04 8.04-1.27 9.16l-41.75 10.81c-6.24 1.62-11.54 5.24-15.28 10.07s-5.92 10.87-5.92 17.31c0 9.35 4.62 18.09 12.33 23.36l13.37 9.13c3.39 2.32 2.7 7.52-1.19 8.86l-68.44 23.59-28.96-.36 67.4-23.23c3.89-1.34 4.58-6.54 1.19-8.86l-13.37-9.13c-7.71-5.27-12.33-14.01-12.33-23.36 0-6.44 2.18-12.48 5.92-17.31s9.04-8.45 15.28-10.07l41.75-10.81c4.31-1.12 5.12-6.9 1.27-9.16l-16.88-9.88c-11.98-7.02-19.34-19.86-19.34-33.74 0-6.17 1.45-12.15 4.14-17.52 2.69-5.36 6.61-10.11 11.55-13.8l26.43-19.77c3.86-2.88 1.82-9-2.99-9h30c4.81 0 6.85 6.12 2.99 9z" fill="#fc7585"/><path d="m157.499 392.5c-44.183 0-80 35.817-80 80v12c0 11.046 8.954 20 20 20h317c11.046 0 20-8.954 20-20v-12c0-44.183-35.817-80-80-80z" fill="#d19a6e"/><g fill="#bc845e"><path d="m212.499 331.5h87v147h-87z"/><path d="m353.499 198.5h36.5c16.845 0 30.5 13.655 30.5 30.5 0 16.845-13.655 30.5-30.5 30.5h-36.5z"/><path d="m158.499 198.5h-36.5c-16.845 0-30.5 13.655-30.5 30.5 0 16.845 13.655 30.5 30.5 30.5h36.5z"/></g><path d="m138.499 118.5v121.5c0 64.893 52.606 117.5 117.5 117.5 64.893 0 117.5-52.606 117.5-117.5v-121.5z" fill="#d19a6e"/><path d="m373.499 118.5v121.5c0 32.44-13.15 61.82-34.42 83.08-21.26 21.27-50.64 34.42-83.08 34.42-5.08 0-10.09-.32-15-.95 26.45-3.37 50.15-15.53 68.08-33.47 21.27-21.26 34.42-50.64 34.42-83.08v-121.5z" fill="#bc845e"/><path d="m370.64 91.433c38.455 0 46.81-37.568 48.577-51.229.297-2.294 2.945-3.378 4.8-1.996 20.158 15.014 27.858 44.104 18.198 67.37-8.719 20.999-29.741 35.251-43.705 35.245z" fill="#f0e5e0"/><path d="m442.219 105.58c-8.72 21-29.75 35.25-43.71 35.24l-5.71-10.11c7.91-6.16 15.14-14.84 19.42-25.13 5.53-13.32 5.37-28.54.44-41.93 4.15-9.02 5.87-18.08 6.56-23.45.29-2.29 2.94-3.37 4.8-1.99 20.16 15.01 27.86 44.1 18.2 67.37z" fill="#e2d6d1"/><path d="m283.499 7.5h12.838c2.048 0 3.494 2.006 2.846 3.949l-8.684 26.051h-37c0-16.569 13.432-30 30-30z" fill="#514a54"/><path d="m215.662 7.5h12.838c16.569 0 30 13.431 30 30h-37l-8.684-26.051c-.648-1.943.798-3.949 2.846-3.949z" fill="#5d5360"/><path d="m299.499 463c-29 14-58 14-87 0l-13 41.5h113.5z" fill="#c3aff0"/><path d="m141.359 91.433c-38.455 0-46.81-37.568-48.577-51.229-.297-2.294-2.945-3.378-4.8-1.996-20.158 15.014-27.858 44.104-18.198 67.37 8.719 20.999 29.741 35.251 43.705 35.245z" fill="#f0e5e0"/><path d="m212.499 392.5v112h-115c-11.05 0-20-8.95-20-20v-12c0-44.18 35.82-80 80-80z" fill="#6f6571"/><path d="m434.499 472.5v12c0 11.05-8.95 20-20 20h-115v-112h55c44.18 0 80 35.82 80 80z" fill="#6f6571"/><path d="m434.499 472.5v12c0 11.05-8.95 20-20 20h-30c11.05 0 20-8.95 20-20v-12c0-44.18-35.82-80-80-80h30c44.18 0 80 35.82 80 80z" fill="#5d5360"/><path d="m403.779 137.5v64.29c-4.14-2.1-8.82-3.29-13.78-3.29h-16.5v30.5h-15c-1.75 0-3.43-.3-5-.86-5.82-2.05-10-7.61-10-14.14v-35.5c0-8.28-6.72-15-15-15h-47.5c-6.9 0-13.16-2.8-17.68-7.32s-7.32-10.78-7.32-17.68c0 13.81-11.19 25-25 25h-47.5c-8.28 0-15 6.72-15 15v35.5c0 6.53-4.18 12.09-10 14.14-1.57.56-3.25.86-5 .86h-15v-30.5h-16.5c-4.74 0-9.22 1.08-13.22 3.01v-64.01c0-55.23 44.77-100 100-100h95c55.23 0 100 44.77 100 100z" fill="#6f6571"/><path d="m403.779 137.5v64.29c-4.14-2.1-8.82-3.29-13.78-3.29h-16.22v-61c0-55.23-44.77-100-100-100h30c55.23 0 100 44.77 100 100z" fill="#5d5360"/></g><g><path d="m496.421 199.556c-1.701-5.117-6.468-8.556-11.861-8.556h-73.278v-45.196c13.369-5.025 29.881-18.128 37.861-37.349 11.007-26.512 2.132-59.297-20.646-76.262-8.282-4.044-13.854-1.694-16.718 7.05-1.09 8.429-5.073 27.873-18.989 38.042-19.351-28.514-52.028-47.285-89.009-47.285h-2.876l5.393-16.18c1.064-3.193.524-6.729-1.443-9.46s-5.151-4.36-8.517-4.36h-12.838c-10.592 0-20.541 4.539-27.54 12.095-6.884-7.422-16.692-12.095-27.46-12.095h-12.838c-3.366 0-6.55 1.63-8.518 4.36s-2.507 6.267-1.443 9.46l5.393 16.18h-2.312c-15.314 0-30.11 3.155-43.976 9.379-3.779 1.696-5.467 6.135-3.771 9.914 1.696 3.778 6.135 5.466 9.914 3.771 11.921-5.351 24.65-8.064 37.833-8.064h95c51.005 0 92.5 41.495 92.5 92.5v54.029c-2.045-.342-4.142-.529-6.282-.529h-16.5c-4.143 0-7.5 3.357-7.5 7.5v23h-7.5c-4.136 0-7.5-3.364-7.5-7.5v-35.5c0-12.406-10.094-22.5-22.5-22.5h-47.5c-9.649 0-17.5-7.851-17.5-17.5 0-4.143-3.357-7.5-7.5-7.5-4.142 0-7.5 3.357-7.5 7.5 0 9.649-7.851 17.5-17.5 17.5h-47.5c-12.406 0-22.499 10.093-22.5 22.5v35.5c0 4.136-3.364 7.5-7.5 7.5h-7.5v-23c0-4.143-3.358-7.5-7.5-7.5h-16.5c-1.943 0-3.853.148-5.718.431v-53.931c0-25.118 9.897-48.62 27.869-66.175 2.963-2.895 3.019-7.643.125-10.606-2.895-2.962-7.644-3.019-10.606-.124-5.341 5.217-10.064 10.888-14.142 16.925-14.163-10.093-18.2-29.723-19.307-38.277-2.863-8.744-8.435-11.094-16.718-7.05-22.778 16.964-31.653 49.749-20.645 76.261 8.089 19.484 24.971 32.698 38.424 37.558v44.988h-73.842c-5.393 0-10.159 3.438-11.861 8.556-1.702 5.117.057 10.726 4.376 13.956l26.437 19.766c7.938 5.936 12.678 15.397 12.678 25.31 0 11.174-5.989 21.622-15.63 27.269l-16.879 9.887c-4.383 2.567-6.763 7.478-6.063 12.51.701 5.031 4.331 9.104 9.248 10.377l41.746 10.81c9.172 2.375 15.578 10.65 15.578 20.126 0 6.873-3.388 13.29-9.063 17.166l-13.366 9.131c-3.926 2.682-5.972 7.275-5.338 11.988.634 4.712 3.82 8.602 8.314 10.151l30.331 10.456c-17.181 15.985-27.948 38.777-27.948 64.041v12c0 15.163 12.336 27.5 27.5 27.5h257c4.143 0 7.5-3.357 7.5-7.5s-3.357-7.5-7.5-7.5h-47.5v-97h47.5c39.977 0 72.5 32.523 72.5 72.5v12c0 6.893-5.607 12.5-12.5 12.5h-25c-4.143 0-7.5 3.357-7.5 7.5s3.357 7.5 7.5 7.5h25c15.163 0 27.5-12.337 27.5-27.5v-12c0-25.264-10.766-48.056-27.947-64.043l30.331-10.456c4.494-1.55 7.681-5.439 8.314-10.151s-1.411-9.306-5.338-11.989l-13.367-9.13c-5.675-3.876-9.063-10.293-9.063-17.166 0-9.476 6.406-17.751 15.578-20.126l41.745-10.81c4.918-1.272 8.548-5.346 9.248-10.378.701-5.031-1.68-9.941-6.063-12.509l-16.88-9.887c-9.64-5.646-15.629-16.095-15.629-27.269 0-9.912 4.739-19.374 12.678-25.31l26.437-19.766c4.32-3.228 6.079-8.836 4.377-13.954-1.701-5.118 1.702 5.118 0 0zm-212.921-184.556h6.594l-5 15h-19.869c-.281-1.358-.631-2.691-1.057-3.992 4.027-6.748 11.379-11.008 19.332-11.008zm-61.594 0h6.594c9.681 0 18.066 6.295 21.192 15h-22.786zm203.33 34.277c13.115 13.772 17.512 35.462 10.054 53.425-5.098 12.28-15.038 21.812-24.306 26.795-1.033-13.968-4.75-27.201-10.631-39.187 15.627-10.646 22.168-28.703 24.883-41.033zm-12.236 179.723c0 12.683-10.317 23-23 23h-9.579c.378-3.95.579-7.952.579-12v-3.5h9.5c4.143 0 7.5-3.357 7.5-7.5s-3.357-7.5-7.5-7.5h-9.5v-15.5h9c12.683 0 23 10.317 23 23zm-237-15v-35.5c0-4.136 3.365-7.5 7.5-7.5h47.5c10.041 0 19.034-4.578 25-11.755 5.966 7.177 14.959 11.755 25 11.755h47.5c4.136 0 7.5 3.364 7.5 7.5v35.5c0 12.406 10.094 22.5 22.5 22.5h7.5v3.5c0 60.654-49.346 110-110 110s-110-49.346-110-110v-3.5h7.5c12.407 0 22.5-10.094 22.5-22.5zm116 244.18c-24.179 10.481-47.82 10.481-72 0v-98.472c11.406 3.436 23.489 5.292 36 5.292s24.594-1.856 36-5.292zm-161-252.18v15.5h-9.5c-4.142 0-7.5 3.357-7.5 7.5s3.358 7.5 7.5 7.5h9.5v3.5c0 4.048.201 8.05.579 12h-9.579c-12.682 0-23-10.317-23-23s10.318-23 23-23zm-54.288-103.298c-7.458-17.963-3.063-39.65 10.052-53.423 2.738 12.451 9.36 30.667 25.241 41.272-5.921 12.178-9.481 25.441-10.449 39.237-9.415-4.899-19.651-14.577-24.844-27.086zm.496 282.739 9.258-6.324c9.77-6.673 15.603-17.721 15.603-29.553 0-16.312-11.028-30.56-26.818-34.647l-35.885-9.292 11.654-6.826c14.217-8.326 23.049-23.734 23.049-40.212 0-14.617-6.989-28.569-18.696-37.323l-20.415-15.264h56.82c-4.875 6.39-7.778 14.361-7.778 23 0 20.953 17.047 38 38 38h11.946c8.61 38.949 35.435 71.132 71.054 87.114v30.886h-47.5c-16.499 0-31.944 4.592-45.129 12.562zm7.792 99.059v-12c0-39.977 32.523-72.5 72.5-72.5h47.5v97h-107.5c-6.892 0-12.5-5.607-12.5-12.5zm135 12.5v-22.667c11.967 4.431 23.983 6.655 36 6.655 12.016 0 24.033-2.224 36-6.655v22.667zm236.626-275.736c-11.706 8.754-18.695 22.707-18.695 37.323 0 16.478 8.832 31.886 23.048 40.212l11.655 6.826-35.885 9.292c-15.79 4.088-26.818 18.336-26.818 34.647 0 11.833 5.833 22.881 15.603 29.553l9.259 6.324-35.163 12.121c-13.186-7.97-28.631-12.562-45.13-12.562h-47.5v-13.5-17.386c35.619-15.982 62.444-48.164 71.054-87.114h11.946c20.953 0 38-17.047 38-38 0-8.639-2.903-16.61-7.778-23h56.82z"/><path d="m214.563 291.076c12.148 10.316 26.74 15.474 41.362 15.474 14.608 0 29.245-5.151 41.487-15.451 3.17-2.667 3.577-7.398.911-10.567-2.668-3.17-7.398-3.577-10.567-.911-18.786 15.804-44.889 15.813-63.482.022-3.158-2.68-7.89-2.294-10.572.861-2.682 3.157-2.297 7.891.861 10.572z"/><path d="m315.5 251.5c4.143 0 7.5-3.357 7.5-7.5v-15c0-4.143-3.357-7.5-7.5-7.5s-7.5 3.357-7.5 7.5v15c0 4.143 3.358 7.5 7.5 7.5z"/><path d="m196.5 251.5c4.142 0 7.5-3.357 7.5-7.5v-15c0-4.143-3.358-7.5-7.5-7.5s-7.5 3.357-7.5 7.5v15c0 4.143 3.358 7.5 7.5 7.5z"/><path d="m180.25 462h-.5c-5.376 0-9.75 4.374-9.75 9.75v.5c0 5.376 4.374 9.75 9.75 9.75h.5c5.376 0 9.75-4.374 9.75-9.75v-.5c0-5.376-4.374-9.75-9.75-9.75z"/><path d="m331.75 462c-5.376 0-9.75 4.374-9.75 9.75v.5c0 5.376 4.374 9.75 9.75 9.75h.5c5.376 0 9.75-4.374 9.75-9.75v-.5c0-5.376-4.374-9.75-9.75-9.75z"/></g></g></svg>