<svg height="511pt" viewBox="0 0 511.95257 511" width="511pt" xmlns="http://www.w3.org/2000/svg"><g fill="#c81e1e"><path d="m43.648438 160.128906-23.980469-1.453125c.285156-.921875 1.171875-1.523437 2.132812-1.449219l21.25 1.28125zm0 0"/><path d="m50.132812 283.945312-1.023437 5.292969-26.285156 5.289063c-.855469.167968-1.726563-.203125-2.199219-.9375-.46875-.734375-.445312-1.683594.066406-2.390625l1.109375-1.621094zm0 0"/><path d="m448.042969 344.960938c.191406.828124-.132813 1.691406-.820313 2.195312-.6875.5-1.605468.542969-2.339844.109375l-24.832031-14.679687-9.472656-48.640626 26.625 5.292969zm0 0"/><path d="m460.242188 116.011719-16.980469 42.496093-26.195313 1.621094-3.132812-20.824218 43.324218-25.9375c.785157-.402344 1.734376-.285157 2.394532.300781.660156.585937.894531 1.515625.589844 2.34375zm0 0"/><path d="m499.242188 227.882812-43.265626 11.945313 35.242188 51.371094c.511719.707031.539062 1.65625.066406 2.390625-.46875.734375-1.34375 1.105468-2.199218.9375l-24.574219-4.949219-34.132813-49.75 43.261719-11.945313c.785156-.210937 1.382813-.84375 1.546875-1.640624.160156-.792969-.140625-1.613282-.777344-2.113282l-43.519531-33.109375 35.15625-30.039062c.675781-.554688.917969-1.488281.597656-2.304688l23.464844-1.449219c.914063-.046874 1.753906.488282 2.097656 1.332032.347657.847656.121094 1.816406-.558593 2.421875l-35.160157 30.039062 43.519531 33.109375c.640626.5.941407 1.320313.777344 2.113282-.160156.796874-.761718 1.429687-1.542968 1.640624zm0 0"/></g><path d="m473.640625 227.882812-43.261719 11.945313 34.132813 49.75-28.332031-5.632813 1.023437 5.292969-26.625-5.292969 16.574219 55.878907-19.046875-14.320313h-304.300781l-36.777344 21.761719c-.730469.433594-1.652344.390625-2.339844-.109375-.6875-.503906-1.007812-1.367188-.816406-2.195312l2.390625-12.375 9.46875-48.640626-26.621094 5.292969 1.023437-5.292969-28.332031 5.632813 34.132813-49.75-43.261719-11.945313c-.785156-.210937-1.382813-.84375-1.546875-1.640624-.160156-.792969.140625-1.613282.777344-2.113282l43.519531-33.109375-35.15625-30.039062c-.679687-.554688-.917969-1.488281-.597656-2.304688l23.980469 1.453125-.597657-1.621094 26.195313 1.621094-12.886719-32.34375-4.691406-11.773437c-.304688-.828125-.070313-1.757813.589843-2.34375.660157-.585938 1.613282-.703125 2.398438-.300781l49.066406 25.9375h304.46875l5.742188-3.035157 3.132812 23.890625 26.195313-1.621094-.597657 1.621094 23.980469-1.449218c.320313.816406.078125 1.746093-.597656 2.304687l-35.15625 30.003906 43.519531 33.109375c.636719.5.9375 1.320313.777344 2.113282-.164062.796874-.761719 1.429687-1.546875 1.640624zm0 0" fill="#f44335"/><path d="m382.589844 139.304688h25.601562l21.757813-11.519532zm0 0" fill="#c81e1e"/><path d="m463.488281 294.527344-26.285156-5.289063-1.023437-5.292969 28.332031 5.632813 1.109375 1.621094c.507812.707031.535156 1.65625.066406 2.390625-.472656.734375-1.34375 1.105468-2.199219.9375zm0 0" fill="#c81e1e"/><path d="m466.644531 158.675781-23.980469 1.453125.597657-1.621094 21.25-1.28125c.960937-.074218 1.847656.527344 2.132812 1.449219zm0 0" fill="#c81e1e"/><path d="m396.074219 241.535156c-4.875 10.347656-8.183594 21.363282-9.8125 32.683594l-130.304688 47.957031-12.800781-4.691406-117.503906-43.265625c-1.632813-11.320312-4.941406-22.335938-9.8125-32.683594-12.375-26.707031-25.773438-64.167968-12.117188-102.230468 4.75-13.160157 12.058594-25.253907 21.503906-35.582032l63.570313-34.558594h.085937c1.367188-.171874 2.730469-.34375 4.097657-.429687 16.84375-1.441406 33.816406 0 50.175781 4.269531.253906.085938.425781.085938.683594.167969 7.917968 2.050781 16.230468 2.050781 24.148437 0 8.289063-2.136719 16.734375-3.621094 25.257813-4.4375 9.941406-1 19.960937-.859375 29.867187.429687l63.574219 34.558594c9.441406 10.328125 16.75 22.421875 21.503906 35.582032 13.652344 38.0625.253906 75.523437-12.117187 102.230468zm0 0" fill="#c81e1e"/><path d="m370.472656 241.535156c-4.871094 10.347656-8.179687 21.363282-9.8125 32.683594l-117.503906 43.265625-117.503906-43.265625c-1.632813-11.320312-4.941406-22.335938-9.8125-32.683594-12.375-26.707031-25.773438-64.167968-12.117188-102.230468 4.75-13.160157 12.058594-25.253907 21.503906-35.582032l63.570313-34.558594h.085937c1.367188-.171874 2.730469-.34375 4.097657-.429687 8.519531.824219 16.964843 2.308594 25.257812 4.4375 7.917969 2.050781 16.230469 2.050781 24.148438 0 .257812-.082031.511719-.082031.769531-.167969 16.324219-4.316406 33.273438-5.757812 50.089844-4.269531 1.449218.085937 2.816406.257813 4.265625.429687l63.574219 34.558594c9.445312 10.328125 16.75 22.421875 21.503906 35.582032 13.652344 38.0625.257812 75.523437-12.117188 102.230468zm0 0" fill="#f44335"/><path d="m408.105469 195.625c.015625 12.824219-5.066407 25.125-14.125 34.203125-9.058594 9.074219-21.351563 14.175781-34.175781 14.183594-2.859376.003906-5.714844-.253907-8.53125-.769531-23.050782-4.113282-39.839844-24.15625-39.839844-47.574219 0-23.414063 16.789062-43.460938 39.839844-47.570313 2.816406-.519531 5.671874-.777344 8.53125-.769531 12.816406-.011719 25.105468 5.074219 34.167968 14.132813 9.058594 9.0625 14.144532 21.351562 14.132813 34.164062zm0 0" fill="#cfd8dc"/><path d="m391.039062 195.625c.027344 23.410156-16.726562 43.472656-39.765624 47.617188-23.050782-4.113282-39.839844-24.15625-39.839844-47.574219 0-23.414063 16.789062-43.460938 39.839844-47.570313 23.023437 4.105469 39.785156 24.140625 39.765624 47.527344zm0 0" fill="#f5f5f5"/><path d="m359.78125 209.859375c-5.753906.003906-10.945312-3.460937-13.148438-8.777344-2.203124-5.316406-.988281-11.4375 3.082032-15.503906 4.070312-4.070313 10.1875-5.289063 15.503906-3.082031 5.316406 2.203125 8.78125 7.390625 8.777344 13.148437-.011719 7.84375-6.371094 14.203125-14.214844 14.214844zm0 0" fill="#fec108"/><path d="m200.488281 195.625c-.007812 26.71875-21.664062 48.375-48.382812 48.386719-2.863281.003906-5.71875-.253907-8.535157-.769531-23.027343-4.152344-39.773437-24.207032-39.753906-47.609376.019532-23.402343 16.804688-43.425781 39.839844-47.535156 2.789062-.519531 5.617188-.777344 8.449219-.769531 12.820312-.015625 25.125 5.066406 34.199219 14.125 9.074218 9.058594 14.179687 21.351563 14.183593 34.171875zm0 0" fill="#cfd8dc"/><path d="m183.421875 195.625c-.011719 23.425781-16.792969 43.480469-39.851563 47.617188-23.027343-4.152344-39.773437-24.207032-39.753906-47.609376.019532-23.402343 16.804688-43.425781 39.839844-47.535156 23.027344 4.105469 39.785156 24.140625 39.765625 47.527344zm0 0" fill="#f5f5f5"/><path d="m152.128906 209.859375c5.757813.003906 10.945313-3.460937 13.152344-8.777344 2.203125-5.316406.984375-11.4375-3.082031-15.503906-4.070313-4.070313-10.191407-5.289063-15.507813-3.082031-5.316406 2.203125-8.78125 7.390625-8.777344 13.148437.015626 7.84375 6.371094 14.203125 14.214844 14.214844zm0 0" fill="#fec108"/><path d="m155.433594 454.699219c-4.785156 7.570312-12.152344 13.148437-20.738282 15.699219 0-1.707032 2.390626-4.007813 8.195313-6.824219 4.675781-2.1875 8.921875-5.195313 12.542969-8.875zm0 0" fill="#f44335"/><path d="m265.597656 456.40625c-6.410156 4.464844-15.042968 3.972656-20.90625-1.195312l-1.535156-1.367188 26.625-23.378906s11.773438-20.140625-4.183594 25.941406zm0 0" fill="#f44335"/><path d="m351.613281 470.398438c-8.582031-2.550782-15.953125-8.128907-20.734375-15.699219 3.621094 3.679687 7.867188 6.6875 12.542969 8.875 5.804687 2.816406 8.191406 5.117187 8.191406 6.824219zm0 0" fill="#f44335"/><path d="m375.421875 438.570312c-.082031-.105468-.207031-.167968-.339844-.171874-.683593-.339844-1.453125-.597657-2.132812-1.023438l-.769531-.253906c-4.179688-2.015625-8.128907-4.472656-11.777344-7.339844-10.664063-12.886719-5.203125-37.800781-2.300782-51.96875h25.597657c-3.582031 17.324219-10.921875 50.6875 12.03125 58.539062 19.96875 6.828126 1.027343 11.179688-20.308594 2.21875zm0 0" fill="#c81e1e"/><path d="m155.433594 454.699219c-4.785156 7.570312-12.152344 13.148437-20.738282 15.699219 0-1.707032 2.390626-4.007813 8.195313-6.824219 4.675781-2.1875 8.921875-5.195313 12.542969-8.875zm0 0" fill="#f44335"/><path d="m351.613281 470.398438c-8.582031-2.550782-15.953125-8.128907-20.734375-15.699219 3.621094 3.679687 7.867188 6.6875 12.542969 8.875 5.804687 2.816406 8.191406 5.117187 8.191406 6.824219zm0 0" fill="#f44335"/><path d="m351.613281 470.398438c0-1.707032-2.386719-4.007813-8.191406-6.824219-4.675781-2.1875-8.921875-5.195313-12.542969-8.875 0-.085938-.085937-.085938-.171875-.171875-1.324219-2.332032-2.246093-4.871094-2.730469-7.507813 0 0-.511718.683594-1.363281 1.960938-3.652343 5.695312-5.957031 12.144531-6.742187 18.859375-.808594 9.421875 3.007812 18.648437 10.238281 24.746094 12.117187 11.09375-6.058594 13.140624-22.015625 4.695312-15.769531-6.710938-23.304688-24.777344-16.980469-40.707031 16.042969-46.335938 4.265625-26.109375 4.265625-26.109375l-28.160156 24.746094c-.503906.445312-1.046875.84375-1.621094 1.195312 15.957032-46.082031 4.183594-25.941406 4.183594-25.941406l-26.625 23.378906-26.625-23.378906s-11.773438-20.140625 4.183594 25.941406c.082031.085938.082031.085938.082031.167969 14.507813 42.242187-47.785156 54.019531-42.578125 40.707031.835938-1.808594 2.058594-3.410156 3.582031-4.695312 21.929688-19.96875 2.132813-45.566407 2.132813-45.566407-2.148438 9.34375-8.65625 17.089844-17.492188 20.820313-14.25 7.167968-31.746094 7.167968-31.746094 2.558594 8.585938-2.550782 15.953126-8.128907 20.738282-15.699219.171875 0 .171875-.085938.171875-.171875 1.574219-1.683594 2.949219-3.546875 4.09375-5.546875 4.882812-8.980469 5.566406-19.652344 1.878906-29.183594-6.238281 7.859375-14.332031 14.046875-23.554687 18.003906-19.539063 8.875-37.800782 6.316407-27.132813.769531.167969-.085937.253906-.085937.339844-.171874.683593-.339844 1.449219-.597657 2.132812-1.023438l.769531-.253906c.566407-.257813 1.25-.511719 2.046876-.769532 3.796874-1.230468 7.167968-3.507812 9.726562-6.570312 10.667969-12.886719 5.207031-37.800781 2.304688-51.96875h238.421874c-2.902343 14.167969-8.363281 39.082031 2.304688 51.96875-3.667969-2.816406-15.617188-6.144531-18.601562-9.984375-2.183594 5.734375-2.886719 11.925781-2.050782 18.003906 1.851563 11.660157 9.742188 21.46875 20.738282 25.773438 19.371093 9.300781.683593 13.226562-17.410157 6.824219zm0 0" fill="#f44335"/><path d="m307.15625 276.609375c-5.792969-6.699219-13.367188-11.609375-21.84375-14.167969-17.070312-6.226562-25.492188 17.402344-29.332031 28.578125-3.839844-11.175781-12.3125-34.804687-29.378907-28.578125-8.476562 2.558594-16.054687 7.46875-21.84375 14.167969-5.378906-10.070313-11.605468-27.734375 6.738282-34.730469 1.691406-8.585937 5.148437-16.722656 10.15625-23.894531 7.933594-11.050781 20.703125-17.601563 34.304687-17.601563 13.601563 0 26.371094 6.550782 34.304688 17.601563 5.003906 7.171875 8.460937 15.308594 10.152343 23.894531 18.347657 6.910156 12.117188 24.660156 6.742188 34.730469zm0 0" fill="#c81e1e"/><path d="m307.15625 276.609375c-1.359375 2.550781-2.898438 5.003906-4.609375 7.335937-14.671875 2.476563-29.5 3.929688-44.371094 4.351563-.085937 0-.085937 0-.171875.085937h-2.046875c-.628906.011719-1.253906-.015624-1.878906-.085937h-.339844c-14.875-.421875-29.703125-1.875-44.375-4.351563-1.707031-2.332031-3.25-4.785156-4.605469-7.335937 5.789063-6.699219 13.367188-11.609375 21.84375-14.167969 17.066407-6.226562 25.515626 14.765625 29.355469 25.941406 3.839844-11.175781 12.285157-32.167968 29.355469-25.941406 8.476562 2.558594 16.050781 7.46875 21.84375 14.167969zm0 0" fill="#2c2f38"/><path d="m494.207031 9.003906s-4.265625 91.730469-66.132812 90.964844c-61.867188-.769531-72.535157 18.515625-85.335938 34.902344-7.25 9.214844-23.636719 29.695312-36.4375 45.652344-4.351562-15.53125-24.316406-27.308594-48.554687-27.820313 1.792968-2.386719 5.292968-7.082031 10.582031-14.078125 8.621094-11.4375 22.015625-29.183594 40.960937-53.589844 36.949219-47.617187 69.71875-49.75 110.25-38.316406 24.492188 6.914062 46.679688-8.277344 60.332032-21.503906 5.253906-4.964844 10.050781-10.390625 14.335937-16.210938zm0 0" fill="#fec108"/><path d="m479.871094 25.214844c-7.253906 26.113281-23.722656 58.113281-60.332032 57.6875-61.867187-.683594-72.53125 18.515625-85.332031 34.898437-7.253906 9.21875-23.636719 29.699219-36.4375 45.65625-3.15625-11.179687-24.917969-6.316406-40.023437-10.753906 8.621094-11.433594 32.597656-43.261719 51.542968-67.667969 36.949219-47.617187 69.71875-49.75 110.25-38.316406 24.492188 6.914062 46.679688-8.277344 60.332032-21.503906zm0 0" fill="#ffdc00"/><path d="m254.164062 152.703125c-7.078124.105469-14.097656 1.285156-20.820312 3.5-5.78125 1.789063-11.207031 4.558594-16.042969 8.191406-5.527343 3.984375-9.625 9.636719-11.691406 16.128907-1.878906-2.304688-3.839844-4.78125-5.804687-7.253907-11.601563-14.507812-24.402344-30.550781-30.632813-38.398437-12.800781-16.386719-23.464844-35.585938-85.332031-34.902344-37.292969.425781-53.675782-32.683594-60.757813-59.050781-2.824219-10.441407-4.625-21.128907-5.375-31.914063 0 0 34.132813 49.152344 74.664063 37.714844 40.535156-11.433594 73.300781-9.300781 110.25 38.316406 30.464844 39.339844 46.765625 61.269532 51.542968 67.667969zm0 0" fill="#fec108"/><path d="m237.097656 161.238281c-6.714844.132813-13.375 1.195313-19.796875 3.15625-6.34375 1.820313-12.28125 4.832031-17.496093 8.875-11.601563-14.507812-24.402344-30.550781-30.632813-38.398437-12.800781-16.386719-23.464844-35.585938-85.332031-34.902344-37.292969.425781-53.675782-32.683594-60.757813-59.050781 14.054688 12.957031 33.519531 18.300781 52.222657 14.335937 40.535156-11.433594 73.300781-9.300781 110.25 38.3125 24.917968 32.171875 40.363281 52.738282 47.789062 62.636719 1.621094 2.21875 2.898438 3.925781 3.753906 5.035156zm0 0" fill="#ffdc00"/><path d="m402.644531 352.128906c-10.667969 27.648438-22.441406 30.378906-53.847656 32-6.226563.253906-13.566406.167969-21.503906-.257812-19.539063-1.023438-42.578125-3.582032-60.414063-4.863282h3.753906c-4.308593-.753906-8.695312-.953124-13.054687-.597656 2.816406.171875 5.972656.339844 9.300781.597656h-21.078125c4.183594-.257812 8.023438-.511718 11.433594-.597656-4.605469-.242187-9.226563-.15625-13.824219.257813h-.339844c-.683593.082031-1.28125.253906-1.792968.339843h4.523437c-.765625.085938-1.449219.085938-2.21875.171876-24.917969 1.875-59.476562 5.972656-80.46875 4.949218l-4.011719-.257812c-28.414062-1.621094-39.59375-5.289063-49.832031-31.828125-8.195312-21.417969-1.539062-70.316407 23.292969-82.519531 8.570312-3.933594 18.46875-3.746094 26.882812.515624 16.027344 6.597657 32.785157 11.269532 49.917969 13.90625 11.1875 1.894532 22.46875 3.175782 33.792969 3.839844 4.011719.257813 7.59375.429688 10.582031.511719h.339844c.625.070313 1.25.097656 1.878906.085937h2.046875c.085938-.085937.085938-.085937.171875-.085937 14.871094-.421875 29.699219-1.875 44.371094-4.351563 17.132813-2.636718 33.890625-7.308593 49.921875-13.90625l1.277344-.515624c45.398437-17.917969 59.480468 55.042968 48.898437 82.605468zm0 0" fill="#fec108"/><path d="m377.042969 352.128906c-10.152344 26.453125-21.417969 30.121094-49.75 31.742188l-4.09375.257812c-20.738281 1.023438-54.785157-3.074218-79.617188-4.949218-.765625-.085938-1.535156-.085938-2.304687-.171876h3.757812c-.515625-.085937-1.027344-.257812-1.625-.339843h-.339844c-3.683593-.410157-7.394531-.496094-11.09375-.257813 2.816407.171875 5.972657.339844 9.300782.597656h-21.074219c4.179687-.257812 8.019531-.511718 11.433594-.597656-5.324219-.410156-10.679688-.207031-15.957031.597656h4.523437c-17.835937 1.28125-41.21875 3.839844-61.101563 4.863282-28.414062-1.621094-39.59375-5.289063-49.832031-31.828125-8.195312-21.417969-1.539062-70.316407 23.292969-82.519531l1.28125.515624c16.03125 6.597657 32.789062 11.269532 49.921875 13.90625 14.671875 2.476563 29.496094 3.929688 44.371094 4.351563h.34375c.621093.070313 1.25.097656 1.875.085937h2.046875c.085937-.085937.085937-.085937.171875-.085937 2.988281-.082031 6.570312-.253906 10.582031-.511719 11.324219-.664062 22.605469-1.945312 33.792969-3.839844 17.132812-2.636718 33.890625-7.308593 49.917969-13.90625 8.414062-4.261718 18.3125-4.449218 26.878906-.515624 24.832031 12.203124 31.488281 61.1875 23.296875 82.605468zm0 0" fill="#ffdc00"/><path d="m371.925781 327.894531c-.257812-5.292969-.855469-20.90625-5.632812-24.40625-4.011719-2.988281-22.101563 5.886719-28.503907 7.59375-2.386718.683594-4.777343 1.28125-7.167968 1.878907h-.082032l-13.058593 2.898437c-4.179688.855469-8.277344 1.539063-12.457031 2.21875-28.292969 4.730469-57.125 5.335937-85.589844 1.792969-8.363282-1.023438-16.640625-2.304688-24.917969-3.925782h-.085937l-12.882813-2.898437c-5.207031-1.28125-10.242187-2.648437-15.363281-4.269531-3.496094-1.109375-16.554688-8.191406-19.539063-7.082032-4.609375 1.621094-6.058593 19.457032-6.402343 23.296876-1.191407 7.976562.5 16.117187 4.78125 22.953124 6.621093 1.933594 13.496093 2.851563 20.394531 2.730469 10.859375-.078125 21.710937-.707031 32.511719-1.875 1.28125-.085937 2.558593-.171875 3.839843-.34375 18.515625-1.621093 37.035157-4.265625 55.636719-4.265625 17.492188.085938 35.15625 2.558594 52.734375 4.183594 3.414063.339844 6.742187.59375 10.15625.851562 8.617187.597657 17.238281 1.023438 25.855469.769532h1.792968c5.460938-.257813 15.53125.597656 19.542969-3.074219 4.4375-3.925781 4.605469-13.652344 4.4375-19.027344zm0 0" fill="#2c2f38"/><path d="m201.769531 348.457031c-1.28125.171875-2.558593.257813-3.839843.34375-10.800782 1.167969-21.652344 1.796875-32.511719 1.875l10.664062-27.902343c1.328125-3.496094 3.167969-6.777344 5.464844-9.726563 1.101563-1.546875 2.328125-3.003906 3.667969-4.355469l2.472656-2.472656c2.742188 2.871094 5.015625 6.15625 6.742188 9.726562h.085937c1.808594 3.605469 3.074219 7.460938 3.753906 11.4375zm0 0" fill="#ffe0b2"/><path d="m346.152344 349.996094c-8.617188.253906-17.238282-.171875-25.855469-.769532-3.414063-.257812-6.742187-.511718-10.15625-.851562l3.5-20.992188c.671875-4.019531 1.96875-7.90625 3.839844-11.523437 1.730469-3.546875 4.003906-6.796875 6.742187-9.640625l.769532.683594c2.109374 1.761718 3.972656 3.800781 5.546874 6.058594h.082032c2.414062 3.164062 4.34375 6.671874 5.71875 10.410156zm0 0" fill="#ffe0b2"/><path d="m386.269531 282.75c-.390625 0-.78125-.023438-1.171875-.074219-2.242187-.304687-4.269531-1.488281-5.640625-3.292969-1.371093-1.800781-1.96875-4.074218-1.664062-6.316406 1.761719-12.160156 5.308593-23.992187 10.53125-35.113281 12.125-26.171875 24.421875-60.691406 11.828125-95.769531-4.398438-12.128906-11.140625-23.273438-19.839844-32.792969-2.027344-2.277344-2.6875-5.464844-1.726562-8.359375.957031-2.894531 3.386718-5.058594 6.375-5.675781 2.984374-.617188 6.074218.40625 8.101562 2.683593 10.167969 11.15625 18.042969 24.203126 23.175781 38.398438 14.832031 41.328125 0 81.792969-12.425781 108.640625-4.515625 9.574219-7.582031 19.769531-9.097656 30.25-.554688 4.242187-4.167969 7.417969-8.445313 7.421875zm0 0"/><path d="m288.628906 210.902344c-3.28125-.007813-6.269531-1.894532-7.683594-4.855469-1.414062-2.960937-1.003906-6.472656 1.054688-9.03125 0 0 7.773438-9.648437 17.679688-21.867187 12.75-15.898438 29.109374-36.355469 36.351562-45.554688l2.246094-2.925781c12.886718-16.835938 27.828125-35.984375 89.890625-35.234375h.621093c32.503907 0 46.566407-31.699219 52.566407-55.882813-15.359375 13.371094-38.238281 26.65625-64.136719 19.371094-38.316406-10.796875-67.164062-8.492187-101.1875 35.335937-29.058594 37.546876-45.371094 59.398438-50.730469 66.558594l-.710937.949219c-1.828125 2.4375-4.820313 3.714844-7.84375 3.351563-3.027344-.367188-5.632813-2.316407-6.828125-5.121094-1.199219-2.804688-.808594-6.03125 1.019531-8.472656l.710938-.945313c5.382812-7.21875 21.773437-29.203125 50.925781-66.84375 39.566406-50.96875 76.261719-53.359375 119.277343-41.230469 34.296876 9.691406 65.035157-33.929687 65.359376-34.367187 2.167968-3.117188 6.140624-4.429688 9.738281-3.210938 3.601562 1.21875 5.960937 4.671875 5.789062 8.46875-1.601562 34.398438-19.121093 99.117188-73.898437 99.117188h-.851563c-53.648437-.53125-64.65625 13.558593-76.136719 28.542969l-2.363281 3.078124c-7.277343 9.25-23.679687 29.757813-36.496093 45.738282-9.914063 12.222656-17.679688 21.855468-17.6875 21.863281-1.628907 2.015625-4.085938 3.179687-6.675782 3.167969zm0 0"/><path d="m359.78125 252.527344c-23.011719.003906-43.761719-13.855469-52.566406-35.117188-8.808594-21.257812-3.941406-45.730468 12.328125-62.003906 16.273437-16.273438 40.746093-21.136719 62.003906-12.332031 21.261719 8.808593 35.121094 29.558593 35.117187 52.570312-.039062 31.398438-25.484374 56.84375-56.882812 56.882813zm0-96.707032c-16.109375-.003906-30.632812 9.695313-36.800781 24.578126-6.164063 14.878906-2.761719 32.011718 8.628906 43.402343s28.519531 14.800781 43.402344 8.636719c14.882812-6.164062 24.585937-20.683594 24.585937-36.792969-.023437-21.984375-17.835937-39.796875-39.816406-39.824219zm0 0"/><path d="m359.78125 218.394531c-9.207031.003907-17.507812-5.542969-21.035156-14.046875-3.523438-8.503906-1.578125-18.296875 4.933594-24.804687 6.511718-6.511719 16.300781-8.457031 24.804687-4.933594 8.507813 3.527344 14.050781 11.828125 14.046875 21.035156-.015625 12.558594-10.191406 22.734375-22.75 22.75zm0-28.441406c-2.304688-.003906-4.382812 1.378906-5.265625 3.507813-.882813 2.125-.398437 4.574218 1.230469 6.203124 1.625 1.628907 4.074218 2.121094 6.203125 1.238282 2.128906-.878906 3.515625-2.957032 3.515625-5.257813 0-3.140625-2.542969-5.6875-5.683594-5.691406zm0 0"/><path d="m253.746094 296.917969c-.613282 0-1.226563-.066407-1.828125-.195313-4.597657-1.007812-7.511719-5.554687-6.507813-10.15625 1.898438-12.539062 8.8125-23.765625 19.15625-31.105468 7.339844-3.871094 16.03125-4.25 23.679688-1.03125 10.023437 3.125 18.945312 9.046874 25.71875 17.066406 1.839844 2.4375 2.238281 5.671875 1.042968 8.484375-1.191406 2.8125-3.792968 4.773437-6.824218 5.144531-3.035156.375-6.03125-.898438-7.871094-3.335938-4.785156-5.386718-10.988281-9.3125-17.902344-11.332031-3.015625-1.511719-6.566406-1.511719-9.582031 0-5.996094 4.964844-9.835937 12.054688-10.71875 19.789063-.875 3.910156-4.355469 6.6875-8.363281 6.671875zm0 0"/><path d="m326.78125 511.019531c-7.640625-.304687-15.125-2.273437-21.929688-5.769531-19.820312-8.574219-29.414062-31.195312-21.800781-51.40625.1875-.554688.375-1.089844.554688-1.628906l-22.015625 19.34375c-3.558594 2.867187-8.742188 2.421875-11.761719-1.007813-3.015625-3.429687-2.796875-8.625.496094-11.789062l38.449219-33.792969c4.269531-6.664062 8.9375-8.875 13.980468-6.5625 8.753906 4.019531 6.101563 13.054688-3.578125 41.019531-3.625 8.261719-1.8125 17.902344 4.566407 24.285157 4.148437 4.078124 9.222656 7.089843 14.789062 8.773437-13.988281-18.832031-4.914062-40.824219 2.714844-50.6875 2.0625-2.671875 5.507812-3.878906 8.785156-3.074219 3.28125.808594 5.777344 3.46875 6.367188 6.792969 1.375 5.964844 5.375 10.984375 10.882812 13.65625 1.03125.605469 2.089844 1.148437 3.164062 1.644531-11.171874-11.910156-14.285156-29.28125-7.945312-44.332031 1.183594-2.78125 3.753906-4.726563 6.75-5.117187 3-.367188 5.972656.855468 7.84375 3.226562 4.9375 6.230469 11.226562 11.253906 18.398438 14.691406-7.828126-16.050781-3.039063-39.167968-.316407-52.292968l.179688-.851563c.953125-4.617187 5.46875-7.585937 10.085937-6.628906 4.617188.953125 7.585938 5.46875 6.628906 10.085937l-.179687.851563c-4.582031 22.109375-6.960937 43.214843 6.613281 47.855469 4.617188 1.570312 14.226563 4.855468 14.234375 13.226562-.082031 4.484375-3.089843 8.386719-7.40625 9.601562-9.070312 3.113282-30.90625-.488281-48.5625-13.390624 2.03125 8.308593 8 15.09375 15.980469 18.167968 3.730469 1.800782 15.113281 7.289063 12.742188 16.949219-1.09375 4.460937-5.375 9.75-18.304688 9.25-14.351562-.515625-28.03125-6.214844-38.503906-16.042969-1.449219 7.550782 1.300781 15.292969 7.1875 20.238282 9.839844 9.019531 6.585937 16.214843 4.734375 18.878906-3.335938 4.140625-8.527344 6.332031-13.824219 5.835937zm0 0"/><path d="m448.980469 358.1875c-1.527344 0-3.027344-.410156-4.34375-1.1875l-40.875-24.148438c-2.695313-1.515624-4.359375-4.375-4.347657-7.464843.011719-3.09375 1.695313-5.9375 4.398438-7.4375 2.707031-1.496094 6.007812-1.414063 8.636719.214843l24.523437 14.507813-9.164062-47.0625c-.542969-2.789063.339844-5.671875 2.355468-7.679687 2.015626-2.003907 4.898438-2.875 7.6875-2.320313l37.4375 7.484375-26.34375-38.402344c-1.5625-2.273437-1.925781-5.164062-.980468-7.753906.949218-2.59375 3.089844-4.566406 5.75-5.300781l30.832031-8.480469-33.230469-25.3125c-2.050781-1.5625-3.28125-3.972656-3.351562-6.550781-.070313-2.578125 1.03125-5.050781 2.996094-6.726563l20.625-17.585937-28.410157 1.707031c-2.925781.226562-5.75-1.109375-7.429687-3.515625-1.710938-2.367187-2.089844-5.445313-1.007813-8.160156l11.09375-27.945313-33.691406 17.828125c-4.164063 2.203125-9.332031.613281-11.535156-3.550781-2.207031-4.167969-.617188-9.332031 3.546875-11.539062l54.195312-28.671876c3.164063-1.691406 7.050782-1.226562 9.722656 1.167969 2.671876 2.394531 3.5625 6.203125 2.226563 9.535157l-14.738281 37.007812 40.441406-2.492188c3.671875-.261718 7.085938 1.898438 8.429688 5.324219 1.371093 3.40625.414062 7.304688-2.382813 9.6875l-31.964844 27.304688 38.511719 29.363281c2.578125 1.964844 3.820312 5.222656 3.203125 8.40625-.613281 3.183594-2.980469 5.742188-6.105469 6.605469l-35.898437 9.878906 31.445312 45.84375c1.960938 2.859375 1.992188 6.625.082031 9.523437-1.910156 2.894532-5.382812 4.34375-8.785156 3.667969l-45.542968-9.105469 10.351562 53.179688c.488281 2.503906-.167969 5.097656-1.789062 7.066406-1.621094 1.96875-4.039063 3.109375-6.59375 3.105469zm0 0"/><path d="m125.644531 282.75c-4.265625 0-7.875-3.152344-8.449219-7.378906-1.515624-10.484375-4.582031-20.679688-9.105468-30.257813-12.433594-26.839843-27.246094-67.304687-12.398438-108.691406 5.128906-14.195313 12.996094-27.242187 23.160156-38.398437 2.027344-2.277344 5.113282-3.300782 8.101563-2.683594 2.984375.617187 5.414063 2.78125 6.375 5.675781.957031 2.894531.300781 6.078125-1.726563 8.355469-8.707031 9.511718-15.453124 20.644531-19.859374 32.761718-12.613282 35.136719-.316407 69.65625 11.800781 95.820313 5.230469 11.117187 8.78125 22.953125 10.539062 35.113281.308594 2.242188-.292969 4.515625-1.660156 6.316406-1.371094 1.804688-3.402344 2.988282-5.644531 3.292969-.375.046875-.753906.074219-1.132813.074219zm0 0"/><path d="m255.90625 83.226562c-4.792969-.003906-9.566406-.601562-14.210938-1.785156-16.835937-4.496094-34.367187-5.792968-51.683593-3.824218-2.4375.292968-4.878907-.460938-6.730469-2.074219-1.847656-1.609375-2.929688-3.929688-2.972656-6.378907-.015625-4.445312 3.378906-8.15625 7.808594-8.535156 19.367187-2.273437 38.988281-.824218 57.8125 4.265625 6.53125 1.675781 13.378906 1.675781 19.90625 0 19.027343-5.054687 38.835937-6.476562 58.386718-4.1875 4.609375.6875 7.8125 4.953125 7.195313 9.574219-.621094 4.621094-4.835938 7.886719-9.464844 7.335938-17.378906-1.988282-34.980469-.695313-51.882813 3.816406-4.628906 1.191406-9.386718 1.792968-14.164062 1.792968zm0 0"/><path d="m223.28125 210.902344c-2.582031 0-5.027344-1.167969-6.648438-3.175782 0 0-7.773437-9.640624-17.652343-21.828124-12.851563-16.015626-29.253907-36.523438-36.515625-45.753907l-2.382813-3.097656c-11.476562-14.984375-22.015625-29.21875-76.148437-28.546875h-.855469c-54.765625 0-72.277344-64.707031-73.878906-99.113281-.152344-3.78125 2.207031-7.207031 5.789062-8.417969 3.582031-1.214844 7.539063.078125 9.714844 3.167969.324219.4375 31.207031 43.992187 65.355469 34.375 42.957031-12.136719 79.703125-9.738281 119.304687 41.300781 29.160157 37.648438 45.550781 59.628906 50.9375 66.851562l.707031.945313c1.828126 2.4375 2.21875 5.667969 1.019532 8.472656-1.195313 2.804688-3.800782 4.753907-6.824219 5.121094-3.027344.363281-6.019531-.914063-7.847656-3.355469l-.710938-.945312c-5.359375-7.195313-21.671875-29.074219-50.738281-66.558594-34.03125-43.90625-62.898438-46.226562-101.230469-35.414062-25.90625 7.285156-48.785156-5.972657-64.136719-19.371094 5.972657 24.183594 20.0625 55.882812 52.546876 55.882812h.625c62.609374-.851562 77.011718 18.398438 89.90625 35.234375l2.261718 2.945313c7.226563 9.183594 23.585938 29.636718 36.371094 45.578125 9.871094 12.175781 17.644531 21.828125 17.644531 21.828125 2.058594 2.554687 2.46875 6.066406 1.054688 9.027344-1.414063 2.960937-4.402344 4.847656-7.683594 4.855468zm0 0"/><path d="m341.441406 392.796875c-15.359375 0-35.0625-1.765625-52.734375-3.351563-11.347656-1.015624-23.621093-2.117187-32.75-2.5-9.132812.382813-21.402343 1.484376-32.753906 2.5-20.074219 2.289063-40.273437 3.351563-60.484375 3.171876-34.046875-1.707032-49.132812-5.589844-61.4375-37.46875-8.816406-22.929688-3.039062-66.472657 17.375-86.1875 11.726562-11.449219 29.429688-14.1875 44.074219-6.824219 29.765625 11.246093 61.261719 17.222656 93.082031 17.652343 31.894531-.398437 63.476562-6.355468 93.328125-17.601562 14.640625-7.363281 32.34375-4.621094 44.074219 6.824219 20.410156 19.679687 26.1875 63.226562 17.375 86.1875-12.265625 31.882812-27.351563 35.746093-61.398438 37.46875-2.421875.078125-5.027344.128906-7.75.128906zm-67.890625-21.792969c5.050781.410156 10.613281.890625 16.683594 1.441406 19.285156 2.175782 38.679687 3.21875 58.085937 3.132813 30.804688-1.5625 37.597657-3.839844 46.335938-26.554687 6.09375-15.824219 2.558594-52.464844-13.285156-67.738282-6.8125-6.675781-17.207032-8.066406-25.53125-3.414062-28.277344 11.027344-58.179688 17.3125-88.5 18.601562-.847656.308594-1.742188.472656-2.644532.488282-.453124 0-2.867187.066406-6.828124 0h-3.875c-3.933594.058593-6.332032 0-6.824219 0-.902344-.015626-1.796875-.179688-2.648438-.488282-30.289062-1.296875-60.15625-7.582031-88.402343-18.59375-8.328126-4.644531-18.71875-3.253906-25.53125 3.414063-15.847657 15.273437-19.382813 51.917969-13.289063 67.738281 8.738281 22.714844 15.53125 24.992188 46.335937 26.554688 19.40625.101562 38.804688-.941407 58.085938-3.132813 6.078125-.566406 11.636719-1.046875 16.683594-1.441406.28125-.101563.5625-.1875.855468-.265625 5.503907-1.011719 11.117188-1.304688 16.699219-.867188 5.589844-.433594 11.214844-.148437 16.734375.851563.332032.085937.578125.171875.859375.273437zm0 0"/><path d="m168.207031 359.246094c-.996093 0-1.996093 0-2.996093 0-7.691407.105468-15.351563-.941406-22.730469-3.117188-1.851563-.589844-3.449219-1.792968-4.523438-3.414062-5.433593-8.445313-7.625-18.570313-6.179687-28.507813 1.707031-19.855469 5.011718-28.066406 12.058594-30.539062 4.992187-1.84375 10.753906.570312 20.539062 5.050781 1.886719.851562 3.507812 1.636719 4.421875 1.945312 4.933594 1.5625 9.796875 2.875 14.8125 4.113282 2.433594.597656 4.480469 2.230468 5.597656 4.46875 1.984375-1.515625 4.519531-2.117188 6.972657-1.652344 7.78125 1.519531 15.746093 2.773438 24.320312 3.820312 27.675781 3.433594 55.699219 2.859376 83.207031-1.707031 4.039063-.664062 8.023438-1.320312 12.09375-2.15625 2.53125-.507812 5.15625.144531 7.148438 1.78125 1.097656-2.296875 3.164062-3.980469 5.632812-4.597656 2.296875-.582031 4.59375-1.152344 6.886719-1.808594 1.808594-.480469 4.351562-1.496093 7.21875-2.5625 13.75-5.324219 22.539062-8.226562 28.722656-3.625 6.511719 4.761719 8.332032 15.554688 9.039063 30.292969.441406 13.253906-1.953125 21.65625-7.28125 26.375-6.304688 4.199219-13.902344 6.015625-21.425781 5.121094-1.238282 0-2.390626 0-3.414063.050781h-2.175781c-9.191406.292969-18.542969-.238281-26.453125-.785156-3.539063-.273438-6.9375-.527344-10.417969-.851563-4.582031-.425781-9.234375-.914062-13.894531-1.398437-12.566407-1.316407-25.597657-2.679688-38.03125-2.742188-13.140625.242188-26.261719 1.148438-39.3125 2.714844-5.179688.539063-10.351563 1.066406-15.53125 1.519531-1.023438.144532-2.421875.246094-3.816407.339844l-6.902343.582031c-7.285157.5625-15.46875 1.289063-23.585938 1.289063zm-17.550781-18.605469c4.847656 1.058594 9.800781 1.5625 14.761719 1.503906 8.316406.027344 16.628906-.394531 24.898437-1.261719l6.957032-.589843c1.296874-.085938 2.335937-.15625 3.410156-.289063 5.464844-.488281 10.558594-1.015625 15.652344-1.539062 13.644531-1.640625 27.363281-2.574219 41.105468-2.804688 13.363282.066406 26.792969 1.476563 39.773438 2.832032 4.582031.476562 9.164062.964843 13.738281 1.382812 3.414063.339844 6.683594.585938 10.019531.851562 7.429688.519532 16.253906 1 24.957032.742188h2.050781c.792969-.042969 2.183593-.058594 3.675781-.058594 3.484375.183594 6.972656-.144531 10.359375-.972656 1.476563-3.90625 1.964844-8.113281 1.417969-12.253906-.066406-5.511719-.722656-11.003906-1.964844-16.375-4.273438 1.246094-8.480469 2.707031-12.601562 4.386718-3.585938 1.382813-6.777344 2.558594-8.847657 3.140626-2.339843.671874-4.816406 1.296874-7.296875 1.910156-2.632812.65625-5.421875.023437-7.511718-1.707032-1.148438 2.410157-3.359376 4.144532-5.972657 4.683594-4.265625.855469-8.53125 1.578125-12.800781 2.28125-29.089844 4.835938-58.726562 5.453125-87.992188 1.839844-8.929687-1.097656-17.230468-2.394531-25.363281-3.992188-2.679687-.464843-4.980469-2.175781-6.203125-4.609374-2.070312 1.621093-4.765625 2.207031-7.320312 1.589843-5.402344-1.324219-10.609375-2.738281-15.90625-4.421875-1.273438-.398437-3.628906-1.441406-6.367188-2.6875-1.585937-.734375-4.191406-1.917968-6.425781-2.839844-1.027344 4.617188-1.707031 9.308594-2.039063 14.027344-.800781 5.148438-.164062 10.417969 1.835938 15.230469zm0 0"/><path d="m152.128906 252.527344c-23.007812 0-43.753906-13.863282-52.558594-35.121094-8.808593-21.261719-3.9375-45.734375 12.335938-62.003906 16.273438-16.269532 40.742188-21.132813 62.003906-12.324219 21.257813 8.808594 35.117188 29.554687 35.113282 52.566406-.035157 31.40625-25.488282 56.855469-56.894532 56.882813zm0-96.707032c-21.992187 0-39.824218 17.828126-39.824218 39.824219 0 21.992188 17.832031 39.824219 39.824218 39.824219 21.996094 0 39.828125-17.832031 39.828125-39.824219-.019531-21.988281-17.839843-39.808593-39.828125-39.824219zm0 0"/><path d="m152.128906 218.394531c-9.203125 0-17.503906-5.546875-21.023437-14.050781-3.523438-8.507812-1.574219-18.296875 4.9375-24.804688 6.507812-6.507812 16.300781-8.453124 24.804687-4.925781 8.503906 3.523438 14.046875 11.824219 14.042969 21.03125-.015625 12.5625-10.199219 22.738281-22.761719 22.75zm0-28.441406c-3.140625 0-5.691406 2.546875-5.691406 5.691406s2.550781 5.691407 5.691406 5.691407c3.144532 0 5.695313-2.546876 5.695313-5.691407 0-1.511719-.601563-2.957031-1.667969-4.027343-1.066406-1.066407-2.515625-1.664063-4.027344-1.664063zm0 0"/><path d="m302.539062 292.480469c-3.230468 0-6.1875-1.828125-7.632812-4.71875s-1.132812-6.347657.804688-8.933594c3.484374-4.6875 10.054687-16.574219 8.058593-23.367187-.445312-1.542969-1.605469-3.804688-6.375-5.597657-2.867187-1.082031-4.933593-3.621093-5.410156-6.644531-1.535156-7.292969-4.496094-14.207031-8.722656-20.34375-6.320313-8.785156-16.484375-13.988281-27.304688-13.988281-10.824219 0-20.984375 5.203125-27.308593 13.988281-4.238282 6.140625-7.203126 13.070312-8.730469 20.375-.496094 3-2.542969 5.511719-5.382813 6.605469-4.804687 1.816406-5.972656 4.105469-6.410156 5.667969-1.988281 6.824218 4.574219 18.660156 8.058594 23.292968 1.828125 2.441406 2.214844 5.671875 1.019531 8.472656-1.199219 2.804688-3.800781 4.757813-6.828125 5.121094-3.027344.363282-6.015625-.914062-7.847656-3.351562-1.613282-2.160156-15.675782-21.496094-10.820313-38.296875 1.914063-6.457031 6.398438-11.84375 12.398438-14.902344 2.191406-8.132813 5.75-15.832031 10.523437-22.773437 9.519532-13.359376 24.90625-21.289063 41.308594-21.289063s31.792969 7.929687 41.3125 21.289063c4.765625 6.941406 8.324219 14.636718 10.519531 22.765624 6.007813 3.046876 10.496094 8.4375 12.398438 14.898438 4.898437 16.785156-9.179688 36.199219-10.792969 38.402344-1.632812 2.117187-4.160156 3.351562-6.835938 3.328125zm0 0"/><path d="m258.167969 296.917969c-4.007813-.003907-7.472657-2.792969-8.332031-6.707031-.882813-7.734376-4.722657-14.824219-10.714844-19.789063-3.019532-1.511719-6.574219-1.511719-9.59375 0-6.929688 2.011719-13.148438 5.941406-17.945313 11.332031-1.835937 2.4375-4.835937 3.710938-7.867187 3.339844-3.03125-.375-5.636719-2.335938-6.828125-5.148438-1.195313-2.808593-.796875-6.042968 1.042969-8.484374 6.773437-8.015626 15.691406-13.9375 25.710937-17.066407 7.652344-3.21875 16.34375-2.839843 23.6875 1.035157 10.363281 7.347656 17.285156 18.601562 19.175781 31.164062 1.003906 4.601562-1.910156 9.144531-6.511718 10.152344-.601563.125-1.214844.179687-1.824219.171875zm0 0"/><path d="m185.128906 511.019531c-5.296875.472657-10.480468-1.742187-13.796875-5.898437-1.851562-2.671875-5.121093-9.855469 4.699219-18.847656 5.902344-4.949219 8.664062-12.703126 7.21875-20.269532-10.472656 9.828125-24.148438 15.527344-38.5 16.042969-13.160156.367187-17.210938-4.792969-18.304688-9.25-2.371093-9.660156 9.011719-15.144531 12.742188-16.945313 7.976562-3.078124 13.945312-9.863281 15.980469-18.167968-17.65625 12.902344-39.464844 16.503906-48.5625 13.386718-4.316407-1.214843-7.328125-5.113281-7.40625-9.597656 0-8.371094 9.617187-11.65625 14.234375-13.226562 13.574218-4.644532 11.195312-25.746094 6.613281-47.855469l-.179687-.855469c-.957032-4.613281 2.011718-9.128906 6.628906-10.085937 4.617187-.953125 9.132812 2.015625 10.085937 6.632812l.179688.851563c2.722656 13.125 7.511719 36.242187-.316407 52.292968 7.160157-3.421874 13.449219-8.425781 18.390626-14.632812 1.867187-2.378906 4.84375-3.601562 7.84375-3.226562 2.996093.390624 5.5625 2.335937 6.75 5.117187 6.359374 15.0625 3.242187 32.457031-7.945313 44.375 1.074219-.496094 2.132813-1.039063 3.164063-1.648437 5.507812-2.667969 9.507812-7.6875 10.878906-13.652344.59375-3.324219 3.089844-5.984375 6.367187-6.792969 3.28125-.804687 6.726563.402344 8.789063 3.074219 7.621094 9.863281 16.691406 31.84375 2.707031 50.6875 5.566406-1.703125 10.636719-4.726563 14.777344-8.816406 6.402343-6.402344 8.207031-16.082032 4.550781-24.363282-9.679688-27.945312-12.332031-36.980468-3.578125-40.957031 5.035156-2.3125 9.722656-.105469 13.980469 6.5625l38.449218 33.789063c2.445313 1.96875 3.609376 5.121093 3.039063 8.203124-.574219 3.085938-2.792969 5.609376-5.78125 6.566407-2.984375.960937-6.257813.203125-8.519531-1.96875l-22-19.40625.554687 1.613281c7.664063 20.238281-1.941406 42.925781-21.8125 51.5-6.800781 3.496094-14.28125 5.464844-21.921875 5.769531zm0 0"/><path d="m62.933594 358.1875c-2.546875-.003906-4.957032-1.144531-6.574219-3.109375s-2.273437-4.546875-1.789063-7.046875l10.367188-53.203125-45.558594 9.085937c-3.402344.675782-6.878906-.773437-8.789062-3.667968-1.910156-2.898438-1.878906-6.660156.082031-9.523438l31.445313-45.839844-35.898438-9.882812c-3.101562-.875-5.449219-3.425781-6.0625-6.589844-.613281-3.167968.609375-6.40625 3.160156-8.378906l38.511719-29.34375-31.964844-27.308594c-2.792969-2.378906-3.753906-6.28125-2.382812-9.683594 1.324219-3.449218 4.75-5.617187 8.433593-5.34375l40.429688 2.433594-14.738281-36.992187c-1.335938-3.332031-.445313-7.140625 2.226562-9.535157 2.675781-2.394531 6.558594-2.859374 9.722657-1.167968l54.195312 28.671875c2.695312 1.429687 4.421875 4.183593 4.535156 7.230469.113282 3.046874-1.410156 5.925781-3.992187 7.542968-2.585938 1.621094-5.835938 1.742188-8.53125.316406l-33.722657-17.828124 11.09375 27.945312c1.082032 2.714844.699219 5.792969-1.007812 8.160156-1.675781 2.410156-4.507812 3.75-7.433594 3.515625l-28.40625-1.707031 20.625 17.585938c1.984375 1.667968 3.101563 4.148437 3.042969 6.738281-.0625 2.589843-1.296875 5.011719-3.359375 6.582031l-33.230469 25.277344 30.832031 8.480468c2.660157.734376 4.804688 2.707032 5.75 5.300782.949219 2.589844.582032 5.480468-.980468 7.757812l-26.316406 38.40625 37.4375-7.484375c2.789062-.554687 5.671874.316407 7.6875 2.324219 2.015624 2.007812 2.898437 4.886719 2.355468 7.679688l-9.191406 47.085937 24.527344-14.507813c4.054687-2.398437 9.289062-1.054687 11.6875 3.003907 2.398437 4.058593 1.054687 9.292969-3.003906 11.691406l-40.875 24.148437c-1.3125.773438-2.8125 1.183594-4.339844 1.179688zm0 0"/><path d="m264.488281 417.152344c0 4.710937-3.820312 8.53125-8.53125 8.53125-4.714843 0-8.535156-3.820313-8.535156-8.53125 0-4.714844 3.820313-8.535156 8.535156-8.535156 4.710938 0 8.53125 3.820312 8.53125 8.535156zm0 0"/><path d="m306.300781 189.0625c-3.820312-.007812-7.171875-2.554688-8.199219-6.234375-3.335937-11.898437-20.761718-21.171875-40.53125-21.589844-.332031-.007812-.664062-.035156-.992187-.085937h-1.289063l-.929687.078125c-19.769531.417969-37.195313 9.691406-40.53125 21.585937-.820313 2.941406-3.148437 5.21875-6.101563 5.976563-2.953124.757812-6.089843-.121094-8.222656-2.300781-2.132812-2.183594-2.9375-5.335938-2.113281-8.273438 5.429687-19.371094 28.511719-33.324219 56.191406-34.039062 1.578125-.152344 3.167969-.152344 4.746094 0 27.683594.714843 50.765625 14.667968 56.191406 34.039062 1.273438 4.535156-1.367187 9.246094-5.90625 10.519531-.75.210938-1.527343.320313-2.3125.324219zm0 0"/><path d="m165.417969 359.210938c-2.808594 0-5.4375-1.382813-7.027344-3.695313-1.59375-2.3125-1.945313-5.261719-.945313-7.886719l10.675782-27.902344c2.445312-6.410156 6.226562-12.230468 11.09375-17.066406l2.441406-2.457031c1.644531-1.605469 3.847656-2.5 6.144531-2.5 2.300781.027344 4.496094.984375 6.082031 2.652344 6.738282 7.058593 11.199219 15.976562 12.800782 25.601562l3.515625 21.085938c.777343 4.648437-2.363281 9.046875-7.011719 9.820312-4.652344.777344-9.046875-2.363281-9.824219-7.015625l-3.515625-21.085937c-.511718-3.050781-1.460937-6.015625-2.824218-8.796875-1.183594 1.839844-2.175782 3.796875-2.960938 5.835937l-10.675781 27.90625c-1.257813 3.308594-4.429688 5.5-7.96875 5.503907zm0 0"/><path d="m346.152344 358.527344c-3.574219 0-6.765625-2.226563-8.003906-5.582032l-9.828126-26.65625c-.851562-2.296874-1.957031-4.492187-3.304687-6.535156-1.433594 2.847656-2.425781 5.898438-2.953125 9.042969l-3.507812 20.984375c-.777344 4.648438-5.175782 7.789062-9.824219 7.011719-4.648438-.777344-7.789063-5.179688-7.011719-9.828125l3.507812-20.992188c1.609376-9.621094 6.066407-18.539062 12.800782-25.597656 3.140625-3.304688 8.320312-3.554688 11.765625-.574219l.746093.640625c6.191407 5.402344 10.933594 12.269532 13.789063 19.976563l9.828125 26.660156c.96875 2.617187.589844 5.542969-1.007812 7.832031-1.597657 2.289063-4.210938 3.652344-7.003907 3.652344zm0 0"/></svg>