<?xml version="1.0" encoding="iso-8859-1"?>
<!-- Generator: Adobe Illustrator 19.0.0, SVG Export Plug-In . SVG Version: 6.00 Build 0)  -->
<svg xmlns="http://www.w3.org/2000/svg" xmlns:xlink="http://www.w3.org/1999/xlink" version="1.1" id="Layer_1" x="0px" y="0px" viewBox="0 0 511.986 511.986" style="enable-background:new 0 0 511.986 511.986;" xml:space="preserve" width="512" height="512">
<g>
	<g>
		<g>
			<path style="fill:#C86D5C;" d="M255.993,422.459c-10.075,0-18.243-8.167-18.243-18.243V55.778     c0-10.075,8.167-18.243,18.243-18.243c10.075,0,18.242,8.167,18.242,18.243v348.438     C274.236,414.291,266.068,422.459,255.993,422.459z"/>
		</g>
		<path style="fill:#C86D5C;" d="M375.694,375.028H65.615l-23.287,12.314c5.719,14.293,13.299,29.854,23.287,45.151l34.005,16.114    h241.413l37.428-16.114c8.957-12.396,18.48-27.474,27.291-45.151L375.694,375.028z"/>
		<path style="fill:#B35948;" d="M431.164,302.056v15.041c-6.294,26.698-15.388,50.149-25.412,70.244H42.328    c-13.363-33.339-16.592-59.745-16.592-59.745v-18.243h117.666l26.452,35.573H308.5l36.486-27.829L431.164,302.056z"/>
		<path style="fill:#B35948;" d="M378.461,432.492c-7.927,10.982-15.406,19.848-21.554,26.562    c-8.994,9.824-21.709,15.397-35.026,15.397h-200.89c-13.564,0-26.47-5.81-35.51-15.926c-7.498-8.392-14.083-17.167-19.866-26.033    H378.461z"/>
		<path style="fill:#B35948;" d="M237.75,127.774v174.552c5.932-0.252,12.015-0.396,18.243-0.396c6.236,0,12.323,0.155,18.242,0.435    V127.774l-18.242-2.051L237.75,127.774z"/>
		<path style="fill:#3A484A;" d="M93.726,114.155c0,0,49.443,78.444,0,195.198l33.866-18.243c0,0,50.659-19.18,128.401-19.18    s133.607,21.868,133.607,21.868l28.66,15.555c49.443-116.754,0-195.198,0-195.198L255.993,95.913L93.726,114.155z"/>
		<path style="fill:#EFEDEE;" d="M319.289,195.468c0-33.162-26.883-60.045-60.045-60.045s-60.045,26.883-60.045,60.045    c0,18.814,8.658,28.293,22.201,32.978v10.028c0,5.225,4.236,9.461,9.461,9.461c5.225,0,9.461-4.236,9.461-9.461    c0,5.225,4.236,9.461,9.461,9.461c5.225,0,9.461-4.236,9.461-9.461c0,5.225,4.236,9.461,9.461,9.461    c5.225,0,9.461-4.236,9.461-9.461c0,5.225,4.236,9.461,9.461,9.461s9.461-4.236,9.461-9.461v-10.028    C310.631,223.761,319.289,214.282,319.289,195.468z"/>
		<g>
			<path style="fill:#C86D5C;" d="M418.26,114.155H93.726c-10.075,0-18.243-8.167-18.243-18.243S83.65,77.67,93.726,77.67H418.26     c10.075,0,18.243,8.167,18.243,18.243S428.336,114.155,418.26,114.155z"/>
		</g>
		<path style="fill:#E3B098;" d="M503.949,280.332c-1.974-6.311-8.691-9.827-15.002-7.852l-0.464,0.145    c-45.841,14.349-94.033,22.617-142.02,24.736c-0.042,0.002-0.085,0.004-0.127,0.006c-5.426,0.237-10.304,0.645-14.706,4.236    l-29.627,24.169H175.656l-12.288-24.577c-2.999-5.968-9.183-10.084-16.317-10.084H25.736c-10.075,0-18.243,8.168-18.243,18.243    c0,10.075,8.168,18.243,18.243,18.243h110.04l12.288,24.577c2.999,5.968,9.183,10.084,16.317,10.084H308.5    c4.052-0.002,8.147-1.346,11.532-4.107l30.625-24.983c4.546-0.615,9.083-1.27,13.616-1.977    c45.701-7.12,89.861-18.793,132.75-36.188C502.716,292.673,505.819,286.312,503.949,280.332z"/>
		<rect x="237.75" y="55.778" style="fill:#B35948;" width="36.485" height="21.711"/>
	</g>
	<g>
		<path d="M213.907,233.492v4.982c0,9.352,7.609,16.96,16.961,16.96c3.5,0,6.757-1.066,9.461-2.89c2.704,1.824,5.96,2.89,9.461,2.89    s6.757-1.066,9.461-2.89c2.704,1.824,5.96,2.89,9.461,2.89s6.756-1.066,9.461-2.89c2.704,1.824,5.96,2.89,9.46,2.89    c9.353,0,16.961-7.608,16.961-16.96v-4.982c14.739-6.916,22.202-19.682,22.202-38.024c0-37.245-30.3-67.545-67.545-67.545    s-67.545,30.3-67.545,67.545C191.706,213.81,199.169,226.576,213.907,233.492z M259.251,142.923    c28.973,0,52.545,23.572,52.545,52.545c0,13.987-5.13,21.73-17.154,25.89c-3.021,1.045-5.048,3.891-5.048,7.088v10.028    c0,1.081-0.88,1.96-1.961,1.96s-1.96-0.879-1.96-1.96c0-4.142-3.358-7.5-7.5-7.5s-7.5,3.358-7.5,7.5c0,1.081-0.88,1.96-1.961,1.96    s-1.961-0.879-1.961-1.96c0-4.142-3.358-7.5-7.5-7.5s-7.5,3.358-7.5,7.5c0,1.081-0.88,1.96-1.961,1.96s-1.961-0.879-1.961-1.96    c0-4.142-3.358-7.5-7.5-7.5s-7.5,3.358-7.5,7.5c0,1.081-0.88,1.96-1.961,1.96s-1.961-0.879-1.961-1.96v-10.028    c0-3.197-2.026-6.042-5.048-7.088c-12.023-4.16-17.153-11.903-17.153-25.89C206.706,166.495,230.278,142.923,259.251,142.923z"/>
		<path d="M227.462,217.035c4.142,0,7.5-3.358,7.5-7.5v-5.753c0-4.142-3.358-7.5-7.5-7.5s-7.5,3.358-7.5,7.5v5.753    C219.962,213.678,223.32,217.035,227.462,217.035z"/>
		<path d="M291.04,217.035c4.142,0,7.5-3.358,7.5-7.5v-5.753c0-4.142-3.358-7.5-7.5-7.5s-7.5,3.358-7.5,7.5v5.753    C283.54,213.678,286.897,217.035,291.04,217.035z"/>
		<path d="M511.113,278.092c-3.272-10.459-14.594-15.831-24.864-12.625c-16.065,5.029-32.413,9.294-48.978,12.816    c14.509-50.272,11.285-91.545,5.657-118.054c-3.983-18.762-9.595-32.737-13.558-41.094c8.651-4.154,14.639-13.001,14.639-23.221    c0-14.194-11.548-25.743-25.743-25.743h-38.072c-4.142,0-7.5,3.358-7.5,7.5s3.358,7.5,7.5,7.5h38.072    c5.923,0,10.743,4.819,10.743,10.743s-4.819,10.743-10.743,10.743H93.732c-5.923,0-10.743-4.819-10.743-10.743    S87.809,85.17,93.732,85.17h144.025h36.485h75.952c4.142,0,7.5-3.358,7.5-7.5s-3.358-7.5-7.5-7.5h-68.452V55.778    c0-14.194-11.548-25.743-25.743-25.743s-25.743,11.548-25.743,25.743V70.17H93.732c-14.194,0-25.743,11.548-25.743,25.743    c0,12.614,9.123,23.131,21.115,25.318c3.258,6.177,10.395,21.401,14.934,43.677c5.354,26.274,8.049,67.885-8.643,118.703H25.743    C11.548,283.611,0,295.158,0,309.353c0,11.929,8.157,21.986,19.186,24.894c1.693,9.734,6.144,30.825,16.186,55.88    c10.67,26.668,25.345,51.929,44.524,73.395c10.465,11.712,25.446,18.429,41.102,18.429h200.89c15.4,0,30.183-6.5,40.557-17.832    c20.043-21.893,36.793-46.885,50.025-73.43c10.729-21.506,19.108-44.198,24.941-67.516c21.381-5.935,42.111-12.978,62.456-21.229    C509.167,298.14,514.107,287.664,511.113,278.092z M245.257,55.778c0-5.923,4.819-10.743,10.743-10.743    s10.743,4.819,10.743,10.743V70.17h-21.485V55.778z M346.015,289.874c-5.291,0.231-12.538,0.547-19.12,5.917l-27.557,22.48    h-17.596v-38.043c26.468,1.631,49.299,5.535,66.86,9.511c-0.822,0.04-1.641,0.092-2.464,0.128 M180.298,318.272l-10.222-20.444    c-1.736-3.455-4.164-6.383-7.059-8.677c16.964-3.69,39.884-7.454,67.24-8.995v38.116H180.298z M245.257,279.557    c0.051-0.001,0.101-0.003,0.151-0.004c1.914-0.044,21.334-0.198,21.334,0.02v38.699h-21.485V279.557z M118.576,161.131    c-3.619-17.423-8.665-30.802-12.575-39.476h307.865c7.663,14.717,34.017,74.713,6.749,159.888    c-9.919,1.787-20.023,3.323-30.121,4.58c-10-3.643-58.784-20.145-125.218-21.59c-0.018,0-0.036-0.001-0.054-0.001    c-9.155-0.124-18.306-0.154-27.456,0.25c-0.1,0.004-0.2,0.005-0.3,0.009c-0.017,0.001-0.034,0.004-0.051,0.004    c-61.38,2.4-103.027,15.976-111.121,18.816h-15.154C127.307,231.425,124.268,188.538,118.576,161.131z M351.382,453.99    c-7.542,8.237-18.292,12.961-29.494,12.961h-200.89c-11.39,0-22.294-4.893-29.917-13.423c-3.821-4.276-7.52-8.802-11.067-13.535    h283.337C359.447,444.872,355.446,449.552,351.382,453.99z M401.081,379.841H114.528c-4.142,0-7.5,3.358-7.5,7.5    s3.358,7.5,7.5,7.5h278.849c-5.705,10.42-11.99,20.516-18.772,30.151H69.725c-5.906-9.408-11.283-19.503-16.063-30.151h30.867    c4.142,0,7.5-3.358,7.5-7.5s-3.358-7.5-7.5-7.5H47.459c-7.22-19.019-11.033-35.375-12.85-44.745h96.538    c0,0,10.218,20.435,10.222,20.444c3.691,7.383,11.087,12.803,19.399,13.966c1.187,0.166,147.738,0.251,147.741,0.251    c5.914-0.003,11.692-2.061,16.27-5.796l28.99-23.649c3.989-0.551,56.021-10.07,66.978-12.773    C415.749,345.506,409.159,363.035,401.081,379.841z M494.209,288.052c-21.021,8.526-42.475,15.735-64.678,21.732    c-0.104,0.023-0.208,0.037-0.311,0.065c-26.129,7.059-52.745,12.257-79.561,15.885c-1.371,0.186-2.665,0.747-3.737,1.621    l-30.624,24.983c-1.902,1.551-4.341,2.419-6.795,2.419H164.388c-4.049,0-7.792-2.324-9.609-5.939c0,0-12.28-24.561-12.288-24.577    c-1.208-2.416-3.878-4.146-6.708-4.146H25.743c-5.923,0-10.743-4.819-10.743-10.743s4.819-10.743,10.743-10.743h121.315    c4.086,0,7.771,2.28,9.609,5.938l12.289,24.577c1.27,2.541,3.867,4.146,6.708,4.146h126.346c1.728,0,3.402-0.596,4.741-1.688    l29.627-24.169c2.348-1.915,4.957-2.322,10.292-2.555c0.001,0,0.13-0.006,0.131-0.006c49.316-2.178,97.741-10.614,143.926-25.071    c2.502-0.783,5.23,0.1,6.071,2.789C497.485,284.77,496.34,287.181,494.209,288.052z"/>
	</g>
</g>















</svg>
