<svg height="512pt" viewBox="-5 0 512 512" width="512pt" xmlns="http://www.w3.org/2000/svg"><path d="m393.539062 512h-285.527343c-16.832031 0-30.476563-13.644531-30.476563-30.476562v-14.675782c0-50.714844 41.113282-91.828125 91.828125-91.828125h162.824219c50.714844 0 91.828125 41.113281 91.828125 91.828125v14.675782c0 16.832031-13.644531 30.476562-30.476563 30.476562zm0 0" fill="#694c93"/><path d="m443.132812 127.753906c-44.191406-126.136718-155.75-127.753906-192.355468-127.753906-36.609375 0-148.167969 1.617188-192.359375 127.753906-44.195313 126.136719-138.105469 300.152344 80.101562 299.230469-.921875.921875-56.042969-194.066406-56.042969-194.066406s58.628907 15.347656 77.480469-52.464844c18.851563-67.8125 90.820313-69.65625 90.820313-69.65625s71.964844 1.84375 90.816406 69.65625 77.484375 52.464844 77.484375 52.464844-55.125 194.988281-56.042969 194.066406c218.207032.921875 124.292969-173.09375 80.097656-299.230469zm0 0" fill="#976cc1"/><path d="m443.132812 127.753906c-44.191406-126.136718-155.75-127.753906-192.355468-127.753906-36.609375 0-148.167969 1.617188-192.359375 127.753906-44.195313 126.136719-138.105469 300.152344 80.101562 299.230469-.921875.921875-56.042969-194.066406-56.042969-194.066406s58.628907 15.347656 77.480469-52.464844c18.851563-67.8125 90.820313-69.65625 90.820313-69.65625s71.964844 1.84375 90.816406 69.65625 77.484375 52.464844 77.484375 52.464844-55.125 194.988281-56.042969 194.066406c218.207032.921875 124.292969-173.09375 80.097656-299.230469zm0 0" fill="#976cc1"/><path d="m175.410156 57.925781c-5.960937-23.3125 5.972656-41.292969 17.429688-52.492187-46.90625 10.140625-105.296875 39.1875-134.421875 122.320312-44.195313 126.136719-138.105469 300.148438 80.101562 299.230469-.921875.921875-56.042969-194.066406-56.042969-194.066406s58.628907 15.34375 77.480469-52.46875c18.851563-67.8125 90.820313-69.652344 90.820313-69.652344s7.585937.195313 18.472656 2.777344c-29.515625-31.804688-85.601562-23.429688-93.839844-55.648438zm0 0" fill="#7c59a5"/><path d="m126.523438 276.96875c0 24.328125-19.71875 44.050781-44.046876 44.050781-24.328124 0-44.050781-19.722656-44.050781-44.050781s19.722657-44.050781 44.050781-44.050781c24.328126 0 44.046876 19.722656 44.046876 44.050781zm0 0" fill="#b2785b"/><path d="m463.125 276.96875c0 24.328125-19.722656 44.050781-44.046875 44.050781-24.328125 0-44.050781-19.722656-44.050781-44.050781s19.722656-44.050781 44.050781-44.050781c24.324219 0 44.046875 19.722656 44.046875 44.050781zm0 0" fill="#c18b72"/><path d="m266.761719 415.78125h-31.972657c-83.773437 0-152.3125-68.542969-152.3125-152.316406v-69.976563c0-92.566406 75.734376-168.300781 168.300782-168.300781 92.5625 0 168.300781 75.734375 168.300781 168.300781v69.976563c0 83.773437-68.542969 152.316406-152.316406 152.316406zm0 0" fill="#d8a287"/><path d="m163.058594 300.777344c-7.855469-41.566406 4.980468-84.101563 33.085937-115.714844 41.800781-47.015625 54.632813-159.875 54.632813-159.875-92.566406 0-168.300782 75.734375-168.300782 168.300781v69.976563c0 83.207031 67.628907 151.386718 150.628907 152.308594-44.292969-36.683594-63.171875-78.589844-70.046875-114.996094zm0 0" fill="#c18b72"/><path d="m341.59375 180.453125c18.851562 67.808594 77.480469 52.46875 77.484375 52.464844 0 0 44.046875-207.730469-168.300781-207.730469-212.351563 0-168.300782 207.730469-168.300782 207.730469s58.628907 15.347656 77.480469-52.464844c18.851563-67.8125 90.820313-69.65625 90.820313-69.65625s71.960937 1.84375 90.816406 69.65625zm0 0" fill="#976cc1"/><path d="m175.410156 57.925781c-1.964844-7.683593-1.984375-14.792969-.71875-21.265625-124.585937 43.5625-92.21875 196.257813-92.21875 196.257813s58.628906 15.347656 77.484375-52.464844c18.851563-67.8125 90.816407-69.65625 90.816407-69.65625s7.589843.195313 18.476562 2.777344c-29.515625-31.804688-85.605469-23.429688-93.839844-55.648438zm0 0" fill="#7c59a5"/><g fill="#57565c"><path d="m333.867188 296.972656c-4.269532 0-7.726563-3.457031-7.726563-7.726562v-12.824219c0-4.269531 3.457031-7.726563 7.726563-7.726563 4.265624 0 7.726562 3.457032 7.726562 7.726563v12.824219c0 4.269531-3.460938 7.726562-7.726562 7.726562zm0 0"/><path d="m167.683594 296.972656c-4.265625 0-7.726563-3.457031-7.726563-7.726562v-12.824219c0-4.269531 3.460938-7.726563 7.726563-7.726563 4.269531 0 7.726562 3.457032 7.726562 7.726563v12.824219c0 4.269531-3.457031 7.726562-7.726562 7.726562zm0 0"/><path d="m250.777344 305.0625c-10 0-20-3.234375-28.347656-9.707031-3.371094-2.617188-3.984376-7.46875-1.367188-10.839844 2.613281-3.375 7.46875-3.988281 10.839844-1.371094 11.113281 8.621094 26.632812 8.621094 37.746094 0 3.371093-2.613281 8.226562-2.003906 10.839843 1.371094 2.617188 3.371094 2.003907 8.222656-1.371093 10.839844-8.339844 6.472656-18.339844 9.707031-28.339844 9.707031zm0 0"/></g><path d="m429.90625 287.226562c-1.128906-18.601562-24.871094-25.449218-36.046875-10.535156-33.226563 44.339844-78.078125 60.65625-143.082031 60.65625-65.007813 0-109.859375-16.316406-143.085938-60.65625-11.175781-14.914062-34.914062-8.066406-36.042968 10.535156-2.917969 48.0625 8.878906 120.34375 84.800781 184.558594 5.695312 4.816406 13.976562 4.992188 19.828125.371094 9.597656-7.582031 22.835937-17.878906 22.835937-17.878906l21.601563 24.132812c16.035156 17.917969 44.085937 17.917969 60.125 0l21.601562-24.132812s13.234375 10.296875 22.832032 17.878906c5.851562 4.621094 14.136718 4.445312 19.828124-.371094 75.925782-64.210937 87.722657-136.496094 84.804688-184.558594zm0 0" fill="#eaeaea"/><path d="m360.683594 512 29.964844-102.015625-30.664063-9.011719-32.613281 111.027344zm0 0" fill="#c6c5ca"/><path d="m406.714844 346.957031 1.921875 11.011719c.972656 5.578125 4.625 10.320312 9.773437 12.683594l10.15625 4.660156c11.445313 5.25 11.902344 21.34375.773438 27.234375l-9.878906 5.226563c-5.003907 2.648437-8.386719 7.589843-9.042969 13.214843l-1.292969 11.101563c-1.457031 12.507812-16.621094 17.910156-25.664062 9.148437l-8.023438-7.777343c-4.066406-3.945313-9.808594-5.632813-15.363281-4.519532l-10.957031 2.199219c-12.34375 2.480469-22.171876-10.273437-16.628907-21.578125l4.917969-10.035156c2.492188-5.085938 2.324219-11.070313-.453125-16.007813l-5.476563-9.738281c-6.171874-10.976562 2.917969-24.261719 15.382813-22.488281l11.0625 1.578125c5.609375.800781 11.25-1.210938 15.085937-5.375l7.570313-8.222656c8.527344-9.257813 23.976563-4.71875 26.136719 7.683593zm0 0" fill="#ffcd00"/><path d="m227.640625 434.660156c-11.738281-22.757812-2.511719-50.5625 20.382813-62.023437 26.402343-13.210938 46.203124-38.269531 46.203124-38.269531-13.402343 2.042968-27.839843 2.980468-43.449218 2.980468-65.007813 0-109.859375-16.316406-143.085938-60.65625-11.175781-14.914062-34.914062-8.066406-36.042968 10.535156-2.917969 48.0625 8.878906 120.34375 84.800781 184.558594 5.695312 4.816406 13.976562 4.992188 19.828125.371094 9.597656-7.582031 22.835937-17.875 22.835937-17.875l21.597657 24.132812c13.566406 15.152344 35.726562 17.488282 51.941406 7.007813-21.921875-14.660156-35.996094-33.277344-45.011719-50.761719zm0 0" fill="#d8d7da"/></svg>