<svg height="511pt" viewBox="0 -36 511.99998 511" width="511pt" xmlns="http://www.w3.org/2000/svg"><path d="m379.738281 57.082031c-11.242187-6.574219-20.058593-16.515625-26.140625-28.03125-8.96875-16.980469-26.792968-28.550781-47.332031-28.550781-29.554687 0-53.515625 23.960938-53.515625 53.515625 0 22.710937 61.496094 118.566406 95.730469 118.566406 34.230469 0 61.980469-27.753906 61.980469-61.984375 0-22.828125-12.34375-42.761718-30.722657-53.515625zm0 0" fill="#cf92ff"/><path d="m323.808594 49.238281c-7.945313-5.386719-15.199219-11.773437-21.171875-19.285156-9.394531-11.816406-19.710938-17.097656-27.542969-19.441406-13.535156 9.710937-22.34375 25.574219-22.34375 43.503906 0 22.710937 61.496094 118.566406 95.730469 118.566406 6.132812 0 12.046875-.890625 17.640625-2.550781 17.507812-69.378906-20.667969-106.125-42.3125-120.792969zm0 0" fill="#b86eff"/><path d="m324.242188 85.859375c-5.464844-13.242187-16.4375-22.53125-29.171876-26.324219-9.496093-2.828125-17.277343-9.53125-21.964843-18.265625-10.398438-19.375-30.847657-32.546875-54.378907-32.546875-20.847656 0-39.273437 10.34375-50.441406 26.179688-6.230468 8.839844-15.847656 14.558594-26.554687 16.082031-19.921875 2.835937-37.207031 17.207031-42.765625 37.863281-7.433594 27.644532 8.945312 56.078125 36.585937 63.511719 23.59375 6.347656 142.867188 1.761719 163.914063-6.917969 23.292968-9.613281 34.386718-36.289062 24.777344-59.582031zm0 0" fill="#dfaeff"/><path d="m460.386719 312.480469c-16.269531-3.992188-34.636719-12.488281-51.457031-25.035157-16.824219-12.546874-30.554688-27.527343-38.667969-42.1875-13.683594-24.71875-7.117188-39.949218-1.988281-46.828124 5.132812-6.878907 17.859374-17.511719 45.453124-11.441407 16.359376 3.597657 34.636719 12.488281 51.457032 25.035157 16.824218 12.546874 30.554687 27.53125 38.667968 42.1875 13.683594 24.71875 7.117188 39.949218 1.988282 46.828124-4.0625 5.445313-21.28125 17.371094-45.453125 11.441407zm-33.40625-49.238281c12.757812 9.519531 26.328125 16.394531 38.214843 19.359374 10.929688 2.726563 15.84375.9375 16.476563.347657.324219-.695313.640625-5.914063-5.089844-15.613281-6.230469-10.546876-16.6875-21.59375-29.449219-31.113282-12.757812-9.515625-26.332031-16.390625-38.21875-19.355468-10.925781-2.726563-15.84375-.9375-16.472656-.347657-.328125.691407-.640625 5.914063 5.085938 15.613281 6.234375 10.546876 16.691406 21.59375 29.453125 31.109376zm0 0" fill="#74747c"/><path d="m432.625 434.484375c7.96875-7.96875 7.96875-20.886719 0-28.851563l-23.863281-23.867187c-7.96875-7.964844-20.886719-7.964844-28.851563 0-7.96875 7.96875-7.96875 20.886719 0 28.851563l23.863282 23.867187c7.96875 7.964844 20.882812 7.964844 28.851562 0zm0 0" fill="#74747c"/><path d="m91.492188 168.882812h328.980468s147.28125 265.613282-164.488281 265.613282c-311.773437 0-164.492187-265.613282-164.492187-265.613282zm0 0" fill="#898890"/><path d="m240.957031 434.277344c-62.082031-71.078125-52.515625-194.585938-40.316406-265.394532h-109.152344s-142.460937 256.933594 149.46875 265.394532zm0 0" fill="#74747c"/><path d="m413.992188 180.058594h-316.015626c-14.949218 0-27.179687-12.230469-27.179687-27.179688 0-14.945312 12.230469-27.175781 27.179687-27.175781h316.015626c14.949218 0 27.175781 12.230469 27.175781 27.175781 0 14.949219-12.226563 27.179688-27.175781 27.179688zm0 0" fill="#acabb1"/><path d="m240.957031 125.703125h-142.980469c-14.949218 0-27.179687 12.230469-27.179687 27.175781 0 14.949219 12.230469 27.175782 27.179687 27.175782h142.980469zm0 0" fill="#898890"/><path d="m175.550781 134.992188v123.503906c0 13.289062 10.773438 24.058594 24.058594 24.058594 13.289063 0 24.0625-10.769532 24.0625-24.058594v-48.675782c0-9.546874 7.738281-17.285156 17.285156-17.285156 9.542969 0 17.28125 7.738282 17.28125 17.285156v24c0 13.289063 10.773438 24.0625 24.0625 24.0625 13.289063 0 24.0625-10.773437 24.0625-24.0625v-98.832031c0-17.328125-14.046875-31.375-31.375-31.375h-68.0625c-17.328125 0-31.375 14.050781-31.375 31.378907zm0 0" fill="#eac2ff"/><path d="m137.632812 214.765625c-7.855468-2.78125-16.484374 1.328125-19.265624 9.1875-3.351563 9.460937-13.878907 24.746094-33.378907 39.292969-12.757812 9.515625-26.332031 16.390625-38.21875 19.355468-10.925781 2.726563-15.839843.9375-16.414062.425782 1.972656-27.722656 34.828125-47.058594 35.003906-47.191406 4.492187-16.753907 10.039063-31.625 14.863281-43.078126-11.1875 4.617188-22.574218 11.164063-33.4375 19.265626-39.855468 29.726562-56.953125 67.164062-40.65625 89.011718 6.636719 8.894532 17.316406 13.222656 30.34375 13.222656 18.980469 0 42.933594-9.1875 66.566406-26.8125 21.476563-16.019531 37.433594-35.488281 43.785157-53.410156 2.78125-7.859375-1.332031-16.484375-9.191407-19.269531zm0 0" fill="#616166"/><path d="m79.34375 434.484375c-7.96875-7.96875-7.96875-20.886719 0-28.851563l23.863281-23.867187c7.96875-7.964844 20.886719-7.964844 28.851563 0 7.96875 7.96875 7.96875 20.886719 0 28.851563l-23.863282 23.867187c-7.96875 7.964844-20.882812 7.964844-28.851562 0zm0 0" fill="#616166"/><path d="m240.726562 337.570312c0-13.265624-13.503906-24.019531-30.164062-24.019531-16.65625 0-30.160156 10.753907-30.160156 24.019531 0 13.265626 13.503906 24.019532 30.160156 24.019532 16.660156 0 30.164062-10.753906 30.164062-24.019532zm0 0" fill="#ffa6bb"/><path d="m429.90625 337.570312c0-13.265624-13.503906-24.019531-30.164062-24.019531-16.65625 0-30.160157 10.753907-30.160157 24.019531 0 13.265626 13.503907 24.019532 30.160157 24.019532 16.660156 0 30.164062-10.753906 30.164062-24.019532zm0 0" fill="#ffa6bb"/><g fill="#57565c"><path d="m386.320312 324.382812c-4.167968 0-7.546874-3.378906-7.546874-7.546874v-12.53125c0-4.167969 3.378906-7.546876 7.546874-7.546876 4.167969 0 7.546876 3.378907 7.546876 7.546876v12.53125c0 4.167968-3.378907 7.546874-7.546876 7.546874zm0 0"/><path d="m223.988281 324.382812c-4.171875 0-7.546875-3.378906-7.546875-7.546874v-12.53125c0-4.167969 3.378906-7.546876 7.546875-7.546876s7.546875 3.378907 7.546875 7.546876v12.53125c0 4.167968-3.378906 7.546874-7.546875 7.546874zm0 0"/><path d="m326.144531 331.484375c0-13.726563-9.398437-24.855469-20.992187-24.855469-11.589844 0-20.988282 11.128906-20.988282 24.855469s9.398438 24.855469 20.988282 24.855469c11.59375 0 20.992187-11.128906 20.992187-24.855469zm0 0"/></g><path d="m235.902344 55.65625c0 8.542969-6.925782 15.46875-15.46875 15.46875-8.542969 0-15.46875-6.925781-15.46875-15.46875s6.925781-15.464844 15.46875-15.464844c8.542968 0 15.46875 6.921875 15.46875 15.464844zm0 0" fill="#cf92ff"/><path d="m262.46875 143.769531c0 8.542969-6.921875 15.46875-15.464844 15.46875-8.542968 0-15.46875-6.925781-15.46875-15.46875 0-8.539062 6.925782-15.464843 15.46875-15.464843 8.542969 0 15.464844 6.925781 15.464844 15.464843zm0 0" fill="#dfaeff"/><path d="m171.347656 91.550781c0 8.542969-6.925781 15.46875-15.46875 15.46875-8.542968 0-15.46875-6.925781-15.46875-15.46875s6.925782-15.46875 15.46875-15.46875c8.542969 0 15.46875 6.925781 15.46875 15.46875zm0 0" fill="#cf92ff"/></svg>