<svg id="Capa_1" enable-background="new 0 0 512 512" height="512" viewBox="0 0 512 512" width="512" xmlns="http://www.w3.org/2000/svg"><g><g><g><path d="m504.5 183.138c0-11.993-4.814-22.859-12.608-30.783.98-3.644 1.511-7.472 1.511-11.425 0-18.458-11.394-34.245-27.529-40.739-2.93-19.986-19.321-35.586-39.673-37.316-7.028-14.886-22.169-25.189-39.722-25.189-1.909 0-3.785.135-5.63.372-8.03-10.391-20.607-17.089-34.755-17.089-4.473 0-8.789.673-12.855 1.917-7.838-7.284-18.335-11.745-29.878-11.745-7.55 0-14.654 1.907-20.859 5.263-7.367-5.586-16.546-8.904-26.502-8.904s-19.135 3.318-26.501 8.903c-6.205-3.356-13.309-5.263-20.859-5.263-11.544 0-22.041 4.461-29.879 11.745-4.066-1.244-8.382-1.917-12.855-1.917-14.148 0-26.725 6.698-34.755 17.089-1.845-.236-3.721-.372-5.63-.372-17.553 0-32.695 10.303-39.722 25.189-20.352 1.729-36.743 17.33-39.673 37.316-16.134 6.494-27.529 22.281-27.529 40.739 0 3.953.531 7.781 1.511 11.425-7.794 7.925-12.608 18.79-12.608 30.784 0 11.993 4.814 22.859 12.608 30.783-.98 3.644-1.511 7.472-1.511 11.425 0 18.458 11.394 34.245 27.529 40.739 2.93 19.986 19.321 35.586 39.673 37.316 7.028 14.886 22.169 25.189 39.722 25.189 1.909 0 3.785-.135 5.63-.372 8.03 10.391 20.607 17.089 34.755 17.089 4.473 0 8.789-.673 12.855-1.917 7.838 7.284 18.335 11.745 29.879 11.745 7.55 0 14.654-1.907 20.859-5.263 7.366 5.585 16.544 8.903 26.501 8.903 9.956 0 19.135-3.318 26.501-8.903 6.205 3.356 13.309 5.263 20.859 5.263 11.544 0 22.041-4.461 29.878-11.745 4.066 1.243 8.382 1.917 12.855 1.917 14.148 0 26.725-6.698 34.755-17.089 1.845.236 3.721.372 5.63.372 17.553 0 32.695-10.303 39.722-25.189 20.352-1.729 36.743-17.33 39.673-37.316 16.134-6.494 27.529-22.281 27.529-40.739 0-3.953-.531-7.781-1.511-11.425 7.795-7.925 12.609-18.79 12.609-30.783z" fill="#b0ee96"/></g></g><g><path d="m125.521 37.686c-17.553 0-32.695 10.303-39.722 25.189-20.352 1.729-36.743 17.33-39.673 37.316-16.134 6.494-27.529 22.281-27.529 40.739 0 3.953.531 7.781 1.511 11.425-7.794 7.924-12.608 18.789-12.608 30.783 0 11.993 4.814 22.859 12.608 30.783-.98 3.644-1.511 7.472-1.511 11.425 0 18.458 11.394 34.245 27.529 40.739 2.93 19.986 19.321 35.586 39.673 37.315 7.028 14.886 22.169 25.189 39.722 25.189 1.909 0 3.785-.135 5.63-.372 8.03 10.391 20.607 17.089 34.755 17.089 4.473 0 8.789-.673 12.855-1.917 7.838 7.284 18.335 11.745 29.879 11.745 7.55 0 14.654-1.907 20.859-5.263 7.366 5.585 16.544 8.903 26.501 8.903 9.956 0 19.135-3.318 26.501-8.903 6.205 3.356 13.309 5.263 20.859 5.263 11.544 0 22.041-4.461 29.878-11.745-7.761-173.608-117.238-208.389-170.238-217.393s-64-50.996-31.849-87.938c-1.844-.237-3.721-.372-5.63-.372z" fill="#91de7a"/></g><g><path d="m226 276h60c0-55.229-44.771-100-100-100h-20c-11.046 0-20 8.954-20 20s8.954 20 20 20c33.137 0 60 26.863 60 60z" fill="#dc9e80"/></g><g><path d="m231.434 186.895c-11.624 12.33-20.867 26.924-26.995 43.043 13.174 11.006 21.561 27.552 21.561 46.062h60c0-38.869-22.176-72.557-54.566-89.105z" fill="#c58c6d"/></g><g><path d="m366 196c0 11.046-8.954 20-20 20-33.137 0-60 26.863-60 60v152.977c0 22.453 10.206 43.688 27.739 57.714 7.381 5.905 3.206 17.809-6.247 17.809h-102.984c-9.453 0-13.628-11.904-6.247-17.809h.001c17.532-14.026 27.738-35.261 27.738-57.714v-152.977c0-55.228 44.772-100 100-100h20c11.046 0 20 8.954 20 20z" fill="#dc9e80"/></g><g><g><g><ellipse cx="176.355" cy="125.996" fill="#ffa5bb" rx="29.387" ry="23.403"/></g><g><ellipse cx="335.645" cy="125.996" fill="#ffa5bb" rx="29.387" ry="23.403"/></g><g><path d="m279.694 108.015c0-14.643-10.608-16.019-23.693-16.019-13.086 0-23.694 1.376-23.694 16.019s10.608 26.513 23.694 26.513c13.085-.001 23.693-11.871 23.693-26.513z" fill="#423e4f"/></g></g><g><path d="m181.268 105.556c-4.142 0-7.5-3.358-7.5-7.5v-12c0-4.142 3.358-7.5 7.5-7.5s7.5 3.358 7.5 7.5v12c0 4.142-3.358 7.5-7.5 7.5z"/></g><g><path d="m256 142.027c-17.2 0-31.193-15.258-31.193-34.013 0-23.519 21.859-23.519 31.193-23.519s31.193 0 31.193 23.519c0 18.756-13.993 34.013-31.193 34.013zm0-42.531c-15.539 0-16.193 2.611-16.193 8.519 0 10.484 7.264 19.013 16.193 19.013s16.193-8.529 16.193-19.013c0-5.908-.654-8.519-16.193-8.519z"/></g><g><path d="m330.732 105.556c-4.142 0-7.5-3.358-7.5-7.5v-12c0-4.142 3.358-7.5 7.5-7.5s7.5 3.358 7.5 7.5v12c0 4.142-3.358 7.5-7.5 7.5z"/></g></g><g><path d="m198.261 486.691c-7.382 5.905-3.206 17.809 6.246 17.809h102.984c-13.507 0-51.491-15.5-51.491-68.5v-130c0-16.569-13.431-30-30-30v152.977c0 22.453-10.206 43.688-27.739 57.714z" fill="#c58c6d"/></g><path d="m512 183.138c0-12.159-4.212-23.703-11.94-32.936.561-3.059.843-6.164.843-9.273 0-19.681-11.01-37.296-28.386-45.968-4.66-20.269-20.973-35.614-41.497-39.034-9.114-15.765-26.164-25.741-44.542-25.741-.79 0-1.59.02-2.4.06-9.737-10.712-23.36-16.777-37.985-16.777-3.697 0-7.367.395-10.957 1.176-9.039-7.125-20.172-11.005-31.776-11.005-6.944 0-13.838 1.416-20.188 4.123-8.139-5.093-17.443-7.763-27.172-7.763s-19.032 2.67-27.171 7.762c-6.351-2.707-13.245-4.123-20.188-4.123-11.604 0-22.737 3.88-31.776 11.004-3.59-.781-7.26-1.176-10.957-1.176-14.625 0-28.249 6.065-37.985 16.777-.81-.04-1.611-.06-2.4-.06-18.379 0-35.43 9.979-44.543 25.745-3.574.602-7.071 1.58-10.44 2.923-3.848 1.533-5.724 5.896-4.19 9.744 1.534 3.847 5.896 5.724 9.744 4.19 3.303-1.316 6.782-2.137 10.342-2.439 2.664-.226 5.006-1.854 6.148-4.271 5.992-12.691 18.921-20.891 32.94-20.891 1.515 0 3.045.102 4.677.311 2.639.338 5.26-.748 6.888-2.853 6.962-9.008 17.467-14.175 28.821-14.175 3.626 0 7.214.535 10.662 1.589 2.561.782 5.339.142 7.298-1.679 6.758-6.28 15.556-9.739 24.773-9.739 6.038 0 12.017 1.508 17.292 4.36 2.588 1.399 5.755 1.156 8.099-.621 6.364-4.826 13.961-7.378 21.966-7.378s15.602 2.552 21.969 7.379c2.344 1.777 5.511 2.02 8.099.621 5.274-2.853 11.254-4.36 17.292-4.36 9.217 0 18.015 3.458 24.773 9.739 1.959 1.821 4.74 2.461 7.298 1.679 3.448-1.054 7.036-1.589 10.662-1.589 11.354 0 21.859 5.167 28.821 14.175 1.627 2.105 4.246 3.192 6.888 2.853 1.632-.209 3.162-.311 4.677-.311 14.019 0 26.949 8.2 32.94 20.891 1.142 2.417 3.483 4.044 6.147 4.271 16.905 1.437 30.428 14.155 32.887 30.93.387 2.639 2.146 4.874 4.621 5.87 13.868 5.582 22.829 18.842 22.829 33.781 0 3.195-.422 6.384-1.254 9.479-.69 2.568.031 5.31 1.896 7.206 6.742 6.854 10.455 15.919 10.455 25.524s-3.713 18.669-10.455 25.524c-1.865 1.896-2.586 4.638-1.896 7.206.832 3.095 1.254 6.284 1.254 9.479 0 14.939-8.961 28.2-22.829 33.781-2.474.996-4.233 3.231-4.621 5.87-2.459 16.775-15.982 29.494-32.887 30.931-2.664.227-5.005 1.854-6.147 4.271-5.992 12.691-18.921 20.891-32.94 20.891-1.512 0-3.042-.102-4.679-.311-2.642-.335-5.259.749-6.886 2.853-6.962 9.009-17.467 14.175-28.821 14.175-3.626 0-7.214-.535-10.662-1.589-2.559-.781-5.339-.143-7.299 1.679-6.757 6.28-15.555 9.739-24.772 9.739-3.371 0-6.671-.463-9.86-1.36v-30.915c0-4.142-3.358-7.5-7.5-7.5s-7.5 3.358-7.5 7.5v113.616c0 24.866 11.136 48.037 30.554 63.57 1.144.915 1.065 2.017.797 2.78s-.894 1.672-2.359 1.672h-102.984c-1.465 0-2.091-.91-2.359-1.672-.268-.763-.347-1.865.797-2.78 19.417-15.533 30.554-38.704 30.554-63.57v-152.978c0-51.005 41.495-92.5 92.5-92.5h20c6.893 0 12.5 5.607 12.5 12.5s-5.607 12.5-12.5 12.5c-37.22 0-67.5 30.28-67.5 67.5v9.361c0 4.142 3.358 7.5 7.5 7.5s7.5-3.358 7.5-7.5v-9.361c0-28.949 23.551-52.5 52.5-52.5 15.164 0 27.5-12.336 27.5-27.5s-12.336-27.5-27.5-27.5h-20c-26.695 0-51.146 9.784-69.963 25.95-19.492-16.774-44.129-25.95-70.037-25.95h-20c-15.164 0-27.5 12.336-27.5 27.5s12.336 27.5 27.5 27.5c28.949 0 52.5 23.551 52.5 52.5v70.276c-3.19.897-6.49 1.359-9.86 1.359-9.218 0-18.016-3.458-24.772-9.739-1.959-1.822-4.742-2.46-7.299-1.679-3.448 1.054-7.036 1.589-10.662 1.589-11.354 0-21.859-5.167-28.821-14.175-1.626-2.105-4.245-3.187-6.885-2.853-1.637.209-3.167.311-4.679.311-12.156 0-23.486-6.173-30.19-16.086-1.543-11.534-2.342-23.503-2.342-35.712 0-24.906 3.418-49.507 9.884-71.145 1.186-3.969-1.07-8.147-5.039-9.333-3.971-1.185-8.147 1.07-9.333 5.039-6.877 23.012-10.512 49.099-10.512 75.439 0 8.537.377 16.972 1.105 25.25-13.365-3.957-23.456-15.283-25.547-29.545-.387-2.639-2.146-4.874-4.621-5.87-13.868-5.582-22.829-18.842-22.829-33.781 0-3.195.422-6.384 1.254-9.479.69-2.568-.031-5.31-1.896-7.206-6.743-6.853-10.456-15.917-10.456-25.522 0-9.604 3.713-18.669 10.455-25.524 1.865-1.896 2.586-4.638 1.896-7.206-.832-3.095-1.254-6.284-1.254-9.479 0-14.939 8.961-28.2 22.829-33.781 2.474-.996 4.233-3.23 4.621-5.87.612-4.178 1.938-8.182 3.941-11.9 1.964-3.646.601-8.195-3.046-10.16-3.646-1.964-8.195-.601-10.16 3.046-2.165 4.019-3.771 8.274-4.795 12.695-17.378 8.671-28.39 26.288-28.39 45.97 0 3.109.283 6.214.843 9.273-7.728 9.233-11.94 20.777-11.94 32.936s4.212 23.704 11.94 32.936c-.561 3.059-.843 6.164-.843 9.273 0 19.338 10.635 36.675 27.488 45.5-4.214 34.186 2.943 68.936 21.298 103.34 1.35 2.53 3.943 3.971 6.624 3.971 1.191 0 2.4-.285 3.524-.884 3.655-1.95 5.037-6.493 3.087-10.147-12.775-23.945-19.655-47.97-20.584-71.714 7.454 7.723 17.313 13.073 28.409 14.93 3.873 26.358 11.477 50.575 22.332 70.491 17.09 31.357 40.323 48.626 65.42 48.626 18.04 0 35.22-9.019 49.806-25.81v25.328c0 20.285-9.084 39.186-24.924 51.858-5.885 4.708-8.076 12.345-5.582 19.457 2.495 7.112 8.977 11.708 16.514 11.708h102.984c7.537 0 14.019-4.596 16.513-11.708s.304-14.75-5.582-19.458c-15.839-12.672-24.924-31.573-24.924-51.857v-67.29c3.227.628 6.52.948 9.86.948 7.843 0 15.467-1.779 22.378-5.127v87.012c0 4.142 3.358 7.5 7.5 7.5s7.5-3.358 7.5-7.5v-75.753c12.208 14.205 27.094 22.002 42.85 22.002 17.541 0 34.379-9.874 47.413-27.801 11.807-16.24 20.027-38.5 23.284-62.878 8.993-7.07 15.548-17.104 18.232-28.778 17.375-8.672 28.386-26.287 28.386-45.968 0-3.109-.283-6.214-.843-9.273 7.728-9.231 11.94-20.775 11.94-32.934zm-346 25.362c-6.893 0-12.5-5.607-12.5-12.5s5.607-12.5 12.5-12.5h20c21.879 0 42.692 7.622 59.314 21.548-9.321 10.588-16.6 23.014-21.205 36.662-11.765-19.859-33.402-33.21-58.109-33.21zm2.694 205.959c-19.353 0-37.909-14.491-52.25-40.804-7.092-13.013-12.668-28.091-16.614-44.494 7.687 4.446 16.523 6.929 25.691 6.929.789 0 1.59-.02 2.4-.06 9.737 10.712 23.36 16.777 37.985 16.777 3.697 0 7.367-.395 10.957-1.176 9.039 7.124 20.171 11.004 31.776 11.004 3.339 0 6.633-.319 9.86-.947v16.251c-13.98 23.562-31.62 36.52-49.805 36.52zm250.174-60.31c-10.137 13.943-22.666 21.622-35.28 21.622-13.251 0-26.024-8.23-36.269-22.996 14.158-.33 27.296-6.334 36.759-16.746.811.04 1.611.06 2.4.06 18.377 0 35.427-9.977 44.542-25.741 2.259-.376 4.464-.906 6.611-1.562-3.613 17.663-10.107 33.456-18.763 45.363z"/></g></svg>