<svg id="Capa_1" enable-background="new 0 0 512 512" height="512" viewBox="0 0 512 512" width="512" xmlns="http://www.w3.org/2000/svg"><g><g><path d="m191.693 37.5c0 16.569-13.431 30-30 30h-124.193c-16.569 0-30 13.431-30 30 0 16.569 13.431 30 30 30h84.193c16.569 0 30 13.431 30 30 0 16.569 13.431 30 30 30h14.307c16.569 0 30 13.431 30 30v40h60v-40c0-16.569 13.431-30 30-30h9.887c16.569 0 30-13.431 30-30 0-16.569-13.431-30-30-30h-39.887c-16.569 0-30-13.431-30-30 0-16.569 13.431-30 30-30h188.5c16.569 0 30-13.431 30-30 0-16.569-13.431-30-30-30h-252.807c-16.568 0-30 13.431-30 30z" fill="#ffc377"/></g><g><g><path d="m256 187.5h-14.307c-16.569 0-30-13.431-30-30s-13.431-30-30-30h-60c16.569 0 30 13.431 30 30s13.431 30 30 30h14.307c16.569 0 30 13.431 30 30v40h60v-40c0-16.569-13.431-30-30-30z" fill="#ffb864"/></g></g><g><path d="m425.887 187.5h48.613c16.569 0 30-13.431 30-30 0-16.569-13.431-30-30-30h-48.613c-16.569 0-30 13.431-30 30 0 16.569 13.431 30 30 30z" fill="#ffc377"/></g><g><circle cx="101.693" cy="217.5" fill="#ffb864" r="30"/></g><g><path d="m476.7 483.143c0-6.421-2.888-12.5-7.866-16.556l-87.504-71.308c-3.839-3.129-6.844-7.159-8.747-11.732l-48.913-117.567c-4.654-11.187-15.582-18.476-27.698-18.476h-80.126c-12.024 0-22.887 7.18-27.6 18.242l-36.277 85.151c-2.68 6.292-7.43 11.478-13.461 14.701l-61.866 33.057c-7.241 3.869-12.579 10.536-14.772 18.447l-17.582 63.438c-3.339 12.047 5.722 23.961 18.223 23.961h392.832c11.795-.001 21.357-9.563 21.357-21.358z" fill="#dc9e80"/></g><g><path d="m174.552 362.974 51.448-115.471h-10.155c-12.024 0-22.887 7.18-27.6 18.242l-36.277 85.151c-2.68 6.292-7.43 11.478-13.462 14.701l-61.866 33.057c-7.241 3.869-12.579 10.536-14.772 18.447l-17.582 63.438c-3.337 12.047 5.723 23.961 18.224 23.961h183.234v-66.299c0-6.959-3.617-13.417-9.55-17.053l-53.823-32.981c-8.559-5.245-11.905-16.023-7.819-25.193z" fill="#c58c6d"/></g><g><g><g><ellipse cx="176.443" cy="445.14" fill="#fff" rx="29.355" ry="23.377"/></g><g><ellipse cx="335.557" cy="445.14" fill="#fff" rx="29.355" ry="23.377"/></g></g><g><path d="m256 414.779c-8.479 0-16.54 3.671-22.118 10.073-2.722 3.123-2.396 7.86.728 10.582 3.121 2.72 7.86 2.396 10.581-.727 2.729-3.132 6.669-4.928 10.81-4.928s8.081 1.796 10.81 4.928c1.482 1.702 3.564 2.573 5.657 2.573 1.748 0 3.503-.607 4.924-1.846 3.123-2.721 3.449-7.458.728-10.582-5.58-6.401-13.641-10.073-22.12-10.073z"/><path d="m207.315 399.129-24.065-6.448c-4.002-1.071-8.114 1.302-9.186 5.304-1.072 4.001 1.302 8.113 5.303 9.186l7.079 1.897c-.252.751-.395 1.552-.395 2.387v10.366c0 4.142 3.357 7.5 7.5 7.5s7.5-3.358 7.5-7.5v-8.84l2.381.638c.65.174 1.304.257 1.946.257 3.312 0 6.342-2.21 7.239-5.561 1.073-4.002-1.301-8.114-5.302-9.186z"/><path d="m337.936 397.984c-1.071-4.001-5.184-6.375-9.186-5.304l-24.065 6.448c-4.001 1.072-6.375 5.185-5.303 9.186.897 3.351 3.928 5.561 7.239 5.561.643 0 1.296-.083 1.946-.257l2.381-.638v8.84c0 4.142 3.357 7.5 7.5 7.5s7.5-3.358 7.5-7.5v-10.366c0-.835-.142-1.636-.395-2.387l7.079-1.897c4.002-1.072 6.376-5.185 5.304-9.186z"/></g></g><g><path d="m474.5 120h-48.613c-20.678 0-37.5 16.822-37.5 37.5s16.822 37.5 37.5 37.5h48.613c20.678 0 37.5-16.822 37.5-37.5s-16.822-37.5-37.5-37.5zm0 60h-48.613c-12.406 0-22.5-10.093-22.5-22.5s10.094-22.5 22.5-22.5h48.613c12.406 0 22.5 10.093 22.5 22.5s-10.094 22.5-22.5 22.5z"/><path d="m101.693 255c20.678 0 37.5-16.822 37.5-37.5s-16.822-37.5-37.5-37.5-37.5 16.822-37.5 37.5 16.823 37.5 37.5 37.5zm0-60c12.406 0 22.5 10.093 22.5 22.5s-10.093 22.5-22.5 22.5-22.5-10.093-22.5-22.5 10.094-22.5 22.5-22.5z"/><path d="m473.572 460.772-87.505-71.309c-2.869-2.338-5.138-5.38-6.56-8.798l-48.913-117.566c-5.837-14.03-19.428-23.095-34.623-23.095h-2.471v-22.504c0-12.407 10.094-22.5 22.5-22.5h9.887c20.678 0 37.5-16.822 37.5-37.5s-16.822-37.5-37.5-37.5h-39.887c-12.406 0-22.5-10.093-22.5-22.5s10.094-22.5 22.5-22.5h75.202c4.143 0 7.5-3.358 7.5-7.5s-3.357-7.5-7.5-7.5h-75.202c-20.678 0-37.5 16.822-37.5 37.5s16.822 37.5 37.5 37.5h39.887c12.406 0 22.5 10.093 22.5 22.5s-10.094 22.5-22.5 22.5h-9.887c-20.678 0-37.5 16.822-37.5 37.5v22.503h-45v-22.503c0-20.678-16.822-37.5-37.5-37.5h-14.307c-12.406 0-22.5-10.093-22.5-22.5 0-20.678-16.822-37.5-37.5-37.5h-84.193c-12.406 0-22.5-10.093-22.5-22.5s10.094-22.5 22.5-22.5h124.193c20.678 0 37.5-16.822 37.5-37.5 0-12.407 10.094-22.5 22.5-22.5h252.807c12.406 0 22.5 10.093 22.5 22.5s-10.094 22.5-22.5 22.5h-83.298c-4.143 0-7.5 3.358-7.5 7.5s3.357 7.5 7.5 7.5h83.298c20.678 0 37.5-16.822 37.5-37.5s-16.822-37.5-37.5-37.5h-252.807c-20.678 0-37.5 16.822-37.5 37.5 0 12.407-10.094 22.5-22.5 22.5h-124.193c-20.678 0-37.5 16.822-37.5 37.5s16.822 37.5 37.5 37.5h84.193c12.406 0 22.5 10.093 22.5 22.5 0 20.678 16.822 37.5 37.5 37.5h14.307c12.406 0 22.5 10.093 22.5 22.5v22.503h-2.654c-15.057 0-28.598 8.95-34.499 22.802l-10.838 25.438c-1.624 3.811.149 8.216 3.96 9.84s8.216-.15 9.839-3.96l10.839-25.438c3.54-8.311 11.665-13.681 20.699-13.681h80.126c9.117 0 17.271 5.439 20.773 13.857l48.913 117.566c2.37 5.697 6.151 10.769 10.934 14.665l87.505 71.309c3.243 2.642 5.103 6.557 5.103 10.742 0 7.641-6.216 13.857-13.856 13.857h-392.833c-3.596 0-6.906-1.641-9.082-4.503-2.177-2.861-2.874-6.489-1.914-9.954l17.582-63.438c1.637-5.905 5.675-10.947 11.079-13.835l61.867-33.057c7.512-4.014 13.487-10.541 16.825-18.377l13.633-31.997c1.623-3.811-.15-8.216-3.961-9.839-3.812-1.625-8.216.15-9.839 3.96l-13.632 31.996c-2.004 4.702-5.59 8.618-10.096 11.027l-61.866 33.057c-9.008 4.813-15.738 13.217-18.466 23.059l-17.581 63.438c-2.223 8.019-.608 16.417 4.43 23.041 5.036 6.623 12.698 10.422 21.021 10.422h392.832c15.911 0 28.856-12.945 28.856-28.857 0-8.714-3.874-16.868-10.627-22.371z"/></g></g></svg>