<svg height="512" viewBox="0 0 54 61" width="512" xmlns="http://www.w3.org/2000/svg"><g id="Page-1" fill="none" fill-rule="evenodd"><g id="013---Email" fill-rule="nonzero"><g fill="#e8edfc"><path id="Shape" d="m23.1 40.5-20.68 18.25c-.91030252-.8722066-1.42349486-2.0792928-1.42-3.34v-29.82c-.00349486-1.2607072.50969748-2.4677934 1.42-3.34z"/><path id="Shape" d="m51.58 58.75c-.8314096.804025-1.9434135 1.2524136-3.1 1.25h-42.96c-1.15658648.0024136-2.26859036-.445975-3.1-1.25l20.68-18.25 1.67 1.48c1.2757151 1.1200262 3.1842849 1.1200262 4.46 0l1.67-1.48z"/><path id="Shape" d="m51.58 22.25-20.68 18.25-1.67 1.48c-1.2757151 1.1200262-3.1842849 1.1200262-4.46 0l-1.67-1.48-20.68-18.25c.83140964-.804025 1.94341352-1.2524136 3.1-1.25h5.76c1.4318627 7.5528057 8.032666 13.0197987 15.72 13.0197987s14.2881373-5.466993 15.72-13.0197987h5.76c1.1565865-.0024136 2.2685904.445975 3.1 1.25z"/><path id="Shape" d="m53 25.59v29.82c.0034949 1.2607072-.5096975 2.4677934-1.42 3.34l-20.68-18.25 20.68-18.25c.9103025.8722066 1.4234949 2.0792928 1.42 3.34z"/></g><path id="Shape" d="m51.58 22.25-1.9 1.679c.2080019.5292484.3164874 1.0923557.32 1.661v29.82c-.0041498.5687698-.1133142 1.1318814-.322 1.661l1.9 1.679c.911039-.8718653 1.4249729-2.0789955 1.422-3.34v-29.82c.0034949-1.2607072-.5096975-2.4677934-1.42-3.34z" fill="#cad9fc"/><path id="Shape" d="m43 18c-.001598 1.0064488-.0953223 2.0106386-.28 3-1.4318627 7.5528057-8.032666 13.0197987-15.72 13.0197987s-14.2881373-5.466993-15.72-13.0197987c-.1846777-.9893614-.278402-1.9935512-.28-3 0-8.836556 7.163444-16 16-16s16 7.163444 16 16z" fill="#c6d8fb"/><path id="Shape" d="m27 2c-.506 0-1.006.03-1.5.076 8.2187812.77014378 14.500904 7.66921445 14.5 15.924-.001598 1.0064488-.0953223 2.0106386-.28 3-1.3353793 6.99353-7.1313122 12.2632639-14.22 12.929.494.045.994.071 1.5.071 7.6811628.0018081 14.2797822-5.4550654 15.72-13 .1846777-.9893614.278402-1.9935512.28-3 0-8.836556-7.163444-16-16-16z" fill="#a4c3fd"/><path id="Shape" d="m5.52 60 3 .0000097c-1.15658648.0024039-2.26859036-.4459847-3.1-1.2500097-.91030252-.8722066-1.42349486-2.0792928-1.42-3.34v-29.82c-.00349486-1.2607072.50969748-2.4677934 1.42-3.34.83140964-.804025 1.94341352-1.2524136 3.1-1.2500097l-3 .0000097c-1.15658648-.0024136-2.26859036.445975-3.1 1.25-.91030252.8722066-1.42349486 2.0792928-1.42 3.34v29.82c-.00349486 1.2607072.50969748 2.4677934 1.42 3.34.83140964.804025 1.94341352 1.2524136 3.1 1.25z" fill="#fff"/><path id="Rectangle-path" d="m0 47.41h2v8h-2z" fill="#fff"/><circle id="Oval" cx="1" cy="51.41" fill="#428dff" r="1"/><path id="Shape" d="m5.52 61h42.96c3.0663441-.0231161 5.535524-2.523608 5.52-5.59v-29.82c.015524-3.066392-2.4536559-5.5668839-5.52-5.59h-4.608c.8051446-6.5240161-2.2231223-12.92755545-7.7766907-16.44450331-5.5535683-3.51694786-12.6370503-3.51694786-18.1906186 0-5.5535684 3.51694786-8.58183526 9.92048721-7.7766907 16.44450331h-4.608c-3.06634413.0231161-5.53552404 2.523608-5.52 5.59v21.82c0 .5522847.44771525 1 1 1s1-.4477153 1-1v-21.82c.00131154-.6717105.19005799-1.3297256.545-1.9l19.043 16.81-19.043 16.809c-.35476317-.5699856-.54350247-1.2276295-.545-1.899 0-.5522847-.44771525-1-1-1s-1 .4477153-1 1c-.01552404 3.066392 2.45365587 5.5668839 5.52 5.59zm45.935-37.309c.3547632.5699856.5435025 1.2276295.545 1.899v29.82c-.0013115.6717105-.190058 1.3297256-.545 1.9l-19.043-16.81zm-24.455-20.691c8.2842712 0 15 6.71572875 15 15 0 8.2842712-6.7157288 15-15 15s-15-6.7157288-15-15c.0093685-8.28038757 6.7196124-14.99063148 15-15zm-16.5 19c1.8385629 7.6252005 8.6612766 12.9983695 16.505 12.9983695s14.6664371-5.373169 16.505-12.9983695h4.97c.5125369.0024915 1.0179719.1200504 1.479.344l-21.393 18.885c-.8952784.7860551-2.2347216.7860551-3.13 0l-21.395-18.885c.46102807-.2239496.96646308-.3415085 1.479-.344zm13.612 20.73c1.6530668 1.4500612 4.1249332 1.4500612 5.778 0l1.012-.894 19.057 16.82c-.4610281.2239496-.9664631.3415085-1.479.344h-42.96c-.51253692-.0024915-1.01797193-.1200504-1.479-.344l19.059-16.821z" fill="#428dff"/><path id="Shape" d="m27 30c2.5697843.0093114 5.0734332-.8141281 7.136-2.347.4434846-.3291617.5361617-.9555153.207-1.399-.3291617-.4434846-.9555153-.5361617-1.399-.207-1.7181202 1.2764286-3.803642 1.9616615-5.944 1.953-4.0446224 0-7.6909853-2.4364218-9.2387953-6.1731657s-.6922525-8.0379222 2.1677275-10.8979021c2.8599799-2.85997997 7.1611582-3.71553753 10.8979021-2.16772753 3.7367439 1.54781003 6.1731657 5.19417293 6.1731657 9.23879533v2c0 1.1045695-.8954305 2-2 2s-2-.8954305-2-2v-7c0-.5522847-.4477153-1-1-1s-1 .4477153-1 1v.54c-1.8116436-1.6293148-4.4287139-2.001258-6.6225745-.9412133-2.1938607 1.0600446-3.528817 3.3415552-3.3781467 5.7734306.1506702 2.4318753 1.7570442 4.5311517 4.0649774 5.3122815 2.3079332.7811297 4.8590763.0889827 6.4557438-1.7514988.8772335 1.5977884 2.7265483 2.3969546 4.4913359 1.9408939 1.7647875-.4560608 2.9953748-2.0511428 2.9886641-3.8738939v-2c0-6.627417-5.372583-12-12-12s-12 5.372583-12 12 5.372583 12 12 12zm0-8c-2.209139 0-4-1.790861-4-4s1.790861-4 4-4 4 1.790861 4 4-1.790861 4-4 4z" fill="#428dff"/></g></g></svg>