<?xml version="1.0" encoding="iso-8859-1"?>
<!-- Generator: Adobe Illustrator 19.0.0, SVG Export Plug-In . SVG Version: 6.00 Build 0)  -->
<svg version="1.1" id="Capa_1" xmlns="http://www.w3.org/2000/svg" xmlns:xlink="http://www.w3.org/1999/xlink" x="0px" y="0px"
	 viewBox="0 0 512 512" style="enable-background:new 0 0 512 512;" xml:space="preserve">
<path style="fill:#F3CE72;" d="M328.556,169.379l62.443-98.465c6.211-9.793,19.186-12.698,28.981-6.487
	c9.794,6.211,12.699,19.187,6.488,28.981l-6.763,10.664l14.413-2.294c11.451-1.817,22.216,5.984,24.04,17.438
	c1.823,11.453-5.984,22.217-17.438,24.04l-51.013,8.12l-25.682,40.496c-3.999,6.306-10.801,9.756-17.754,9.756
	c-3.846,0-7.738-1.057-11.227-3.269C325.249,192.15,322.344,179.174,328.556,169.379z"/>
<path style="opacity:0.1;enable-background:new    ;" d="M328.556,169.379l18.965-29.905c12.951,5.856,24.626,14.049,34.493,24.033
	l-17.989,28.367c-3.999,6.306-10.801,9.756-17.754,9.756c-3.846,0-7.738-1.057-11.227-3.269
	C325.249,192.15,322.344,179.174,328.556,169.379z"/>
<g style="opacity:0.1;">
	<path d="M415.317,134.378c-3.623,0-6.81-2.631-7.397-6.322c-0.651-4.091,2.137-7.934,6.228-8.586l15.338-2.441
		c4.085-0.648,7.935,2.138,8.585,6.229c0.651,4.091-2.137,7.935-6.228,8.586l-15.338,2.441
		C416.106,134.348,415.709,134.378,415.317,134.378z"/>
	<path d="M385.346,121.056c-1.374,0-2.764-0.377-4.009-1.167c-3.498-2.219-4.536-6.853-2.317-10.351l9.86-15.547
		c2.218-3.498,6.851-4.537,10.35-2.317c3.498,2.219,4.536,6.853,2.317,10.351l-9.86,15.547
		C390.259,119.823,387.83,121.056,385.346,121.056z"/>
</g>
<path style="fill:#F3CE72;" d="M185.124,169.379l-62.443-98.465c-6.211-9.793-19.186-12.698-28.981-6.487
	c-9.794,6.211-12.699,19.187-6.488,28.981l6.763,10.664l-14.413-2.294c-11.451-1.817-22.216,5.984-24.04,17.438
	c-1.823,11.453,5.984,22.217,17.438,24.04l51.013,8.12l25.682,40.496c3.999,6.306,10.801,9.756,17.754,9.756
	c3.846,0,7.738-1.057,11.227-3.269C188.431,192.15,191.335,179.174,185.124,169.379z"/>
<path style="opacity:0.1;enable-background:new    ;" d="M185.124,169.379l-18.965-29.905
	c-12.951,5.856-24.626,14.049-34.493,24.033l17.989,28.367c3.999,6.306,10.801,9.756,17.754,9.756c3.846,0,7.738-1.057,11.227-3.269
	C188.431,192.15,191.335,179.174,185.124,169.379z"/>
<path style="fill:#7DD49B;" d="M393.535,342.602H118.466v-98.41c0-52.385,42.467-94.852,94.852-94.852h85.365
	c52.385,0,94.852,42.467,94.852,94.852L393.535,342.602L393.535,342.602z"/>
<path style="opacity:0.1;enable-background:new    ;" d="M260.334,149.34h-47.016c-52.385,0-94.852,42.466-94.852,94.852v98.41
	h97.794c0.52-11.414-31.216-46.419-35.679-64.048C158.282,190.472,198.299,157.335,260.334,149.34z"/>
<path style="fill:#7DD49B;" d="M422.126,373.817l-0.836-0.424c-7.998-4.059-9.985-13.018-4.901-20.236
	c5.949-8.445,9.444-18.742,9.444-29.859l0,0c0-28.69-23.258-51.947-51.947-51.947H345.37c-3.333,0-6.561-1.295-8.88-3.69
	c-7.577-7.824-18.187-12.691-29.939-12.691c-11.752,0-22.362,4.867-29.939,12.691c-2.319,2.394-5.547,3.69-8.88,3.69h-23.463
	c-3.333,0-6.561-1.295-8.88-3.69c-7.577-7.824-18.187-12.691-29.939-12.691c-11.751,0-22.362,4.867-29.939,12.691
	c-2.319,2.394-5.547,3.69-8.88,3.69h-28.516c-28.69,0-51.947,23.258-51.947,51.947l0,0c0,10.995,3.42,21.189,9.251,29.582
	c4.905,7.06,2.63,16.791-5.037,20.68l-0.502,0.254c-11.623,5.895-16.899,20.516-11.044,32.159
	c4.175,8.301,12.553,13.093,21.252,13.093c3.587,0,7.229-0.814,10.652-2.534c8.817-4.43,17.438-9.457,25.742-14.959
	c1.232-0.816,2.573,0.865,1.507,1.889l-0.376,0.362c-9.153,8.802-10.251,23.359-1.971,32.987c4.744,5.516,11.389,8.296,18.048,8.296
	c5.892,0,11.795-2.179,16.396-6.564c7.591-7.237,14.791-15.043,21.477-23.253c1.262-1.549,3.706-0.093,2.945,1.754l-0.187,0.453
	c-4.914,11.927,0.2,25.896,11.955,31.208c3.194,1.444,6.526,2.125,9.801,2.125c9.313,0,18.154-5.51,21.953-14.644
	c1.668-4.01,3.35-8.325,5.014-12.865c4.429-12.083,21.484-12.083,25.912,0c1.664,4.54,3.346,8.854,5.014,12.865
	c3.8,9.136,12.64,14.644,21.953,14.644c3.67,0,7.416-0.856,10.953-2.682c11.033-5.695,15.555-19.155,10.812-30.63
	c-0.064-0.155-0.128-0.311-0.192-0.466c-0.759-1.844,1.68-3.311,2.939-1.766c6.687,8.211,13.888,16.018,21.48,23.256
	c4.602,4.387,10.504,6.564,16.396,6.564c6.659,0,13.308-2.781,18.051-8.3c8.275-9.628,7.176-24.181-1.974-32.983l-0.377-0.362
	c-1.065-1.024,0.276-2.705,1.508-1.889c8.304,5.502,16.924,10.529,25.741,14.959c3.424,1.721,7.065,2.534,10.652,2.534
	c8.701,0,17.081-4.796,21.255-13.099C439.02,394.328,433.744,379.711,422.126,373.817z"/>
<path style="opacity:0.5;fill:#FFFFFF;enable-background:new    ;" d="M422.126,373.817l-0.836-0.424
	c-7.998-4.059-9.985-13.018-4.901-20.236c5.949-8.445,9.444-18.742,9.444-29.859l0,0c0-28.69-23.258-51.947-51.947-51.947H345.37
	c-3.333,0-6.561-1.295-8.88-3.69c-7.577-7.824-18.187-12.691-29.939-12.691c-11.752,0-22.362,4.867-29.939,12.691
	c-2.319,2.394-5.547,3.69-8.88,3.69h-23.463c-3.333,0-6.561-1.295-8.88-3.69c-7.577-7.824-18.187-12.691-29.939-12.691
	c-11.751,0-22.362,4.867-29.939,12.691c-2.319,2.394-5.547,3.69-8.88,3.69h-28.516c-28.69,0-51.947,23.258-51.947,51.947l0,0
	c0,10.995,3.42,21.189,9.251,29.582c4.905,7.06,2.63,16.791-5.037,20.68l-0.502,0.254c-11.623,5.895-16.899,20.516-11.044,32.159
	c4.175,8.301,12.553,13.093,21.252,13.093c3.587,0,7.229-0.814,10.652-2.534c8.817-4.43,17.438-9.457,25.742-14.959
	c1.232-0.816,2.573,0.865,1.507,1.889l-0.376,0.362c-9.153,8.802-10.251,23.359-1.971,32.987c4.744,5.516,11.389,8.296,18.048,8.296
	c5.892,0,11.795-2.179,16.396-6.564c7.591-7.237,14.791-15.043,21.477-23.253c1.262-1.549,3.706-0.093,2.945,1.754l-0.187,0.453
	c-4.914,11.927,0.2,25.896,11.955,31.208c3.194,1.444,6.526,2.125,9.801,2.125c9.313,0,18.154-5.51,21.953-14.644
	c1.668-4.01,3.35-8.325,5.014-12.865c4.429-12.083,21.484-12.083,25.912,0c1.664,4.54,3.346,8.854,5.014,12.865
	c3.8,9.136,12.64,14.644,21.953,14.644c3.67,0,7.416-0.856,10.953-2.682c11.033-5.695,15.555-19.155,10.812-30.63
	c-0.064-0.155-0.128-0.311-0.192-0.466c-0.759-1.844,1.68-3.311,2.939-1.766c6.687,8.211,13.888,16.018,21.48,23.256
	c4.602,4.387,10.504,6.564,16.396,6.564c6.659,0,13.308-2.781,18.051-8.3c8.275-9.628,7.176-24.181-1.974-32.983l-0.377-0.362
	c-1.065-1.024,0.276-2.705,1.508-1.889c8.304,5.502,16.924,10.529,25.741,14.959c3.424,1.721,7.065,2.534,10.652,2.534
	c8.701,0,17.081-4.796,21.255-13.099C439.02,394.328,433.744,379.711,422.126,373.817z"/>
<path style="opacity:0.05;enable-background:new    ;" d="M187.347,320.496c-11.457-4.405-18.874-31.456,0-41.942
	c18.104-10.058,2.458-20.535-2.198-18.307c-3.568,1.995-6.814,4.499-9.637,7.414c-2.319,2.394-5.547,3.69-8.88,3.69h-28.516
	c-28.69,0-51.947,23.258-51.947,51.947l0,0c0,10.995,3.42,21.189,9.251,29.582c4.905,7.06,2.63,16.791-5.037,20.68l-0.502,0.254
	c-11.623,5.895-16.899,20.516-11.044,32.159c4.175,8.301,12.553,13.093,21.252,13.093c3.587,0,7.229-0.814,10.652-2.534
	c8.817-4.43,17.438-9.457,25.742-14.959c1.232-0.816,2.573,0.865,1.507,1.889l-0.376,0.362c-9.153,8.802-10.251,23.359-1.971,32.987
	c4.744,5.516,11.389,8.296,18.048,8.296c5.892,0,11.795-2.179,16.396-6.564c3.399-3.241,6.707-6.612,9.939-10.066
	c-19.984,16.63-37.468-5.3-25.023-18.482c9.301-9.851,22.774-24.5,37-42.015C208.797,347.301,198.804,324.901,187.347,320.496z"/>
<circle style="fill:#7DD49B;" cx="205.451" cy="296.66" r="18.1"/>
<circle style="opacity:0.15;enable-background:new    ;" cx="205.451" cy="296.66" r="18.1"/>
<circle style="fill:#7DD49B;" cx="306.551" cy="296.66" r="18.1"/>
<circle style="opacity:0.15;enable-background:new    ;" cx="306.551" cy="296.66" r="18.1"/>
<path style="fill:#7DD49B;" d="M256.002,85.784L256.002,85.784c-6.66,0-12.182,5.16-12.632,11.805l-3.507,51.751h32.279
	l-3.507-51.751C268.183,90.944,262.662,85.784,256.002,85.784z"/>
<path style="opacity:0.15;enable-background:new    ;" d="M256.002,85.784L256.002,85.784c-6.66,0-12.182,5.16-12.632,11.805
	l-3.507,51.751h32.279l-3.507-51.751C268.183,90.944,262.662,85.784,256.002,85.784z"/>
<polygon style="opacity:0.1;enable-background:new    ;" points="270.925,131.394 241.079,131.394 239.862,149.34 272.141,149.34 
	"/>
<g style="opacity:0.1;">
	<path d="M98.362,134.378c-0.392,0-0.788-0.03-1.188-0.094l-15.338-2.441c-4.091-0.651-6.879-4.495-6.228-8.586
		c0.651-4.092,4.495-6.882,8.586-6.229l15.338,2.441c4.091,0.651,6.879,4.495,6.228,8.586
		C105.172,131.747,101.984,134.378,98.362,134.378z"/>
	<path d="M128.333,121.056c-2.483,0-4.913-1.232-6.341-3.484l-9.86-15.547c-2.219-3.498-1.181-8.132,2.317-10.351
		c3.497-2.22,8.132-1.181,10.35,2.317l9.86,15.547c2.219,3.498,1.181,8.132-2.317,10.351
		C131.097,120.679,129.707,121.056,128.333,121.056z"/>
</g>
<path d="M335.905,206.627c-4.142,0-7.5,3.357-7.5,7.5v13.124c0,4.143,3.358,7.5,7.5,7.5s7.5-3.357,7.5-7.5v-13.124
	C343.405,209.985,340.047,206.627,335.905,206.627z M177.774,206.627c-4.142,0-7.5,3.357-7.5,7.5v13.124c0,4.143,3.358,7.5,7.5,7.5
	s7.5-3.357,7.5-7.5v-13.124C185.274,209.985,181.916,206.627,177.774,206.627z M306.551,322.261
	c14.118,0,25.603-11.485,25.603-25.604c0-14.118-11.486-25.603-25.603-25.603c-14.118,0-25.604,11.485-25.604,25.603
	C280.948,310.776,292.434,322.261,306.551,322.261z M306.551,286.054c5.847,0,10.603,4.757,10.603,10.603
	c0,5.847-4.757,10.604-10.603,10.604c-5.847,0-10.604-4.757-10.604-10.604C295.948,290.811,300.705,286.054,306.551,286.054z
	 M509.569,422.912c-22.332-20.471-32.214-51.579-25.791-81.186c3.684-16.978-1.811-34.072-14.697-45.725
	c-12.887-11.654-30.447-15.405-46.97-10.039l-1.602,0.52c-5.254-6.64-11.889-12.131-19.473-16.042v-26.249
	c0-23.616-8.044-45.387-21.53-62.725l14.722-23.215l47.671-7.588c7.518-1.196,14.12-5.249,18.59-11.411s6.272-13.696,5.076-21.214
	c-2.381-14.961-16.082-25.368-30.973-23.88c2.645-5.67,3.343-12.018,1.954-18.223c-1.663-7.43-6.12-13.766-12.549-17.843
	c-13.27-8.416-30.914-4.467-39.331,8.805l-14.039,22.137c-2.219,3.498-1.181,8.132,2.317,10.351c3.499,2.218,8.132,1.18,10.35-2.317
	l14.039-22.137c3.987-6.286,12.345-8.157,18.631-4.17c3.045,1.931,5.156,4.933,5.944,8.451c0.788,3.519,0.158,7.134-1.773,10.18
	l-6.763,10.664c-1.579,2.49-1.552,5.674,0.068,8.138c1.62,2.463,4.533,3.747,7.445,3.286l14.41-2.294
	c7.352-1.166,14.287,3.862,15.457,11.21c0.567,3.562-0.287,7.13-2.404,10.049c-2.117,2.919-5.245,4.839-8.806,5.405l-51.013,8.119
	c-2.125,0.339-4.002,1.573-5.155,3.391l-14.318,22.579c-6.545-6.206-13.906-11.557-21.905-15.875l20.932-33.007
	c2.219-3.498,1.181-8.132-2.317-10.35c-3.5-2.22-8.133-1.181-10.35,2.317l-22.102,34.852c-10.821-3.902-22.48-6.035-34.629-6.035
	h-19.534l-3.034-44.758c-0.714-10.541-9.55-18.798-20.115-18.798c-10.565,0-19.4,8.257-20.115,18.798l-3.033,44.758h-19.535
	c-11.637,0-22.825,1.957-33.258,5.551l-51.047-80.493c-8.416-13.27-26.059-17.22-39.331-8.805
	c-6.429,4.077-10.885,10.413-12.548,17.843c-1.389,6.205-0.69,12.553,1.954,18.223c-14.892-1.497-28.591,8.918-30.973,23.88
	c-1.197,7.517,0.606,15.052,5.076,21.214s11.072,10.215,18.59,11.412l47.67,7.587l13.976,22.039
	c-14.046,17.525-22.462,39.747-22.462,63.902v26.249c-7.584,3.911-14.219,9.403-19.473,16.042l-1.603-0.52
	c-16.524-5.369-34.083-1.615-46.97,10.039c-12.886,11.653-18.38,28.747-14.697,45.725c6.423,29.607-3.459,60.715-25.791,81.186
	c-3.053,2.799-3.26,7.543-0.461,10.597c1.48,1.613,3.501,2.432,5.531,2.432c1.81,0,3.626-0.651,5.066-1.972
	c26.249-24.061,37.864-60.624,30.314-95.422c-2.531-11.667,1.244-23.413,10.099-31.421c8.412-7.608,19.722-10.301,30.568-7.392
	c-3.134,7.23-4.882,15.196-4.882,23.565c0,2.138,0.115,4.293,0.342,6.406c0.442,4.119,4.144,7.093,8.258,6.656
	c4.118-0.442,7.098-4.14,6.656-8.258c-0.17-1.584-0.256-3.201-0.256-4.806c0-6.777,1.531-13.202,4.255-18.956l34.801,11.305
	c3.938,1.279,8.17-0.877,9.45-4.816c1.279-3.939-0.877-8.171-4.816-9.45l-30.296-9.841c8.018-7.842,18.978-12.688,31.053-12.688
	h28.517c5.391,0,10.592-2.177,14.268-5.973c6.5-6.712,15.219-10.408,24.551-10.408s18.051,3.696,24.551,10.408
	c3.676,3.796,8.876,5.973,14.268,5.973h23.463c5.392,0,10.592-2.177,14.268-5.973c6.5-6.712,15.219-10.408,24.551-10.408
	s18.052,3.696,24.551,10.408c3.676,3.796,8.876,5.973,14.267,5.973h28.517c12.075,0,23.034,4.846,31.052,12.688l-30.296,9.841
	c-3.94,1.279-6.096,5.511-4.816,9.45c1.28,3.94,5.51,6.097,9.45,4.816l34.801-11.304c2.725,5.754,4.255,12.179,4.255,18.957
	c0,9.208-2.793,18.039-8.076,25.539c-3.783,5.371-5.05,11.613-3.566,17.578c1.465,5.889,5.444,10.741,11.206,13.665l0.835,0.424
	c8.138,4.129,11.68,14.247,7.735,22.095c-2.78,5.531-8.356,8.968-14.553,8.968c-2.54,0-4.992-0.584-7.285-1.737
	c-8.42-4.229-16.82-9.111-24.969-14.511c-3.78-2.504-8.772-1.722-11.607,1.818c-2.837,3.541-2.51,8.585,0.762,11.732l0.375,0.36
	c6.442,6.196,7.094,16.162,1.485,22.688c-3.107,3.615-7.613,5.688-12.363,5.688c-4.197,0-8.183-1.596-11.221-4.492
	c-7.31-6.969-14.322-14.56-20.84-22.564c-2.914-3.579-7.906-4.462-11.874-2.1c-3.973,2.366-5.577,7.186-3.822,11.443l0.202,0.49
	c3.309,8.005,0.093,17.273-7.322,21.101c-2.372,1.225-4.899,1.846-7.512,1.846c-6.596,0-12.496-3.934-15.029-10.024
	c-1.623-3.901-3.271-8.129-4.897-12.565c-3.113-8.493-10.963-13.982-19.998-13.982c-9.035,0-16.885,5.488-19.998,13.98
	c-1.628,4.44-3.276,8.669-4.897,12.566c-2.533,6.09-8.433,10.024-15.029,10.024c-2.313,0-4.571-0.49-6.713-1.459
	c-7.89-3.565-11.528-13.218-8.108-21.517l0.186-0.454c1.76-4.271,0.157-9.087-3.811-11.45c-3.969-2.365-8.966-1.48-11.884,2.104
	c-6.52,8.003-13.53,15.594-20.837,22.559c-3.04,2.898-7.025,4.493-11.221,4.493c-4.749,0-9.254-2.072-12.362-5.686
	c-5.613-6.526-4.961-16.493,1.479-22.686l0.382-0.367c3.271-3.146,3.598-8.191,0.759-11.733c-2.837-3.538-7.827-4.318-11.608-1.813
	c-8.146,5.397-16.546,10.279-24.967,14.51c-2.293,1.152-4.744,1.736-7.285,1.736c-6.195,0-11.771-3.435-14.551-8.963
	c-3.948-7.851-0.405-17.972,7.729-22.098l0.509-0.258c5.524-2.802,9.561-7.851,11.075-13.852c1.539-6.103,0.347-12.589-3.271-17.797
	c-2.363-3.401-7.037-4.244-10.439-1.88c-3.402,2.363-4.244,7.037-1.88,10.439c1.142,1.645,1.523,3.674,1.045,5.569
	c-0.46,1.82-1.637,3.292-3.309,4.14l-0.509,0.258c-15.367,7.794-21.939,27.128-14.352,42.218
	c5.343,10.624,16.054,17.224,27.952,17.224c4.901,0,9.619-1.122,14.019-3.333c2.85-1.433,5.698-2.934,8.534-4.5
	c-0.721,8.11,1.681,16.416,7.315,22.968c5.961,6.931,14.612,10.905,23.735,10.905c8.067,0,15.727-3.066,21.571-8.635
	c3.551-3.386,7.035-6.908,10.432-10.547c2.009,9.503,8.251,17.938,17.494,22.116c4.096,1.851,8.433,2.789,12.89,2.789
	c12.675,0,24.01-7.561,28.878-19.263c1.703-4.095,3.43-8.524,5.131-13.165c1.409-3.845,4.883-4.144,5.915-4.144
	c1.031,0,4.505,0.299,5.914,4.144c1.7,4.638,3.426,9.066,5.131,13.165c4.868,11.701,16.204,19.263,28.878,19.263
	c4.96,0,9.937-1.217,14.394-3.517c8.486-4.381,14.149-12.388,16.032-21.345c3.384,3.623,6.854,7.132,10.391,10.504
	c5.841,5.568,13.502,8.635,21.571,8.635c9.127,0,17.779-3.977,23.739-10.911c5.629-6.55,8.028-14.855,7.308-22.964
	c2.837,1.567,5.684,3.069,8.535,4.501c4.402,2.213,9.119,3.334,14.02,3.334c11.902,0,22.614-6.603,27.956-17.232
	c7.583-15.085,1.012-34.414-14.351-42.208l-0.835-0.424c-1.845-0.936-3.033-2.287-3.437-3.908c-0.416-1.674,0.036-3.564,1.272-5.319
	c7.074-10.042,10.813-21.86,10.813-34.178c0-8.369-1.747-16.335-4.882-23.565c10.846-2.91,22.156-0.214,30.568,7.392
	c8.854,8.008,12.63,19.754,10.099,31.421c-7.55,34.798,4.066,71.361,30.314,95.422c1.44,1.32,3.255,1.972,5.066,1.972
	c2.029,0,4.052-0.818,5.531-2.432C512.829,430.455,512.622,425.711,509.569,422.912z M250.853,98.096
	c0.183-2.698,2.444-4.812,5.149-4.812s4.966,2.113,5.149,4.812l2.965,43.744h-16.228L250.853,98.096z M130.308,147.36
	c-1.152-1.817-3.03-3.052-5.155-3.391L74.14,135.85c-3.562-0.566-6.689-2.486-8.806-5.405c-2.117-2.919-2.971-6.487-2.404-10.049
	c1.169-7.349,8.101-12.38,15.454-11.21l14.413,2.294c2.912,0.462,5.825-0.823,7.445-3.286c1.62-2.464,1.646-5.647,0.068-8.138
	l-6.763-10.664c-1.932-3.046-2.561-6.661-1.773-10.18c0.788-3.519,2.898-6.521,5.943-8.451c6.289-3.985,14.645-2.116,18.631,4.17
	L166.11,153.4c-8.055,4.205-15.482,9.45-22.106,15.557L130.308,147.36z M386.036,265.104c-3.924-0.818-7.986-1.252-12.149-1.252
	H345.37c-1.353,0-2.625-0.513-3.492-1.408c-9.351-9.655-21.897-14.973-35.327-14.973s-25.976,5.317-35.327,14.973
	c-0.867,0.896-2.139,1.408-3.492,1.408h-23.463c-1.353,0-2.626-0.513-3.492-1.408c-9.351-9.655-21.897-14.973-35.327-14.973
	c-13.43,0-25.976,5.317-35.327,14.973c-0.867,0.896-2.139,1.408-3.492,1.408h-28.517c-4.163,0-8.225,0.434-12.149,1.253v-20.913
	c0-48.166,39.186-87.352,87.352-87.352h85.365c48.166,0,87.352,39.186,87.352,87.352v20.912H386.036z M205.451,271.054
	c-14.118,0-25.604,11.485-25.604,25.603s11.486,25.604,25.604,25.604s25.604-11.485,25.604-25.604
	C231.054,282.539,219.568,271.054,205.451,271.054z M205.451,307.261c-5.847,0-10.604-4.757-10.604-10.604
	c0-5.847,4.757-10.603,10.604-10.603s10.604,4.757,10.604,10.603C216.054,302.504,211.297,307.261,205.451,307.261z
	 M272.031,358.306c-3.834,4.4-9.371,6.923-15.191,6.923c-5.82,0-11.357-2.523-15.191-6.923c-2.721-3.123-7.459-3.449-10.582-0.728
	s-3.448,7.459-0.727,10.581c6.684,7.67,16.342,12.069,26.499,12.069c10.157,0,19.816-4.399,26.5-12.069
	c2.721-3.122,2.396-7.86-0.727-10.581C279.489,354.858,274.752,355.182,272.031,358.306z"/>
<g>
</g>
<g>
</g>
<g>
</g>
<g>
</g>
<g>
</g>
<g>
</g>
<g>
</g>
<g>
</g>
<g>
</g>
<g>
</g>
<g>
</g>
<g>
</g>
<g>
</g>
<g>
</g>
<g>
</g>
</svg>
