<svg id="Capa_1" enable-background="new 0 0 509.495 509.495" height="512" viewBox="0 0 509.495 509.495" width="512" xmlns="http://www.w3.org/2000/svg"><g id="XMLID_468_"><path id="XMLID_661_" d="m84.415 172.794c-4.487 0-8.138-3.651-8.138-8.139v-2.17c0-21.029-17.109-38.138-38.139-38.138-21.029 0-38.138 17.109-38.138 38.139 0 55.613 30.038 107.227 78.391 134.701l38.255 21.736v-146.129z" fill="#ecdfda"/><path id="XMLID_695_" d="m471.356 124.347c-21.029 0-38.138 17.109-38.138 38.138v2.17c0 4.488-3.651 8.139-8.138 8.139h-32.231v146.128l38.255-21.736c48.353-27.474 78.391-79.088 78.391-134.701 0-21.029-17.109-38.138-38.139-38.138z" fill="#d5cac5"/><path id="XMLID_676_" d="m254.748 4.425c-92.691 0-168.102 75.41-168.102 168.102v313.643h15c7.807 0 10.925 2.31 16.586 6.504 7.063 5.232 16.735 12.397 34.444 12.397 17.708 0 27.381-7.166 34.444-12.397 5.661-4.194 8.78-6.504 16.587-6.504 7.808 0 10.927 2.31 16.588 6.504 7.063 5.232 16.736 12.397 34.445 12.397 17.708 0 27.381-7.166 34.444-12.397 5.661-4.194 8.78-6.504 16.587-6.504 7.81 0 10.929 2.311 16.591 6.504 7.063 5.232 16.737 12.397 34.447 12.397 17.709 0 27.383-7.165 34.447-12.397 5.663-4.194 8.782-6.504 16.592-6.504h15v-313.644c.001-92.691-75.409-168.101-168.1-168.101z" fill="#ffece2"/><path id="XMLID_1734_" d="m254.748 4.425v500.645c17.704-.002 27.375-7.166 34.437-12.397 5.661-4.194 8.78-6.504 16.587-6.504 7.81 0 10.929 2.311 16.591 6.504 7.063 5.232 16.737 12.397 34.447 12.397 17.709 0 27.383-7.165 34.447-12.397 5.663-4.194 8.782-6.504 16.592-6.504h15v-313.643c0-92.691-75.41-168.101-168.101-168.101z" fill="#ecdfda"/><path id="XMLID_1068_" d="m205.763 240.604v56.481c0 26.972 21.943 48.916 48.915 48.916s48.916-21.943 48.916-48.916v-56.481z" fill="#ff8597"/><path id="XMLID_1735_" d="m254.748 240.604v105.396c26.94-.038 48.846-21.965 48.846-48.914v-56.481h-48.846z" fill="#ff637b"/><path id="XMLID_1060_" d="m186.809 237.104h135.876v30h-135.876z" fill="#ecdfda"/><circle id="XMLID_864_" cx="311.293" cy="163.811" fill="#a8ebfa" r="34.613"/><path id="XMLID_865_" d="m311.293 213.424c-27.356 0-49.613-22.256-49.613-49.613s22.256-49.613 49.613-49.613 49.613 22.256 49.613 49.613-22.257 49.613-49.613 49.613zm0-69.226c-10.814 0-19.613 8.798-19.613 19.613s8.798 19.613 19.613 19.613 19.613-8.798 19.613-19.613-8.799-19.613-19.613-19.613z" fill="#6d3326"/><path id="XMLID_47_" d="m207.075 179.796c7.846 0 15.363-6.899 15-15-.364-8.127-6.591-15-15-15-7.846 0-15.363 6.899-15 15 .364 8.127 6.591 15 15 15z" fill="#883f2e"/><path id="XMLID_1740_" d="m254.748 237.104h67.938v30h-67.938z" fill="#d5cac5"/></g></svg>