<svg id="Capa_1" enable-background="new 0 0 512.003 512.003" height="512" viewBox="0 0 512.003 512.003" width="512" xmlns="http://www.w3.org/2000/svg"><g><path d="m320.734 177.506h-2.069l3.126-42.452h11.231c7.897 0 14.299 6.402 14.299 14.299v1.564c.001 14.685-11.903 26.589-26.587 26.589z" fill="#df9380"/><path d="m191.269 177.506h2.069l-3.126-42.452h-11.231c-7.897 0-14.299 6.402-14.299 14.299v1.564c-.001 14.685 11.903 26.589 26.587 26.589z" fill="#df9380"/><path d="m274.842 168.866c-3.537 0-6.93-1.405-9.432-3.907-5.209-5.209-13.654-5.209-18.863 0-2.501 2.501-5.894 3.907-9.431 3.907h-44.409l1.189 16.144c2.396 32.53 42.5 55.074 62.106 55.074s59.71-22.544 62.106-55.074l1.189-16.144z" fill="#ffcbbe"/><path d="m197.443 104.266c37.764 12.652 79.355 12.652 117.115 0l1.724-.577c3.49-1.169 5.533-4.786 4.733-8.379l-18.107-81.266c-.973-4.367-5.213-7.193-9.619-6.409l-3.942.701c-22.051 3.921-44.621 3.922-66.672.003l-3.963-.704c-4.405-.783-8.645 2.043-9.618 6.41l-18.106 81.265c-.801 3.593 1.242 7.21 4.733 8.379z" fill="#665e66"/><path d="m321.016 95.309-18.107-81.266c-.973-4.367-5.214-7.193-9.619-6.409l-3.942.701c-7.509 1.335-15.078 2.216-22.667 2.642l13.937 62.55c1.026 4.606-1.593 9.243-6.068 10.742-26.803 8.979-55.155 11.623-82.871 7.934l-.692 3.107c-.801 3.593 1.242 7.21 4.733 8.379l1.723.577c37.764 12.652 79.355 12.652 117.115 0l1.724-.577c3.491-1.17 5.534-4.787 4.734-8.38z" fill="#544f57"/><path d="m314.72 67.054 6.296 28.256c.801 3.593-1.242 7.21-4.733 8.379l-1.724.577c-37.761 12.652-79.352 12.652-117.115 0l-1.723-.577c-3.49-1.169-5.533-4.786-4.733-8.379l6.296-28.256c-37.776 5.8-63.365 16.993-63.365 29.851 0 8.638 11.551 16.526 30.588 22.531 19.809 6.249 38.511 15.792 54.55 28.99 9.404 7.739 22.477 12.559 36.945 12.625 14.468-.066 27.541-4.886 36.945-12.625 16.039-13.198 34.741-22.742 54.55-28.99 19.037-6.005 30.588-13.893 30.588-22.531 0-12.858-25.59-24.052-63.365-29.851z" fill="#8b818e"/><path d="m292.947 148.426c-9.404 7.739-22.477 12.559-36.945 12.625-14.468-.066-27.541-4.886-36.945-12.625-9-7.406-18.84-13.662-29.242-18.83l2.892 39.27h44.409c3.537 0 6.93-1.405 9.431-3.907 5.209-5.209 13.654-5.209 18.863 0 2.501 2.501 5.894 3.907 9.432 3.907h44.454l2.892-39.269c-10.403 5.168-20.241 11.423-29.241 18.829z" fill="#eaac9d"/><path d="m292.082 249.276c-1.367-2.204-2.157-4.804-2.157-7.589v-14.364c-11.902 8.115-25.024 12.76-33.924 12.76-8.899 0-22.021-4.645-33.924-12.76v14.364c0 2.784-.79 5.385-2.157 7.589-.671 1.081-.647 2.457-.035 3.572l36.116 65.815 36.116-65.815c.612-1.115.636-2.491-.035-3.572z" fill="#eaac9d"/><path d="m219.886 252.848c-.612-1.115-.636-2.491.035-3.572 1.367-2.204 2.157-4.804 2.157-7.589v-14.364c.003.002.005.003.008.005-14.323-9.763-26.881-24.552-28.19-42.32l-.01-.131-68.274 21.388c-4.357 1.365-5.286 7.117-1.581 9.784l37.815 27.219c11.859 8.536 22.562 18.573 31.842 29.859 16.209 19.714 37.039 35.116 60.636 44.839l1.673.689z" fill="#8b818e"/><path d="m292.111 252.848c.612-1.115.636-2.491-.035-3.572-1.367-2.204-2.157-4.804-2.157-7.589v-14.364c-.003.002-.005.003-.008.005 14.323-9.763 26.881-24.552 28.19-42.32l.01-.131 68.274 21.388c4.357 1.365 5.286 7.117 1.581 9.784l-37.816 27.221c-11.859 8.536-22.562 18.573-31.842 29.859-16.209 19.714-37.039 35.116-60.636 44.839l-1.673.689z" fill="#8b818e"/><path d="m334.335 256.17c-5.72 5.272-11.077 10.938-16.027 16.959-16.209 19.714-37.039 35.116-60.636 44.839l-1.665.686-.005.009-.003-.006-1.673-.689c-23.598-9.722-44.427-25.125-60.636-44.839-4.951-6.021-10.307-11.687-16.027-16.958-25.391 1.343-45.566 22.355-45.566 48.08v41.658h247.811v-41.658c-.001-25.728-20.179-46.741-45.573-48.081z" fill="#665e66"/><path d="m214.325 297.968.014.006c1.068.436 2.266.434 3.332-.006.076-.559.094-.697.17-1.256-8.853-6.932-16.958-14.833-24.153-23.583-4.951-6.021-10.307-11.687-16.027-16.958-6.228.329-12.141 1.843-17.521 4.318 15.139 16.206 33.61 29.002 54.185 37.479z" fill="#544f57"/><path d="m334.335 256.17c-.709.654-1.413 1.313-2.111 1.979 4.861 7.52 7.683 16.481 7.683 26.102v6.291c0 19.533-15.834 35.367-35.367 35.367h-172.444v20h247.811v-41.658c0-25.728-20.178-46.741-45.572-48.081z" fill="#544f57"/><path d="m376.397 478.592h-240.79c-6.208 0-11.496-4.51-12.476-10.639l-17.177-107.415c-1.227-7.676 4.702-14.629 12.476-14.629h275.143c7.774 0 13.703 6.953 12.476 14.629l-17.177 107.415c-.98 6.13-6.268 10.639-12.475 10.639z" fill="#c6c1c8"/><path d="m393.573 345.909h-28.383l-11.674 73.001c-3.656 22.862-23.379 39.682-46.532 39.682h-185.35l1.497 9.361c.98 6.13 6.268 10.639 12.476 10.639h240.79c6.208 0 11.496-4.51 12.476-10.639l17.177-107.415c1.227-7.676-4.703-14.629-12.477-14.629z" fill="#afaab4"/><path d="m391.048 504.503h-270.093c-7.694 0-13.931-6.237-13.931-13.931v-6.072c0-3.263 2.645-5.908 5.908-5.908h286.139c3.263 0 5.908 2.645 5.908 5.908v6.072c0 7.694-6.237 13.931-13.931 13.931z" fill="#c6c1c8"/><ellipse cx="256.002" cy="412.251" fill="#f1f1f4" rx="23.896" ry="20.599"/><path d="m393.573 338.409h-6.166v-34.157c0-23.902-15.084-44.417-36.441-52.253 1.176-.896 2.364-1.777 3.565-2.641l37.815-27.22c4.035-2.904 6.048-7.757 5.255-12.664s-4.232-8.879-8.976-10.364l-14.927-4.676c-3.953-1.235-8.161.963-9.399 4.915-1.238 3.953.962 8.161 4.916 9.399l11.188 3.505c-26.899 20.428-46.379 29.953-67.889 56.113-10.812 13.151-23.894 24.352-38.492 33.049l24.671-44.959c1.932-3.521 1.84-7.788-.237-11.131-.674-1.088-1.031-2.346-1.031-3.637v-10.504c12.402-9.248 22.716-21.749 26.637-36.582l12.565 3.936c3.995 1.249 8.173-1.002 9.399-4.915 1.238-3.953-.962-8.161-4.915-9.399l-6.679-2.092c11.995-5.284 20.39-17.287 20.39-31.213v-1.564c0-8.945-5.416-16.649-13.14-20.005 2.645-.977 5.336-1.898 8.071-2.761 23.776-7.499 35.832-17.486 35.832-29.683 0-21.664-38.393-31.946-64.649-36.44l-10.707-48.052c-1.852-8.312-9.866-13.657-18.252-12.162l-3.941.701c-21.25 3.777-42.799 3.777-64.045.003l-3.966-.706c-8.385-1.485-16.398 3.854-18.25 12.164l-2.249 10.093c-.901 4.043 1.646 8.051 5.689 8.951 4.045.904 8.051-1.646 8.952-5.689l2.249-10.093c.1-.449.534-.739.984-.657l3.964.706c22.992 4.084 46.307 4.084 69.298-.004l3.941-.701c.451-.072.885.208.985.656 3.397 15.247 14.648 65.742 18.046 80.992l-1.458.488c-36.224 12.137-76.123 12.137-112.351 0l-1.456-.488c2.787-12.507 5.604-25.154 8.059-36.171.901-4.043-1.646-8.051-5.689-8.951-4.045-.9-8.051 1.646-8.952 5.689l-.72 3.231c-26.256 4.494-64.649 14.776-64.649 36.44 0 12.196 12.056 22.184 35.832 29.683 2.736.863 5.426 1.784 8.071 2.761-7.725 3.356-13.14 11.06-13.14 20.005v1.564c0 13.925 8.394 25.927 20.388 31.212l-54.197 16.978c-4.744 1.485-8.183 5.457-8.976 10.364s1.221 9.76 5.255 12.664l37.815 27.22c1.201.865 2.39 1.746 3.567 2.643-21.355 7.838-36.437 28.353-36.437 52.251v34.157h-6.166c-5.904 0-11.488 2.577-15.32 7.069-3.832 4.493-5.494 10.414-4.562 16.245l17.176 107.414c.106.665.244 1.317.411 1.955h-3.204c-7.393 0-13.408 6.015-13.408 13.408v6.072c0 11.817 9.614 21.431 21.431 21.431h270.093c11.817 0 21.431-9.613 21.431-21.431v-6.071c0-7.394-6.015-13.408-13.408-13.408h-3.204c.167-.638.304-1.291.411-1.955l17.176-107.414c.933-5.831-.73-11.752-4.562-16.245-3.829-4.492-9.413-7.069-15.318-7.069zm-69.472-60.516c4.032-4.904 8.348-9.563 12.921-13.954 20.076 2.585 35.385 19.73 35.385 40.312v34.157h-80.014c-1.141-8.386-6.623-15.597-14.614-18.889l-3.091-1.273c18.912-10.035 35.795-23.791 49.413-40.353zm-39.566-26.817-28.533 51.998-28.533-51.998c1.385-2.922 2.109-6.124 2.109-9.388v-1.344c9.33 4.571 18.775 7.239 26.424 7.239s17.094-2.668 26.424-7.239v1.344c-.001 3.263.723 6.464 2.109 9.388zm-28.533-18.493c-17.029 0-52.58-20.786-54.623-48.086-.005-.104-.013-.208-.023-.312l-.576-7.82h36.336c5.565 0 10.798-2.167 14.735-6.103 2.282-2.283 5.973-2.284 8.257 0 .597.597 1.225 1.154 1.879 1.668v13.192c0 3.385-2.754 6.139-6.139 6.139-4.142 0-7.5 3.357-7.5 7.5s3.358 7.5 7.5 7.5c11.656 0 21.139-9.482 21.139-21.139v-8.758h34.237l-.565 7.666c-.026.229-.044.481-.052.691-2.221 27.191-37.623 47.862-54.605 47.862zm56.326-71.217h-25.605c3.945-1.996 7.633-4.387 10.99-7.149 5.001-4.115 10.334-7.908 15.979-11.369zm-112.654 0-1.364-18.519c5.645 3.461 10.978 7.254 15.98 11.37 3.356 2.762 7.044 5.153 10.991 7.149zm140.148-10.448c0 8.404-5.459 15.556-13.017 18.098l1.949-26.462h4.269c3.75 0 6.8 3.051 6.8 6.8v1.564zm-198.403-54.013c0-4.065 11.547-13.844 46.109-20.553l-3.861 17.327c-1.64 7.365 2.518 14.726 9.672 17.121l1.722.577c39.289 13.163 82.573 13.17 121.879.001l1.727-.578c7.152-2.397 11.31-9.758 9.669-17.122l-3.861-17.326c34.562 6.709 46.109 16.488 46.109 20.553 0 2.554-5.297 9.055-25.344 15.378-21.709 6.849-40.906 17.06-57.059 30.352-8.485 6.983-19.926 10.859-32.146 10.916-12.288-.057-23.729-3.933-32.214-10.916-16.153-13.292-35.35-23.503-57.059-30.352-20.046-6.324-25.343-12.825-25.343-15.378zm30.762 52.449c0-3.749 3.05-6.8 6.8-6.8h4.268l1.949 26.462c-7.557-2.542-13.016-9.694-13.016-18.098v-1.564zm-40.588 62.898 56.348-17.652c3.921 14.836 14.238 27.337 26.637 36.583v10.504c0 1.291-.356 2.549-1.028 3.632-2.08 3.348-2.171 7.614-.239 11.137l24.673 44.963c-14.602-8.697-27.687-19.9-38.502-33.054-21.665-26.349-41.389-35.926-67.889-56.113zm8.003 91.999c0-20.579 15.306-37.724 35.378-40.312 4.573 4.39 8.889 9.05 12.921 13.953 16.935 20.596 38.917 36.852 63.573 47.01 16.35 6.738 4.569 1.883 20.596 8.486 2.314.953 4.066 2.785 4.937 5.02h-137.405zm259.047 55.103-17.176 107.414c-.401 2.506-2.533 4.324-5.07 4.324h-181.256c-4.142 0-7.5 3.357-7.5 7.5s3.358 7.5 7.5 7.5h202.338v4.48c0 3.546-2.885 6.431-6.431 6.431h-270.093c-3.546 0-6.431-2.885-6.431-6.431v-4.48h45.617c4.142 0 7.5-3.357 7.5-7.5s-3.358-7.5-7.5-7.5h-24.534c-2.537 0-4.669-1.818-5.07-4.324l-17.177-107.414c-.325-2.035.589-3.469 1.164-4.143.574-.673 1.845-1.803 3.906-1.803h275.144c2.061 0 3.332 1.13 3.906 1.803.574.674 1.488 2.108 1.163 4.143z"/><path d="m256.002 384.152c-17.312 0-31.396 12.605-31.396 28.099s14.084 28.1 31.396 28.1 31.396-12.605 31.396-28.1c0-15.494-14.084-28.099-31.396-28.099zm0 41.198c-9.041 0-16.396-5.876-16.396-13.1 0-7.223 7.355-13.099 16.396-13.099s16.396 5.876 16.396 13.099c0 7.224-7.355 13.1-16.396 13.1z"/></g></svg>