<svg height="512" viewBox="0 0 512 512" width="512" xmlns="http://www.w3.org/2000/svg"><g><g><path d="m360 168v72a72 72 0 0 1 -72 72h-64a72 72 0 0 1 -72-72v-72" fill="#ffdaaa"/><path d="m496 496h-480l18.75-73.63a80.021 80.021 0 0 1 60.44-56.31l104.81-22.06 54.35 64.85 57.65-64.85 104.81 22.06a80.021 80.021 0 0 1 60.44 56.31z" fill="#aa6100"/><path d="m140 168h12a0 0 0 0 1 0 0v64a0 0 0 0 1 0 0h-12a20 20 0 0 1 -20-20v-24a20 20 0 0 1 20-20z" fill="#ffdaaa"/><path d="m380 168h12a0 0 0 0 1 0 0v64a0 0 0 0 1 0 0h-12a20 20 0 0 1 -20-20v-24a20 20 0 0 1 20-20z" fill="#ffdaaa" transform="matrix(-1 0 0 -1 752 400)"/><path d="m254.35 408.85-6.35 7.15" fill="none"/><g fill="#ffdaaa"><path d="m152 184v-64a104 104 0 0 1 208 0v72"/><circle cx="240" cy="128" r="8"/><circle cx="240" cy="104" r="8"/><circle cx="240" cy="80" r="8"/><circle cx="272" cy="128" r="8"/><circle cx="272" cy="104" r="8"/><circle cx="272" cy="80" r="8"/></g></g><path d="m312 312v32l-57.65 64.85-54.35-64.85v-32z" fill="#ffdaaa"/><g><path d="m503.75 494.03-18.75-73.63c-.02-.08-.04-.15-.06-.23a87.824 87.824 0 0 0 -66.48-61.94l-98.46-20.72v-24.21a80.093 80.093 0 0 0 48-73.3h4a28.031 28.031 0 0 0 28-28v-24a28.031 28.031 0 0 0 -28-28h-4v-40a112 112 0 0 0 -224 0v40h-4a28.031 28.031 0 0 0 -28 28v24a28.031 28.031 0 0 0 28 28h4a80.093 80.093 0 0 0 48 73.3v24.21l-98.46 20.72a87.824 87.824 0 0 0 -66.48 61.94c-.02.08-.04.15-.06.23l-18.75 73.63a7.99 7.99 0 0 0 7.75 9.97h480a7.99 7.99 0 0 0 7.75-9.97zm-135.75-318.03h4a12.01 12.01 0 0 1 12 12v24a12.01 12.01 0 0 1 -12 12h-4zm-224 48h-4a12.01 12.01 0 0 1 -12-12v-24a12.01 12.01 0 0 1 12-12h4zm16 16v-120a96 96 0 0 1 192 0v120a64.072 64.072 0 0 1 -64 64h-64a64.072 64.072 0 0 1 -64-64zm144 78.39v22.6l-49.08 56.09-46.92-55.99v-22.7a80.321 80.321 0 0 0 16 1.61h64a80.321 80.321 0 0 0 16-1.61zm-24 169.61h-168v-32a8 8 0 0 0 -16 0v32h-69.71l16.18-63.54a71.868 71.868 0 0 1 54.37-50.57l100.11-21.07 83.05 99.09zm136 0v-32a8 8 0 0 0 -16 0v32h-104v-39a7.987 7.987 0 0 0 -1.87-5.14l-28.8-34.37 49.61-56.7 100.22 21.1a71.868 71.868 0 0 1 54.37 50.57l16.18 63.54z"/><path d="m224 264a8 8 0 0 0 8 8h48a8 8 0 0 0 0-16h-48a8 8 0 0 0 -8 8z"/><path d="m232 184a8 8 0 0 0 -8-8h-32a8 8 0 0 0 0 16h32a8 8 0 0 0 8-8z"/><path d="m288 192h32a8 8 0 0 0 0-16h-32a8 8 0 0 0 0 16z"/><circle cx="240" cy="128" r="8"/><circle cx="240" cy="104" r="8"/><circle cx="240" cy="80" r="8"/><circle cx="272" cy="128" r="8"/><circle cx="272" cy="104" r="8"/><circle cx="272" cy="80" r="8"/></g></g></svg>