<svg height="511pt" viewBox="0 -47 511.99961 511" width="511pt" xmlns="http://www.w3.org/2000/svg"><path d="m508.238281 114.03125c-10.683593-10.859375-19.644531-26.394531-19.695312-47.976562-.082031-36.054688-24.40625-65.554688-60.457031-65.554688h-103.167969v135.453125h174.242187c11.445313 0 17.105469-13.765625 9.078125-21.921875zm0 0" fill="#e0c1ad"/><path d="m324.917969.5v78.804688h164.851562c-.78125-4.144532-1.214843-8.546876-1.226562-13.253907-.082031-36.050781-24.40625-65.550781-60.457031-65.550781zm0 0" fill="#ccaa97"/><path d="m196.851562.5c-51.050781 0-92.433593 41.382812-92.433593 92.433594v324.585937h211.769531c27.578125 0 49.933594-22.355469 49.933594-49.933593v-305.121094c0-34.222656 27.742187-61.964844 61.964844-61.964844zm0 0" fill="#efd4bf"/><path d="m221.714844 342.671875-117.296875 1.050781v73.796875h211.769531c27.578125 0 49.933594-22.355469 49.933594-49.933593v-25.003907c-75.273438 7.675781-144.40625.089844-144.40625.089844zm0 0" fill="#e0c1ad"/><path d="m266.253906 367.582031v-36.128906c0-27.273437-22.113281-49.386719-49.390625-49.386719h-204.027343c-11.441407 0-17.101563 13.761719-9.074219 21.921875 10.683593 10.859375 19.644531 26.394531 19.695312 47.976563.082031 36.054687 29.222657 65.554687 65.273438 65.554687h227.457031c-27.578125 0-49.933594-22.355469-49.933594-49.9375zm0 0" fill="#fce6d4"/><g fill="#57565c"><path d="m318.363281 107.582031c-4.269531 0-7.726562-3.457031-7.726562-7.726562v-12.824219c0-4.269531 3.457031-7.726562 7.726562-7.726562 4.265625 0 7.726563 3.457031 7.726563 7.726562v12.824219c0 4.269531-3.460938 7.726562-7.726563 7.726562zm0 0"/><path d="m152.179688 107.582031c-4.269532 0-7.726563-3.457031-7.726563-7.726562v-12.824219c0-4.269531 3.457031-7.726562 7.726563-7.726562 4.265624 0 7.726562 3.457031 7.726562 7.726562v12.824219c0 4.269531-3.460938 7.726562-7.726562 7.726562zm0 0"/><path d="m235.269531 115.671875c-10 0-20-3.234375-28.34375-9.707031-3.371093-2.613282-3.984375-7.46875-1.367187-10.839844 2.613281-3.375 7.46875-3.988281 10.835937-1.371094 11.113281 8.621094 26.636719 8.621094 37.75 0 3.367188-2.613281 8.222657-2.003906 10.839844 1.371094 2.613281 3.371094 2 8.222656-1.371094 10.839844-8.34375 6.472656-18.34375 9.707031-28.34375 9.707031zm0 0"/></g><path d="m318.359375 175.25h-165.652344c-4.265625 0-7.726562-3.457031-7.726562-7.726562 0-4.265626 3.460937-7.726563 7.726562-7.726563h165.652344c4.269531 0 7.726563 3.460937 7.726563 7.726563 0 4.269531-3.457032 7.726562-7.726563 7.726562zm0 0" fill="#c49e90"/><path d="m318.359375 213.410156h-165.652344c-4.265625 0-7.726562-3.460937-7.726562-7.726562s3.460937-7.726563 7.726562-7.726563h165.652344c4.269531 0 7.726563 3.460938 7.726563 7.726563s-3.457032 7.726562-7.726563 7.726562zm0 0" fill="#c49e90"/><path d="m318.359375 251.570312h-85.269531c-4.269532 0-7.726563-3.460937-7.726563-7.726562 0-4.269531 3.457031-7.726562 7.726563-7.726562h85.269531c4.269531 0 7.726563 3.457031 7.726563 7.726562 0 4.265625-3.457032 7.726562-7.726563 7.726562zm0 0" fill="#c49e90"/><path d="m136.78125 354.339844c0-10.375-8.410156-18.785156-18.785156-18.785156h-96.441406c1.207031 5.039062 1.886718 10.492187 1.898437 16.410156.019531 7.398437 1.257813 14.511718 3.527344 21.160156h91.015625c10.375 0 18.785156-8.410156 18.785156-18.785156zm0 0" fill="#efd4bf"/><path d="m198.921875 373.125h-15.109375c-10.375 0-18.785156-8.410156-18.785156-18.785156s8.410156-18.785156 18.785156-18.785156h15.109375c10.375 0 18.785156 8.410156 18.785156 18.785156s-8.410156 18.785156-18.785156 18.785156zm0 0" fill="#efd4bf"/></svg>