<svg id="Layer_1" enable-background="new 0 0 512 512" height="512" viewBox="0 0 512 512" width="512" xmlns="http://www.w3.org/2000/svg"><g id="XMLID_1_"><path id="XMLID_1222_" d="m10 390.042h50.907c21.405-34.552 59.656-57.571 103.288-57.571s81.883 23.019 103.288 57.571h65.44c15.452 0 27.979 12.527 27.979 27.979s-12.527 27.979-27.979 27.979h9.011c21.442 0 40.34-15.201 44.935-36.145l15.911-72.522c3.314-15.104 18.246-24.662 33.35-21.349 15.104 3.314 24.663 18.245 21.349 33.35l-15.911 72.522c-4.966 22.634-17.644 43.098-35.7 57.622-18.054 14.523-40.76 22.522-63.932 22.522h-331.936z" fill="#f3c9a6"/><g id="XMLID_3862_"><path id="XMLID_3864_" d="m168.642 186.341c0 69.936 56.694 126.631 126.63 126.631 69.936 0 126.63-56.694 126.63-126.63 0-51.678-14.576-90.058-52.199-141.13 12.436 58.102-26.261 99.249-26.261 99.249s31.844-93.258-57.704-134.461c11.645 27.722 9.534 50.68-14.638 70.743-33.618 27.903-34.793 72.731-34.793 72.731s9.168-56.53-37.699-100.531c0 80.74-29.966 81.72-29.966 133.398z" fill="#c193dc"/></g><path id="XMLID_3861_" d="m337.223 242.617c-13.133-22.62-28.57-45.634-22.693-70.95-23.586 9.229-36.917 37.613-33.584 49.57-8.46-22.908-27.431-24.959-27.431-24.959s9.739 22.533-2.309 47.211c-2.972 6.298-4.645 13.345-4.645 20.771 0 26.903 21.809 48.712 48.712 48.712s48.711-21.809 48.711-48.712c0-6.756-2.766-14.358-6.761-21.643z" fill="#ffcd69"/><g id="XMLID_214_"><path id="XMLID_776_" d="m438.273 306.216c-20.465-4.49-40.77 8.51-45.26 28.974l-15.911 72.522c-1.124 5.121-3.34 9.804-6.368 13.822.107-1.158.169-2.328.169-3.513 0-20.942-17.038-37.979-37.979-37.979h-60.01c-24.542-36.156-64.773-57.571-108.718-57.571s-84.176 21.415-108.718 57.571h-45.478c-5.523 0-10 4.477-10 10s4.477 10 10 10h50.907c3.462 0 6.678-1.791 8.501-4.733 20.496-33.085 55.931-52.837 94.787-52.837 38.857 0 74.292 19.752 94.787 52.837 1.823 2.943 5.039 4.734 8.501 4.734h65.44c9.914 0 17.979 8.065 17.979 17.979s-8.064 17.978-17.978 17.978h-108.688c-5.523 0-10 4.477-10 10s4.477 10 10 10h117.7c26.103 0 49.109-18.505 54.702-44.002l15.911-72.522c2.127-9.693 11.745-15.85 21.439-13.725 9.694 2.127 15.851 11.745 13.725 21.439l-15.911 72.522c-4.479 20.416-15.915 38.874-32.201 51.973-16.285 13.101-36.765 20.315-57.665 20.315h-331.936c-5.523 0-10 4.477-10 10s4.477 10 10 10h331.936c25.444 0 50.375-8.783 70.201-24.731 19.826-15.947 33.748-38.417 39.2-63.271l15.911-72.522c4.49-20.466-8.508-40.77-28.975-45.26z"/><path id="XMLID_1411_" d="m295.272 322.972c28.4 0 55.632-8.633 78.752-24.966 22.6-15.966 39.642-38.052 49.284-63.871 1.932-5.174-.696-10.935-5.87-12.867-5.176-1.932-10.935.697-12.867 5.87-10.425 27.917-31.081 50.181-56.711 63.187 3.911-7.859 6.123-16.706 6.123-26.065 0-7.879-2.689-16.779-7.992-26.451-.04-.071-.08-.143-.121-.213-1.109-1.911-2.235-3.825-3.363-5.743-11.684-19.861-22.719-38.62-18.237-57.925.839-3.615-.393-7.398-3.201-9.826-2.807-2.427-6.728-3.101-10.185-1.748-15.821 6.191-28.411 19.919-35.122 33.917-10.099-8.606-20.509-9.863-21.174-9.935-3.537-.383-7.025 1.114-9.137 3.979-2.111 2.864-2.554 6.605-1.143 9.872.318.763 7.673 18.917-2.091 38.916-.019.04-.039.08-.057.12-3.717 7.875-5.601 16.3-5.601 25.039 0 9.411 2.238 18.305 6.191 26.197-37.999-19.247-64.11-58.688-64.11-104.116 0-20.792 5.115-31.986 11.592-46.158 6.875-15.046 14.484-31.697 17.273-61.73 18.871 27.29 20.027 55.485 19.409 67.933-.266 5.364 3.752 9.98 9.101 10.456 5.35.476 10.119-3.357 10.805-8.684 1.485-11.536 7.445-40.446 30.665-59.719 19.28-16.002 27.396-34.964 24.481-57.516 20.907 15.234 33.051 36.078 36.188 62.213 3.121 26.005-4.11 47.895-4.177 48.093-1.522 4.456.271 9.37 4.306 11.799s9.216 1.714 12.442-1.716c1.355-1.441 26.553-28.778 30.846-70.71 13.536 22.29 21.695 42.191 26.141 63.04 1.151 5.401 6.463 8.848 11.866 7.695 5.401-1.152 8.846-6.464 7.695-11.866-6.935-32.523-21.745-62.487-49.52-100.19-2.795-3.792-7.858-5.123-12.155-3.188-4.297 1.934-6.661 6.604-5.674 11.212 3.828 17.887 2.254 34.104-1.474 47.704-.099-1.142-.213-2.295-.345-3.455-3.239-28.525-17.699-67.405-68.188-90.637-3.747-1.724-8.166-.971-11.132 1.896-2.964 2.867-3.865 7.259-2.268 11.061 10.78 25.663 7.25 43.36-11.805 59.176-10.52 8.731-18.157 18.949-23.699 29.072-5.604-18.037-16.143-38.236-35.562-56.468-2.907-2.728-7.157-3.47-10.817-1.887-3.659 1.583-6.028 5.19-6.028 9.177 0 42.678-8.421 61.105-16.564 78.926-6.892 15.082-13.401 29.326-13.401 54.472.001 75.336 61.293 136.628 136.631 136.628zm-38.711-58.712c0-5.745 1.232-11.278 3.663-16.449 5.524-11.346 7.112-22.295 6.993-31.427 1.617 2.249 3.118 4.985 4.348 8.317 1.858 5.031 7.356 7.703 12.458 6.05 5.104-1.65 7.996-7.033 6.556-12.2-1.166-4.184 3.201-17.642 13.169-27.822 2.319 18.62 12.366 35.699 21.522 51.264 1.088 1.849 2.173 3.694 3.243 5.536 3.58 6.554 5.472 12.336 5.472 16.73 0 21.346-17.366 38.711-38.711 38.711s-38.713-17.364-38.713-38.71z"/><path id="XMLID_1412_" d="m502 22.525h-12.525v-12.525c0-5.523-4.477-10-10-10s-10 4.477-10 10v12.525h-12.525c-5.523 0-10 4.477-10 10s4.477 10 10 10h12.525v12.525c0 5.523 4.477 10 10 10s10-4.477 10-10v-12.525h12.525c5.523 0 10-4.477 10-10s-4.477-10-10-10z"/><path id="XMLID_1414_" d="m60.283 266.127h12.525v12.525c0 5.523 4.477 10 10 10s10-4.477 10-10v-12.525h12.525c5.523 0 10-4.477 10-10s-4.477-10-10-10h-12.524v-12.525c0-5.523-4.477-10-10-10s-10 4.477-10 10v12.525h-12.526c-5.523 0-10 4.477-10 10s4.477 10 10 10z"/><path id="XMLID_1429_" d="m414.83 179.27c-1.86 1.86-2.93 4.44-2.93 7.07s1.07 5.21 2.93 7.07 4.44 2.93 7.07 2.93c2.64 0 5.21-1.07 7.07-2.93s2.93-4.44 2.93-7.07-1.07-5.21-2.93-7.07-4.43-2.93-7.07-2.93c-2.63 0-5.21 1.07-7.07 2.93z"/></g></g></svg>