<svg id="Capa_1" enable-background="new 0 0 512 512" height="512" viewBox="0 0 512 512" width="512" xmlns="http://www.w3.org/2000/svg"><path d="m401.727 206.616c-9.794-.435-18.944 2.196-26.585 7.007-3.595 2.263-8.141 2.263-11.736 0-7.641-4.811-16.792-7.442-26.585-7.007-22.915 1.018-43.073 21.315-43.94 44.236-.993 26.258 19.999 47.858 46.036 47.858 4.071 0 8.018-.529 11.777-1.522 12.208-3.225 24.953-3.225 37.161 0 3.759.993 7.705 1.522 11.777 1.522 26.037 0 47.029-21.599 46.036-47.857-.868-22.922-21.027-43.219-43.941-44.237z" fill="#e4c8f2"/><path d="m445.667 250.852c-.815-21.539-18.666-40.758-39.831-43.842 3.852 6.366 6.223 13.596 6.507 21.115.993 26.258-19.999 47.857-46.036 47.857-4.071 0-8.018-.529-11.777-1.522-12.208-3.225-24.953-3.225-37.161 0-3.759.993-7.705 1.522-11.777 1.522-2.271 0-4.501-.174-6.685-.491 7.94 13.871 22.882 23.218 40.009 23.218 4.071 0 8.018-.529 11.777-1.522 12.208-3.225 24.953-3.225 37.161 0 3.759.993 7.706 1.522 11.777 1.522 26.037.001 47.029-21.599 46.036-47.857z" fill="#d5b0ec"/><path d="m274.937 289.365h-.186c-40.717 0-73.724-33.007-73.724-73.724v-7.68c0-40.717 33.007-73.724 73.724-73.724h.186c40.717 0 73.724 33.007 73.724 73.724v7.68c0 40.717-33.008 73.724-73.724 73.724z" fill="#554e57"/><path d="m302.732 138.472c6.835 10.805 10.807 23.601 10.807 37.332v15.223c0 38.634-31.319 69.953-69.953 69.953h-7.729c-8.441 0-16.532-1.496-24.024-4.235 12.396 19.597 34.244 32.62 59.146 32.62h7.729c38.634 0 69.953-31.319 69.953-69.953v-15.223c0-30.193-19.129-55.918-45.929-65.717z" fill="#453e43"/><path d="m359.258 113.889v-99.816c0-5.328-6.011-8.426-10.356-5.342-10.356 7.352-26.213 20.239-36.771 36.429-.457.7-1.346.957-2.105.608-10.711-4.913-22.626-7.653-35.182-7.653-12.575 0-24.508 2.748-35.231 7.676-.76.349-1.65.093-2.107-.608-10.558-16.201-26.424-29.096-36.785-36.451-4.345-3.085-10.356.013-10.356 5.342v99.816 8.706c0 35.561 49.075 61.769 72.418 72.224 7.678 3.439 16.446 3.439 24.124 0 23.343-10.455 72.418-36.663 72.418-72.224-.002-1.062-.067-8.707-.067-8.707z" fill="#695e66"/><path d="m359.258 113.889v-99.816c0-5.329-6.011-8.427-10.356-5.342-6.005 4.262-13.856 10.396-21.454 17.945v76.684s.065 7.645.065 8.706c0 35.56-49.075 61.769-72.418 72.224-2.834 1.269-5.817 2.067-8.839 2.399 6.14 3.307 11.849 6.035 16.525 8.129 7.678 3.439 16.446 3.439 24.124 0 23.343-10.455 72.418-36.663 72.418-72.224 0-1.06-.065-8.705-.065-8.705z" fill="#453e43"/><path d="m308.398 256.118c-5.125-.127-10.064.587-14.693 2.01-4.615 1.419-9.582-.472-12.236-4.505-10.919-16.588-29.696-27.541-51.041-27.541-21.344 0-40.122 10.953-51.041 27.541-2.655 4.033-7.621 5.924-12.236 4.505-4.629-1.423-9.568-2.138-14.693-2.01-24.161.6-44.003 20.2-44.873 44.353-.945 26.22 20.03 47.773 46.039 47.773 5.156 0 10.112-.848 14.74-2.411 14.27-4.821 29.708-4.705 44.105-.276 5.678 1.747 11.708 2.687 17.959 2.687s12.282-.941 17.959-2.687c14.397-4.429 29.835-4.545 44.105.276 4.627 1.563 9.584 2.411 14.74 2.411 26.009 0 46.984-21.553 46.039-47.773-.87-24.153-20.712-43.753-44.873-44.353z" fill="#e4c8f2"/><path d="m353.272 300.471c-.804-22.307-17.794-40.717-39.419-43.876 3.627 6.285 5.819 13.486 6.095 21.149.945 26.22-20.03 47.772-46.039 47.772-5.155 0-10.112-.848-14.74-2.411-14.27-4.821-29.708-4.705-44.105-.276-5.677 1.746-11.708 2.687-17.959 2.687s-12.282-.94-17.959-2.687c-14.397-4.429-29.835-4.545-44.105.276-4.627 1.563-9.584 2.411-14.74 2.411-2.271 0-4.5-.174-6.683-.491 7.94 13.87 22.881 23.218 40.008 23.218 5.156 0 10.112-.848 14.74-2.411 14.27-4.821 29.708-4.705 44.105-.276 5.677 1.746 11.708 2.687 17.959 2.687s12.282-.94 17.959-2.687c14.397-4.429 29.835-4.545 44.105.276 4.627 1.563 9.584 2.411 14.739 2.411 26.008.001 46.983-21.552 46.039-47.772z" fill="#d5b0ec"/><path d="m435.502 40.872 1.95 7.966c3.161 12.913 12.135 22.015 24.292 27.394 1.151.767 1.151 2.458 0 3.226-12.157 5.379-21.131 14.481-24.292 27.394l-1.95 7.966c-.401 1.639-2.732 1.639-3.133 0l-1.95-7.966c-3.161-12.913-12.135-22.015-24.292-27.394-1.151-.767-1.151-2.458 0-3.226 12.157-5.379 21.131-14.481 24.292-27.394l1.95-7.966c.401-1.639 2.731-1.639 3.133 0z" fill="#fbd307"/><path d="m443.33 76.232c-7.705-3.409-14.124-8.318-18.602-14.74-4.478 6.422-10.897 11.331-18.602 14.74-1.151.767-1.151 2.459 0 3.226 7.705 3.409 14.124 8.318 18.602 14.74 4.478-6.422 10.897-11.331 18.602-14.74 1.151-.768 1.151-2.459 0-3.226z" fill="#fce25c"/><path d="m128.183 133.356 1.95 7.966c3.161 12.913 12.135 22.015 24.292 27.394 1.151.767 1.151 2.458 0 3.226-12.157 5.379-21.131 14.481-24.292 27.394l-1.95 7.966c-.401 1.639-2.732 1.639-3.133 0l-1.95-7.966c-3.161-12.913-12.135-22.015-24.292-27.394-1.151-.767-1.151-2.458 0-3.226 12.157-5.379 21.131-14.481 24.292-27.394l1.95-7.966c.401-1.639 2.732-1.639 3.133 0z" fill="#fbd307"/><path d="m136.011 168.715c-7.705-3.409-14.124-8.318-18.602-14.74-4.478 6.422-10.897 11.331-18.602 14.74-1.151.767-1.151 2.459 0 3.226 7.705 3.409 14.124 8.318 18.602 14.74 4.478-6.422 10.897-11.331 18.602-14.74 1.151-.767 1.151-2.458 0-3.226z" fill="#fce25c"/><path d="m79.632 195.706 1.95 7.966c3.161 12.913 12.135 22.015 24.292 27.394 1.151.767 1.151 2.459 0 3.226-12.157 5.379-21.131 14.481-24.292 27.394l-1.95 7.966c-.401 1.639-2.732 1.639-3.133 0l-1.95-7.966c-3.161-12.913-12.135-22.015-24.292-27.394-1.151-.767-1.151-2.458 0-3.226 12.157-5.379 21.131-14.481 24.292-27.394l1.95-7.966c.401-1.639 2.731-1.639 3.133 0z" fill="#fbd307"/><path d="m87.46 231.066c-7.705-3.409-14.124-8.318-18.602-14.74-4.478 6.422-10.897 11.331-18.602 14.74-1.151.767-1.151 2.459 0 3.226 7.705 3.409 14.124 8.318 18.602 14.74 4.478-6.422 10.897-11.331 18.602-14.74 1.151-.768 1.151-2.459 0-3.226z" fill="#fce25c"/><path d="m454.278 478.541h-311.607c-22.56 0-40.848-18.288-40.848-40.848v-12.619c0-22.56 18.288-40.848 40.848-40.848h311.607s-10.141 25.4-10.141 47.157 10.141 47.158 10.141 47.158z" fill="#eedfda"/><path d="m454.278 384.226h-35.751s-10.141 25.4-10.141 47.157 10.141 47.157 10.141 47.157h35.751s-10.141-25.4-10.141-47.157c0-21.756 10.141-47.157 10.141-47.157z" fill="#ded0cb"/><path d="m203.538 503.907-21.076-15.414-21.076 15.414c-1.969 1.44-4.74.034-4.74-2.406v-73.812h51.631v73.812c0 2.44-2.77 3.846-4.739 2.406z" fill="#e7b467"/><path d="m182.462 427.689v60.804l21.076 15.414c1.969 1.44 4.74.034 4.74-2.406v-73.812z" fill="#d7a85f"/><path d="m251.11 117.883c.625-.707.625-1.769 0-2.477-2.4-2.717-8.724-8.962-16.147-8.962s-13.747 6.244-16.147 8.962c-.625.707-.625 1.769 0 2.477 2.4 2.717 8.724 8.962 16.147 8.962s13.746-6.245 16.147-8.962z"/><path d="m313.503 126.845c7.423 0 13.747-6.244 16.147-8.962.625-.707.625-1.769 0-2.477-2.4-2.717-8.724-8.962-16.147-8.962s-13.747 6.244-16.147 8.962c-.625.707-.625 1.769 0 2.477 2.4 2.717 8.724 8.962 16.147 8.962z"/><path d="m264.162 155.747c1.742 0 3.493-.603 4.913-1.833l5.768-4.996 5.769 4.997c3.136 2.714 7.878 2.372 10.593-.761 2.715-3.136 2.375-7.878-.76-10.593l-10.685-9.254c-2.822-2.443-7.011-2.444-9.833.001l-10.685 9.254c-3.135 2.714-3.475 7.458-.76 10.592 1.485 1.714 3.577 2.593 5.68 2.593z"/><path d="m152.273 248.611c-23.019.572-43.622 16.464-50.103 38.646-1.163 3.982 1.122 8.151 5.103 9.314 3.979 1.16 8.15-1.122 9.314-5.102 4.669-15.983 19.498-27.433 36.061-27.844 4.197-.116 8.33.46 12.298 1.681 7.708 2.368 16.227-.736 20.716-7.554 9.958-15.128 26.694-24.16 44.768-24.16s34.81 9.032 44.768 24.159c4.487 6.818 13.004 9.925 20.717 7.555 3.966-1.221 8.109-1.795 12.298-1.681 20.327.504 36.823 16.807 37.555 37.116.381 10.584-3.446 20.598-10.778 28.199-7.336 7.605-17.194 11.793-27.757 11.793-4.226 0-8.376-.679-12.336-2.016-15.533-5.247-32.379-5.363-48.716-.339-10.161 3.127-21.341 3.127-31.503 0-16.337-5.026-33.183-4.908-48.717.339-3.959 1.338-8.109 2.016-12.335 2.016-15.096 0-28.886-8.885-35.131-22.635-1.715-3.776-6.166-5.442-9.943-3.732-3.776 1.716-5.447 6.167-3.732 9.943 8.675 19.101 27.833 31.443 48.805 31.443 5.864 0 11.632-.945 17.143-2.806 12.53-4.231 26.187-4.307 39.494-.212 13.025 4.005 27.309 4.005 40.334 0 13.308-4.095 26.964-4.02 39.493.212 5.511 1.862 11.279 2.806 17.143 2.806 14.678 0 28.374-5.819 38.566-16.385 9.576-9.928 14.848-22.813 15.008-36.529 8.372-1.09 16.953-.551 25.13 1.609 4.448 1.175 9.056 1.771 13.694 1.771 14.696 0 28.404-5.832 38.599-16.419 10.191-10.585 15.497-24.517 14.941-39.231-1.01-26.706-24.416-50.269-51.111-51.454-10.979-.492-21.673 2.331-30.919 8.154-1.152.727-2.582.726-3.734 0-3.61-2.273-7.454-4.092-11.471-5.439-.94-12.461-4.703-24.408-11.053-35.127 12.752-12.341 21.951-27.127 21.951-44.108 0-1.064-.065-108.522-.065-108.522 0-5.284-2.915-10.072-7.608-12.496-4.697-2.426-10.292-2.03-14.605 1.031-10.643 7.555-25.113 19.433-35.93 34.401-10.738-4.251-22.079-6.403-33.782-6.403-11.723 0-23.081 2.158-33.832 6.422-10.819-14.977-25.296-26.861-35.944-34.419-4.312-3.062-9.908-3.457-14.604-1.032-4.693 2.424-7.609 7.212-7.609 12.496v108.522c0 15.224 7.383 29.995 21.974 44.077-7.411 12.504-11.312 26.697-11.312 41.382v7.494c0 4.407.363 8.802 1.064 13.128-8.456 5.19-15.815 12.236-21.465 20.82-.842 1.279-2.387 1.882-3.756 1.456-5.52-1.698-11.276-2.482-17.086-2.34zm226.869-28.634c6.647-4.184 14.345-6.208 22.252-5.86 18.873.839 36.055 18.137 36.769 37.018.401 10.598-3.417 20.63-10.751 28.247-7.338 7.621-17.204 11.818-27.781 11.818-3.345 0-6.662-.428-9.858-1.272-10.047-2.656-20.593-3.32-30.883-1.984-2.884-10.474-8.874-19.659-16.91-26.518 8.706-12.744 13.639-27.786 14.134-43.293 1.122.561 2.222 1.172 3.291 1.845 5.994 3.776 13.742 3.775 19.737-.001zm-170.606-4.429v-7.494c0-11.09 2.726-21.834 7.925-31.455 1.244.949 2.515 1.895 3.828 2.837 3.369 2.418 8.061 1.646 10.479-1.724 2.418-3.369 1.646-8.062-1.724-10.479-20.683-14.839-31.17-29.858-31.17-44.638v-106.663c8.876 6.451 23.677 18.523 33.342 33.354 2.51 3.846 7.359 5.246 11.532 3.328 10.093-4.638 20.891-6.989 32.096-6.989 11.186 0 21.97 2.345 32.054 6.971 4.174 1.913 9.018.509 11.524-3.333 9.265-14.207 22.953-25.807 33.328-33.332 0 0 .065 105.612.065 106.665 0 31.521-47.539 56.216-67.978 65.37-5.715 2.561-12.27 2.559-17.985 0-3.011-1.348-6.045-2.781-9.018-4.257-3.715-1.844-8.221-.329-10.066 3.385-1.845 3.715-.329 8.221 3.385 10.065 3.151 1.565 6.368 3.084 9.56 4.513 4.808 2.153 9.97 3.231 15.131 3.231s10.323-1.078 15.131-3.231c12.586-5.637 28.912-14.065 43.278-25.028 5.184 9.605 7.899 20.319 7.899 31.41v7.494c0 13.553-4.174 26.768-11.844 37.817-6.351-2.881-13.352-4.571-20.722-4.754-5.812-.14-11.567.641-17.086 2.34-1.372.418-2.916-.178-3.758-1.457-12.745-19.361-34.171-30.921-57.313-30.921-7.44 0-14.701 1.201-21.555 3.466-.209-2.154-.338-4.319-.338-6.491z"/><path d="m401.96 85.705c.358.239.735.446 1.128.62 10.846 4.799 17.587 12.306 20.036 22.312l1.95 7.967c1.003 4.093 4.646 6.952 8.861 6.952 4.214 0 7.858-2.859 8.861-6.953l1.949-7.966c2.45-10.007 9.191-17.513 20.037-22.312.393-.174.771-.381 1.128-.62 2.633-1.756 4.206-4.694 4.206-7.86 0-3.165-1.573-6.103-4.206-7.86-.358-.239-.735-.446-1.128-.62-10.846-4.799-17.587-12.306-20.036-22.312l-1.95-7.966v-.001c-1.003-4.093-4.646-6.952-8.86-6.952-4.215 0-7.858 2.859-8.861 6.953l-1.951 7.966c-2.449 10.007-9.19 17.513-20.036 22.312-.393.174-.771.381-1.128.62-2.634 1.756-4.206 4.694-4.206 7.86 0 3.165 1.572 6.103 4.206 7.86zm31.975-24.924c3.477 6.75 8.622 12.496 15.283 17.064-6.661 4.567-11.806 10.314-15.283 17.063-3.476-6.75-8.621-12.496-15.282-17.063 6.661-4.568 11.806-10.315 15.282-17.064z"/><path d="m94.641 178.188c.358.239.735.446 1.128.62 10.846 4.799 17.587 12.306 20.036 22.312l1.95 7.967c1.003 4.093 4.646 6.952 8.861 6.952 4.214 0 7.858-2.859 8.86-6.953l1.951-7.966c2.449-10.007 9.19-17.513 20.036-22.312.393-.174.77-.381 1.128-.62 2.633-1.756 4.206-4.694 4.206-7.861 0-3.165-1.573-6.103-4.206-7.86-.358-.239-.735-.446-1.128-.62-10.846-4.799-17.587-12.306-20.036-22.312l-1.95-7.966c0-.001 0-.001 0-.001-1.003-4.093-4.646-6.952-8.86-6.952-4.215 0-7.858 2.859-8.861 6.953l-1.949 7.966c-2.45 10.007-9.191 17.513-20.037 22.312-.393.174-.771.381-1.128.62-2.634 1.756-4.206 4.694-4.206 7.86-.001 3.167 1.571 6.105 4.205 7.861zm31.975-24.924c3.476 6.75 8.621 12.496 15.282 17.064-6.661 4.567-11.806 10.314-15.282 17.064-3.477-6.75-8.622-12.496-15.283-17.064 6.662-4.567 11.807-10.314 15.283-17.064z"/><path d="m108.912 241.158c.393-.174.771-.381 1.128-.62 2.633-1.756 4.206-4.694 4.206-7.86 0-3.165-1.573-6.103-4.206-7.86-.358-.239-.735-.446-1.128-.62-10.845-4.799-17.587-12.306-20.036-22.312l-1.95-7.966c-1.002-4.093-4.645-6.952-8.859-6.953-.001 0-.001 0-.001 0-4.214 0-7.858 2.859-8.861 6.953l-1.949 7.966c-2.45 10.007-9.191 17.513-20.037 22.312-.393.174-.771.381-1.128.62-2.634 1.756-4.206 4.694-4.206 7.86s1.572 6.104 4.206 7.86c.358.239.735.446 1.128.62 10.846 4.799 17.587 12.306 20.036 22.312l1.95 7.967c1.003 4.094 4.647 6.953 8.862 6.952s7.858-2.86 8.859-6.953l1.95-7.966c2.449-10.006 9.191-17.513 20.036-22.312zm-36.574-43.667.003.015c-.001-.006-.002-.011-.003-.015-.001-.001-.001 0 0 0zm5.727 52.251c-3.477-6.75-8.622-12.496-15.283-17.063 6.661-4.568 11.806-10.315 15.283-17.064 3.477 6.75 8.621 12.496 15.282 17.064-6.661 4.567-11.805 10.314-15.282 17.063z"/><path d="m459.538 391.736h1.287c4.147 0 7.509-3.362 7.509-7.509 0-4.148-3.362-7.509-7.509-7.509h-318.154c-26.664 0-48.357 21.692-48.357 48.357v12.619c0 26.664 21.693 48.357 48.357 48.357h6.466v15.451c0 3.972 2.2 7.555 5.742 9.354s7.734 1.46 10.94-.886l16.644-12.172 16.644 12.173c1.839 1.344 4.003 2.03 6.183 2.03 1.619 0 3.247-.378 4.756-1.145 3.542-1.798 5.742-5.382 5.742-9.354v-15.452h245.037c4.147 0 7.509-3.362 7.509-7.509 0-4.148-3.362-7.509-7.509-7.509h-1.287c-2.763-8.042-7.891-24.948-7.891-39.648s5.128-31.607 7.891-39.648zm-243.751 79.295v-8.1c0-4.148-3.362-7.509-7.509-7.509s-7.509 3.362-7.509 7.509v29.647l-13.873-10.146c-2.639-1.929-6.226-1.93-8.866 0l-13.873 10.146v-57.379l148.246-.134c4.147 0 7.509-3.362 7.509-7.509s-3.362-7.509-7.509-7.509h-171.197c-4.147 0-7.509 3.362-7.509 7.509s3.362 7.509 7.509 7.509h7.931v35.966h-6.466c-18.383 0-33.338-14.955-33.338-33.338v-12.619c0-18.383 14.955-33.338 33.338-33.338h301.045c-3.104 9.877-7.088 25.34-7.088 39.648s3.984 29.771 7.088 39.648h-227.929z"/><path d="m366.508 445.679h-116.352c-4.147 0-7.509 3.362-7.509 7.509 0 4.148 3.362 7.509 7.509 7.509h116.352c4.147 0 7.509-3.362 7.509-7.509 0-4.148-3.362-7.509-7.509-7.509z"/></svg>