<svg height="512pt" viewBox="0 -6 512.00014 512" width="512pt" xmlns="http://www.w3.org/2000/svg"><path d="m86.445312 361.300781c-25.589843-12.546875-40.238281-30.28125-43.539062-52.699219-3.175781-21.558593 4.617188-45.859374 23.160156-72.234374 13.019532-18.519532 26.789063-31.382813 27.367188-31.921876l20.167968 21.714844c-12.953124 12.089844-45.605468 49.660156-41.375 78.160156 1.832032 12.339844 10.75 22.277344 27.269532 30.378907zm27.15625-135.140625-10.085937-10.855468 10.097656 10.84375c-.003906.003906-.007812.007812-.011719.011718zm0 0" fill="#f5c956"/><path d="m140.984375 78.644531-26.269531-12.984375-36.546875 31.78125-38.097657 20.820313-11.644531 21.898437 11.277344 20.632813c1.171875 2.148437 3.355469 3.558593 5.792969 3.746093 49.546875 3.796876 56.714844-69.960937 108.554687-61.976562zm0 0" fill="#4eb229"/><path d="m114.84375 30.8125c-49.019531-7.546875-58.101562 57.980469-100.828125 61.929688-5.175781.480468-8.175781 6.085937-5.683594 10.644531l7.019531 12.851562 24.71875 2.023438 38.097657-20.820313 49.742187-42.714844zm0 0" fill="#ff6f7f"/><path d="m127.910156 54.726562 13.074219 23.917969c-53.207031-8.191406-59.363281 69.710938-112.558594 61.515625l-13.074219-23.921875c53.203126 8.203125 59.355469-69.703125 112.558594-61.511719zm0 0" fill="#f8e86a"/><path d="m119.472656 11.214844c-1.925781-3.523438-6.339844-4.816406-9.863281-2.894532l-13.246094 7.242188c-3.523437 1.925781-4.820312 6.339844-2.894531 9.863281l205.820312 376.617188 26.003907-14.210938zm0 0" fill="#f5c956"/><path d="m183.859375 492.542969c-8.519531 0-16.972656-3.65625-22.832031-10.726563-43.925782-53.011718-47.46875-109.089844-47.597656-111.453125l59.171874-3.242187-.011718-.21875c.027344.394531 3.113281 39.738281 34.070312 77.101562 10.441406 12.601563 8.691406 31.28125-3.914062 41.722656-5.527344 4.582032-12.226563 6.816407-18.886719 6.816407zm0 0" fill="#f5c956"/><path d="m438.835938 52.289062c-22.851563 3.203126-35.210938 13.382813-35.210938 13.382813l-26.050781-30.59375c-2.65625-3.121094-7.480469-3.121094-10.136719 0l-26.050781 30.59375s-12.359375-10.179687-35.210938-13.382813c-5.304687-.746093-9.316406 4.714844-7.042969 9.566407 6.902344 14.703125 18.15625 41.285156 17.066407 56.167969h112.613281c-1.089844-14.882813 10.164062-41.464844 17.066406-56.167969 2.277344-4.851563-1.734375-10.3125-7.042968-9.566407zm0 0" fill="#f5c956"/><path d="m336.207031 108.019531c1-13.695312-8.449219-37.292969-15.339843-52.429687-4.269532-1.347656-9.171876-2.527344-14.691407-3.300782-5.304687-.746093-9.316406 4.714844-7.042969 9.5625 6.898438 14.707032 18.15625 41.289063 17.066407 56.167969zm0 0" fill="#f7ac3e"/><path d="m285.796875 424.867188c7.066406 17.511718 17.757813 37.4375 33.925781 56.949218 5.859375 7.070313 14.316406 10.726563 22.835938 10.726563 6.660156 0 13.359375-2.234375 18.886718-6.816407 9.632813-7.980468 12.917969-20.773437 9.273438-31.984374zm0 0" fill="#f5c956"/><path d="m254.507812 102.71875c-3.949218.707031-7.269531 3.355469-8.925781 7.007812-4.757812 10.492188-11.605469 35.023438 8.101563 65.761719l49.449218-60.28125s-23.9375-16.894531-48.625-12.488281zm0 0" fill="#f8e86a"/><path d="m490.507812 102.71875c3.945313.707031 7.265626 3.355469 8.921876 7.007812 4.757812 10.492188 11.605468 35.023438-8.097657 65.761719l-49.453125-60.28125s23.9375-16.894531 48.628906-12.488281zm0 0" fill="#f8e86a"/><path d="m503.769531 144.167969c-8.1875-14.199219-18.171875-26.722657-29.488281-36.421875-1.703125-1.460938-3.441406-2.878906-5.21875-4.253906-15.476562 3.464843-27.183594 11.714843-27.183594 11.714843l49.453125 60.277344c7.328125-11.429687 10.980469-22.003906 12.4375-31.316406zm0 0" fill="#f5c956"/><path d="m241.242188 144.167969c1.457031 9.3125 5.109374 19.886719 12.441406 31.320312l49.449218-60.28125s-11.703124-8.25-27.183593-11.710937c-1.773438 1.375-3.515625 2.789062-5.21875 4.25-11.316407 9.699218-21.300781 22.222656-29.488281 36.421875zm0 0" fill="#f5c956"/><g fill="#f7ac3e"><path d="m214.863281 247.558594 84.425781 154.484375 26.003907-14.210938-81.109375-148.414062c-6.679688 4.773437-15.992188 7.335937-29.320313 8.140625zm0 0"/><path d="m72.226562 304.320312c-.730468-4.921874-.339843-10.109374.835938-15.394531-9.730469 12.40625-16.375 27.628907-19.882812 45.589844 7.402343 10.585937 18.511718 19.550781 33.265624 26.785156l13.050782-26.601562c-16.515625-8.101563-25.4375-18.039063-27.269532-30.378907zm0 0"/><path d="m370.71875 453.742188-84.925781-28.875c5.234375 12.96875 12.464843 27.257812 22.425781 41.726562 16.640625 5.859375 35.886719 10.589844 57.460938 12.613281.507812.046875 1.019531.074219 1.527343.105469 5.027344-7.550781 6.292969-17.015625 3.511719-25.570312zm0 0"/><path d="m134.4375 441.097656c23.960938 8.292969 50.023438 12.824219 77.859375 13.523438-1.101563-3.777344-2.96875-7.398438-5.636719-10.617188-30.957031-37.363281-34.042968-76.707031-34.070312-77.101562l.015625.21875-59.175781 3.242187c.09375 1.753907 2.074218 33.054688 21.007812 70.734375zm0 0"/></g><path d="m381.550781 395.304688c-17.386719-1.628907-32.335937-5.953126-44.390625-10.835938 12.675782-16.484375 15.835938-31.15625 15.835938-31.15625l-77.765625-102.976562c-26.480469 36.339843-77.558594 26.21875-111.777344 26.21875s-88.21875 9.21875-88.21875 90.566406c-.019531.382812-2.96875 39.363281-34.054687 76.882812-10.441407 12.601563-8.691407 31.28125 3.910156 41.722656 5.53125 4.582032 12.230468 6.816407 18.890625 6.816407 8.519531 0 16.972656-3.65625 22.832031-10.730469 21.820312-26.335938 33.675781-53.421875 40.09375-74.308594 24.140625 12.097656 57.375 22.21875 101.054688 22.21875 21.125 0 38.75-2.894531 53.453124-7.546875 18.738282 11.855469 51.4375 28.085938 94.605469 32.132813 9.144531.859375 17.707031-2.535156 23.730469-8.5625 4.707031-4.707032 7.867188-11.023438 8.535156-18.175782 1.53125-16.292968-10.441406-30.738281-26.734375-32.265624zm0 0" fill="#f8e86a"/><path d="m458.007812 126.730469c-23.621093-20.246094-54.691406-29.59375-85.5-29.59375-30.808593 0-61.882812 9.347656-85.503906 29.59375-44.511718 38.152343-65.582031 132.679687-15.707031 175.160156 21.433594 18.25 47.675781 29.542969 71.320313 44.464844 7.371093 4.648437 14.691406 9.660156 21 15.722656 2.382812 2.296875 5.582031 3.550781 8.890624 3.550781 3.308594 0 6.503907-1.253906 8.886719-3.550781 6.308594-6.0625 13.632813-11.074219 21-15.722656 23.648438-14.921875 49.890625-26.214844 71.320313-44.464844 49.875-42.480469 28.808594-137.007813-15.707032-175.160156zm0 0" fill="#ff6f7f"/><path d="m458.410156 173.671875c-15.429687-33.390625-49.015625-58.191406-82.648437-28.371094-1.867188 1.652344-4.644531 1.652344-6.507813 0-33.636718-29.820312-67.222656-5.019531-82.652344 28.371094-15.929687 34.46875-39.824218 138.414063 85.90625 138.414063 125.726563 0 101.832032-103.945313 85.902344-138.414063zm0 0" fill="#f8e86a"/><path d="m133.871094 184.949219c-17.058594-6.414063-37.039063-2.773438-50.761719 10.953125-5.640625 5.640625-9.578125 12.332031-11.8125 19.445312-6.179687 19.636719 12.539063 38.355469 32.175781 32.179688 7.113282-2.238282 13.808594-6.175782 19.445313-11.8125 13.726562-13.726563 17.367187-33.707032 10.953125-50.765625zm0 0" fill="#ff6f7f"/><path d="m320.296875 208.652344c-4.144531 0-7.503906 3.359375-7.503906 7.503906v9.449219c0 4.144531 3.359375 7.5 7.503906 7.5 4.140625 0 7.5-3.355469 7.5-7.5v-9.449219c0-4.144531-3.359375-7.503906-7.5-7.503906zm0 0"/><path d="m424.722656 208.652344c-4.140625 0-7.5 3.359375-7.5 7.503906v9.449219c0 4.144531 3.359375 7.5 7.5 7.5 4.144532 0 7.503906-3.355469 7.503906-7.5v-9.449219c0-4.144531-3.359374-7.503906-7.503906-7.503906zm0 0"/><path d="m406.941406 124.507812c-11.949218 0-23.519531 4.625-34.429687 13.761719-10.914063-9.136719-22.484375-13.761719-34.433594-13.761719-22.8125 0-45.144531 17.65625-58.28125 46.082032-11.089844 23.996094-23.757813 74.144531-.890625 109.902344 16.617188 25.988281 48.113281 39.164062 93.605469 39.164062 45.492187 0 76.984375-13.175781 93.601562-39.164062 22.867188-35.757813 10.199219-85.90625-.886719-109.902344-13.140624-28.425782-35.472656-46.082032-58.285156-46.082032zm46.53125 147.902344c-13.679687 21.394532-40.921875 32.242188-80.960937 32.242188-40.042969 0-67.28125-10.847656-80.964844-32.242188-19.414063-30.355468-7.265625-75.757812 1.867187-95.523437 10.492188-22.707031 28.027344-37.375 44.664063-37.375 8.800781 0 17.617187 3.855469 26.199219 11.46875 2.277344 2.019531 5.199218 3.128906 8.234375 3.128906 3.03125 0 5.953125-1.109375 8.230469-3.128906 8.585937-7.609375 17.398437-11.46875 26.199218-11.46875 16.640625 0 34.171875 14.667969 44.664063 37.375 9.132812 19.765625 21.277343 65.167969 1.867187 95.523437zm0 0"/><path d="m399.921875 239.5625c-3.117187-2.730469-7.859375-2.410156-10.585937.707031-1.335938 1.53125-3.375 2.410157-5.589844 2.410157s-4.25-.878907-5.589844-2.410157c-1.402344-1.609375-3.519531-2.554687-5.652344-2.554687-2.136718 0-4.234375.945312-5.640625 2.554687-1.339843 1.53125-3.375 2.410157-5.589843 2.410157-2.214844 0-4.253907-.878907-5.589844-2.410157-2.726563-3.117187-7.46875-3.4375-10.585938-.707031-3.121094 2.726562-3.4375 7.464844-.710937 10.582031 4.1875 4.792969 10.339843 7.539063 16.886719 7.539063 4.015624 0 7.878906-1.039063 11.238281-2.941406 3.355469 1.902343 7.222656 2.941406 11.234375 2.941406 6.546875 0 12.699218-2.746094 16.886718-7.539063 2.726563-3.117187 2.410157-7.855469-.710937-10.582031zm0 0"/><path d="m372.511719 230.875c7.035156 0 12.738281-3.570312 12.738281-7.976562 0-4.402344-25.480469-4.402344-25.480469 0 0 4.40625 5.703125 7.976562 12.742188 7.976562zm0 0"/><path d="m506.265625 106.695312c-2.695313-5.9375-8.09375-10.160156-14.4375-11.292968-3.160156-.5625-6.457031-.847656-9.796875-.847656-17.554688 0-33.199219 7.789062-40.363281 11.992187-1.253907-.679687-2.523438-1.34375-3.804688-1.984375 3.21875-13.640625 10.441407-30.148438 14.808594-39.453125 2.085937-4.441406 1.757813-9.5625-.871094-13.699219-2.96875-4.675781-8.523437-7.253906-14.003906-6.480468-15.316406 2.144531-26.410156 7.238281-32.753906 10.902343l-21.753907-25.550781c-2.695312-3.164062-6.625-4.980469-10.78125-4.980469s-8.085937 1.816407-10.78125 4.980469l-21.753906 25.550781c-6.34375-3.664062-17.433594-8.757812-32.753906-10.902343-5.5-.773438-11.023438 1.789062-14.003906 6.480468-2.628906 4.136719-2.953125 9.257813-.871094 13.699219 4.367188 9.304687 11.589844 25.8125 14.808594 39.457031-1.28125.640625-2.546875 1.300782-3.804688 1.984375-7.164062-4.207031-22.808594-11.996093-40.359375-11.996093-3.339843 0-6.636719.285156-9.796875.851562-6.347656 1.128906-11.746094 5.351562-14.4375 11.292969-4.597656 10.128906-12.859375 36.730469 6.5625 69.574219-4.066406 10.808593-7.042968 22.179687-8.734375 33.65625l-110.523437-202.246094c-3.90625-7.144532-12.898438-9.78125-20.042969-5.878906l-13.25 7.242187c-6.601563 3.605469-9.339844 11.554687-6.640625 18.378906-13.597656 6.289063-23.578125 17.972657-33.269531 29.351563-11.84375 13.902344-23.027344 27.039062-39.527344 28.5625-10.332031.957031-16.566406 12.585937-11.578125 21.710937 0 0 31.359375 57.386719 31.375 57.410157 3.339844 6.113281 9.535156 7.785156 16.035156 7.789062 25.382813 0 40.761719-18.058594 54.332032-33.996094 9.171874-10.765625 17.910156-21.007812 28.945312-25.820312l49.8125 91.148437c1.988281 3.636719 6.542969 4.972657 10.179688 2.988281 3.636718-1.988281 4.972656-6.546874 2.984374-10.183593l-95.246093-174.285157 12.835937-7.015624 122.144532 223.503906c0 .015625.003906.03125.003906.046875.5 9.3125 1.988281 18.613281 4.707031 27.542969.019531.132812-5.425781 1.625-5.511719 1.449218l-24.910156-45.578125c-1.984375-3.636719-6.542969-4.976562-10.179688-2.984375-3.636718 1.984375-4.972656 6.542969-2.984374 10.179688l22.226562 40.671875c-18.355469 1.414062-36.683594-.796875-55.042969-.796875-25.738281 0-45.773437 5.28125-61.25 16.140625-8.675781 6.085937-15.722656 13.835937-21.136719 23.195312-.667968-1.664062-1.152343-3.378906-1.417968-5.171875-1.769532-11.914062 4.578125-28.535156 17.882812-47.054687 2.757813-.152344 5.503906-.632813 8.195313-1.480469 8.429687-2.648438 16.207031-7.375 22.496093-13.660156 15.339844-15.339844 20.3125-38.386719 12.671876-58.710938-.761719-2.023437-2.359376-3.621094-4.382813-4.378906-6.261719-2.355469-12.839844-3.550781-19.550781-3.550781-14.792969 0-28.699219 5.761719-39.15625 16.21875-6.289063 6.289062-11.011719 14.066406-13.664063 22.5-1.535156 4.886719-1.90625 9.910156-1.175781 14.765625-1.039062 1.402344-2.058594 2.800781-3.035156 4.1875-19.683594 28-27.90625 54.121094-24.441406 77.644531 2.9375 19.964844 13.84375 36.589844 32.425781 49.464844-.109375 2.5-.175781 5.042969-.179688 7.644531-.28125 2.972656-4.183593 38.441406-32.332031 72.414062-12.90625 15.578126-10.644531 39.402344 4.902344 52.285157 15.59375 12.917969 39.386718 10.667969 52.289062-4.902344 12.703125-15.335937 23.191406-32.101563 31.339844-50.078125 8.179688 18.023438 18.667969 34.808594 31.316406 50.078125 12.898438 15.566406 36.71875 17.800781 52.285156 4.902344 15.582032-12.914063 17.816407-36.703125 4.902344-52.285157-.691406-.839843-1.367187-1.699218-2.042968-2.554687 5.769531.363281 11.621093.558594 17.570312.558594 18.910156 0 36.386719-2.285157 52.023438-6.789063 8.535156 20.367188 19.945312 39.25 33.960937 56.167969 12.890625 15.554687 36.730469 17.792969 52.285156 4.898437 8.992188-7.445312 13.761719-18.359374 13.433594-29.578124 9.578125-.214844 18.570313-4.046876 25.390625-10.867188 6.09375-6.097656 9.894531-14.1875 10.703125-22.78125 1.886719-20.164062-13.378906-38.550781-33.507813-40.4375-11.367187-1.066406-22.5625-3.429688-33.398437-7.046875 3.507813-5.578125 6.019531-10.726563 7.78125-14.941406.601563.539062 1.203125 1.078125 1.78125 1.640625 7.742187 7.441406 20.445313 7.4375 28.179687 0 6.117188-5.882813 13.441407-10.777344 19.800782-14.789063 7.984375-5.039062 16.5-9.78125 24.738281-14.371093 16.144531-8.992188 32.839844-18.289063 47.445313-30.726563 9.4375-8.042969 16.917968-18.097656 22.226562-29.890625 1.703125-3.777344.019531-8.21875-3.761719-9.921875-3.777343-1.699219-8.21875-.015625-9.917969 3.761719-4.390624 9.753906-10.539062 18.039062-18.273437 24.628906-13.476563 11.476562-28.796875 20.007812-45.019531 29.042969-8.414063 4.6875-17.113282 9.53125-25.441406 14.789062-7 4.414063-15.109376 9.847657-22.195313 16.660157-2.011719 1.9375-5.371094 1.933593-7.378906 0-6.6875-6.425782-14.371094-11.730469-22.195313-16.660157-8.328125-5.257812-17.027344-10.101562-25.441406-14.789062-12.726562-7.089844-25.53125-14.175781-37.25-22.878907-23.109375-17.15625-33.925781-42.089843-33.976562-70.675781-.042969-27.910156 9.644531-57.839843 24.925781-80.007812.015625-.019531.03125-.042969.042969-.0625 11.695312-16.867188 27.945312-29.648438 46.96875-37.328125 13.285156-5.433594 28.046874-8.648438 43.246093-9.433594 4.933594-.257812 9.808594 0 14.738281 0 15.929688.824219 31.816407 4.300781 46.417969 10.78125 21.484375 9.535156 38.417969 25.417969 49.96875 45.816406 14.003907 24.832032 21.285157 56.230469 17.992188 83.675782-.496094 4.113281 2.4375 7.847656 6.554687 8.339843 4.117188.492188 7.847656-2.4375 8.339844-6.554687 2.765625-23.039063-.921875-48.050782-9.441406-70.707032 19.402344-32.839843 11.144531-59.429687 6.550781-69.5625zm-395.539063-30.710937c-12.945312 6.496094-22.507812 17.792969-31.734374 28.625-12.578126 14.769531-24.457032 28.71875-42.914063 28.71875-.976563 0-1.957031-.039063-2.929687-.113281l-4.953126-9.058594c15.699219-1.578125 28.804688-11.363281 39.292969-22.539062 11.976563-12.761719 22.164063-29.757813 38.808594-37.015626l5.839844 10.6875c-.472657.222657-.941407.460938-1.410157.695313zm-46.449218-9.476563c9.171875-10.769531 17.902344-21.023437 28.941406-25.835937l5.851562 10.703125c-13.621093 6.273438-23.625 18.132812-33.148437 29.316406-11.9375 14.015625-25.664063 30.128906-45.921875 28.46875l-4.875-8.917968c22.332031-2.246094 35.964844-18.253907 49.152344-33.734376zm27.792968 62.019532c-12.578124 14.769531-24.457031 28.71875-42.910156 28.71875-.960937 0-1.953125-.039063-2.941406-.109375l-4.953125-9.0625c9.890625-1.003907 19.027344-5.152344 26.890625-11.125 8.503906-6.460938 15.605469-14.789063 22.265625-22.609375 8.425781-9.894532 16.703125-20.5 28.945313-25.824219l5.84375 10.695313c-13.539063 6.300781-23.476563 17.96875-33.140626 29.316406zm214.445313-68.539063c19.339844 3.03125 30.03125 11.480469 30.109375 11.542969 3.160156 2.601562 7.824219 2.1875 10.480469-.929688l25.40625-29.835937 25.40625 29.835937c2.652343 3.117188 7.316406 3.53125 10.480469.929688.101562-.085938 10.808593-8.535156 30.109374-11.546875-5.140624 11.058594-11.214843 25.53125-14.609374 38.566406-14.871094-5.429687-31.089844-8.449219-47.976563-8.808593-.023437 0-.050781 0-.074219-.003907-2.226562-.042969-4.453125-.042969-6.675781 0-.027344 0-.050781.003907-.074219.003907-16.886718.359374-33.109375 3.378906-47.976562 8.808593-3.394532-13.03125-9.46875-27.503906-14.605469-38.5625zm-54.097656 52.90625c.652343-1.4375 1.925781-2.457031 3.410156-2.722656 2.292969-.40625 4.699219-.617187 7.160156-.617187 9.761719 0 19.0625 3.207031 25.742188 6.285156-4.578125 3.40625-8.917969 7.121094-12.925781 11.1875-8.722657 8.855468-16.378907 19.660156-22.632813 31.652344-8.898437-20.980469-4.636719-37.226563-.753906-45.785157zm-173.964844 104.769531c1.960937-6.222656 5.308594-11.738281 9.960937-16.390624 7.625-7.625 17.765626-11.820313 28.550782-11.820313 3.734375 0 7.410156.503906 10.96875 1.503906 3.921875 13.96875.046875 29.15625-10.316406 39.519531-4.652344 4.652344-10.164063 8.003907-16.390626 9.960938-13.542968 4.261719-27.015624-9.285156-22.773437-22.773438zm-8.742187 123.996094c-10.9375-9.507812-17.441407-20.929687-19.378907-34.082031-2.765625-18.761719 3.863281-40.167969 19.703125-63.675781 3.113282 3.839844 7.042969 6.957031 11.488282 9.105468-10.175782 15.390626-19.332032 34.832032-16.714844 52.480469 1.058594 7.125 4.058594 13.664063 8.9375 19.488281-1.753906 5.386719-3.070313 10.90625-4 16.492188-.011719.066406-.023438.125-.035156.191406zm131.175781 107.199219c7.699219 9.292969 6.355469 23.472656-2.921875 31.160156-9.289063 7.695313-23.476563 6.351563-31.160156-2.921875-14.523438-17.527344-26-37.203125-34.15625-58.546875 1.195312.523438 2.398437 1.035157 3.605468 1.539063 15.988282 6.667968 32.816406 11.222656 49.910156 13.96875.738282.121094 3.925782.179687 4.238282.648437 3.242187 4.910157 6.761718 9.65625 10.484375 14.152344zm155.777343 31.160156c-9.292968 7.699219-23.472656 6.355469-31.160156-2.921875-9.015625-10.878906-16.878906-22.632812-23.503906-35.113281 16.84375 7.835937 37.871094 15.058594 62.550781 18.585937.820313 7.3125-2.046875 14.605469-7.886719 19.449219zm-18.042968-127.253906c1.851562 1.167969 3.691406 2.359375 5.5 3.574219.039062.027344.078125.054687.117187.082031-1.84375 5.164063-5.71875 14.042969-13.023437 23.542969-2.984375 3.882812-1.398438 9.695312 3.132812 11.527344 14.902344 6.035156 30.550782 9.855468 46.503906 11.347656 11.988282 1.125 21.089844 12.132812 19.96875 24.101562-1.429687 15.25-15.714843 21.023438-29.226562 19.414063-36.429688-4.332031-64.667969-17.539063-81.9375-27.855469-.011719-.007812-.023438-.011719-.03125-.019531-1.457031-.871094-2.859375-1.730469-4.195312-2.578125-1.871094-1.179688-4.164063-1.480469-6.273438-.8125-15.09375 4.777344-32.316406 7.199218-51.191406 7.199218-11.058594 0-21.777344-.671874-32.148438-1.992187-.011718-.003906-.027344-.007813-.039062-.007813-22.71875-2.574218-45.058594-9.179687-65.503906-19.421874-4.09375-2.050782-9.191407.136718-10.53125 4.5-8.046876 26.164062-21.238282 50.652343-38.703126 71.730468-7.621093 9.195313-21.839843 10.644532-31.160156 2.917969-9.269531-7.679687-10.59375-21.898437-2.921875-31.15625 32.625-39.378906 35.75-80.851563 35.769531-81.257813.535157-9.675781.796876-19.058593 2.769532-28.601562.007812-.027344.011718-.054688.019531-.082031 4.046875-18.535157 12.511719-32.398438 25.304687-41.375 12.867188-9.03125 30.085938-13.417969 52.632813-13.417969 27.324219 0 55.253906 4.53125 81.871094-3.933594 3.546875 7.3125 7.980469 13.898438 13.21875 19.742188 21.570312 24.0625 53.261719 35.925781 80.078125 52.832031zm129.109375-227.210937c-3.527344-3.4375-11.386719-9.671876-11.460938-9.726563 6.652344-3.074219 15.9375-6.273437 25.761719-6.273437 2.460938 0 4.867188.210937 7.164062.617187 1.480469.265625 2.753907 1.28125 3.40625 2.722656 3.882813 8.554688 8.140626 24.796875-.746093 45.765625-6.574219-12.601562-14.730469-23.941406-24.125-33.105468zm0 0"/></svg>