<svg id="Capa_1" enable-background="new 0 0 512 512" height="512" viewBox="0 0 512 512" width="512" xmlns="http://www.w3.org/2000/svg"><g><circle cx="127.456" cy="406.057" fill="#fae0bd" r="54.432"/><circle cx="251.999" cy="471.008" fill="#fae0bd" r="40.992"/><path d="m421.841 139.319c0-.104.004-.208.004-.312 0-76.771-62.236-139.007-139.007-139.007-22.453 0-43.658 5.329-62.43 14.784-4.996 2.516-10.712 3.09-16.113 1.636-10.539-2.837-21.619-4.353-33.054-4.353-76.279 0-134.235 66.474-126.265 140.353.921 8.539-3.405 16.74-10.766 21.165-20.494 12.321-34.21 34.762-34.21 60.418 0 32.785 22.388 60.338 52.709 68.212 6.507 1.69 11.922 6.139 14.754 12.236 22.081 47.555 70.259 80.532 126.142 80.532 22.775 0 44.267-5.482 63.237-15.194 8.317-4.258 18.151-4.027 26.34.473 20.09 11.039 43.203 17.258 67.783 17.093 75.642-.507 137.473-62.277 138.051-137.919.389-50.938-26.624-95.594-67.175-120.117z" fill="#fbf1cf"/><path d="m472.921 251.227c28.375-5.003 45.71-34.012 36.674-61.371l-13.61-41.206c-6.379-19.314-25.967-31.019-45.998-27.487-20.031 3.532-34.434 21.231-33.823 41.561l1.305 43.376c.866 28.8 27.077 50.131 55.452 45.127z" fill="#7c93dd"/><ellipse cx="334.363" cy="203.497" fill="#8eafe2" rx="136.235" ry="116.232"/><g><g fill="#fff"><ellipse cx="259.09" cy="231.715" rx="31.765" ry="25.296"/><ellipse cx="431.265" cy="231.715" rx="31.765" ry="25.296"/></g><g fill="#4e5660"><path d="m277.603 214.554c-4.143 0-7.5-3.358-7.5-7.5v-12.362c0-4.142 3.357-7.5 7.5-7.5s7.5 3.358 7.5 7.5v12.362c0 4.142-3.358 7.5-7.5 7.5z"/><path d="m345.178 222.595c-8.995 0-17.55-3.896-23.47-10.688-2.722-3.122-2.396-7.86.727-10.582 3.122-2.721 7.859-2.396 10.582.727 3.07 3.523 7.503 5.544 12.161 5.544 4.659 0 9.092-2.02 12.161-5.543 2.72-3.124 7.459-3.449 10.581-.728 3.123 2.721 3.449 7.459.728 10.582-5.919 6.792-14.474 10.688-23.47 10.688z"/><path d="m429.465 214.209c-4.143 0-7.5-3.358-7.5-7.5 0-3.764-3.062-6.826-6.825-6.826-3.764 0-6.826 3.062-6.826 6.826 0 4.142-3.357 7.5-7.5 7.5s-7.5-3.358-7.5-7.5c0-12.035 9.791-21.826 21.826-21.826 12.034 0 21.825 9.791 21.825 21.826 0 4.142-3.358 7.5-7.5 7.5z"/></g></g><path d="m184.37 251.227c-28.375-5.003-45.71-34.012-36.674-61.371l13.61-41.206c6.379-19.314 25.967-31.019 45.998-27.487 20.031 3.532 34.434 21.231 33.823 41.561l-1.305 43.376c-.866 28.8-27.077 50.131-55.452 45.127z" fill="#7c93dd"/><path d="m394.738 43.797c-5.392.835-10.895-.696-15.179-4.075-12.89-10.166-30.147-16.382-49.112-16.382-27.36 0-51.154 12.942-63.416 32.018-2.557 3.979-7.403 5.751-11.981 4.561-5.76-1.496-11.873-2.305-18.209-2.305-34.48 0-62.432 23.778-62.432 53.108 0 29.331 27.952 53.108 62.432 53.108 20.355 0 38.426-8.29 49.821-21.114 3.029-3.409 7.902-4.422 12.112-2.67 9.563 3.98 20.308 6.221 31.673 6.221 10.066 0 19.646-1.757 28.35-4.923 5.225-1.901 10.976-1.706 15.97.738 9.139 4.472 19.731 7.034 31.032 7.034 34.46 0 62.395-23.763 62.395-53.077-.001-33.915-36.276-57.997-73.456-52.242z" fill="#fbf1cf"/><g fill="#fae0bd"><path d="m335.465 23.504c-1.66-.097-3.329-.163-5.018-.163-27.36 0-51.154 12.942-63.416 32.018-2.557 3.979-7.403 5.751-11.981 4.561-5.76-1.496-11.873-2.305-18.209-2.305-34.48 0-62.432 23.778-62.432 53.108 0 29.331 27.952 53.108 62.432 53.108 20.355 0 38.426-8.29 49.821-21.114 3.029-3.409 7.902-4.422 12.112-2.67 9.564 3.981 20.308 6.221 31.673 6.221 8.021 0 15.725-1.132 22.931-3.187-44.634-18.138-54.426-90.078-17.913-119.577z"/><path d="m239.179 387.323c-63.843-6.175-71.161-58.724-63.414-83.095 1.854-5.833-1.348-12.044-7.077-14.197-39.952-15.012-48.515-70.45-38.441-95.078 2.082-5.089.339-10.955-4.242-13.997-44.077-29.273-53.59-119.964 6.328-162.835-55.995 17.98-93.9 73.638-87.357 134.298.91 8.436-3.107 16.623-10.405 20.951-20.694 12.274-34.571 34.827-34.571 60.633 0 32.785 22.387 60.338 52.708 68.211 6.507 1.69 11.923 6.139 14.754 12.237 22.082 47.555 70.259 80.532 126.142 80.532 15.967 0 31.298-2.703 45.575-7.66z"/></g></g></svg>