<?xml version="1.0" encoding="iso-8859-1"?>
<!-- Generator: Adobe Illustrator 19.0.0, SVG Export Plug-In . SVG Version: 6.00 Build 0)  -->
<svg version="1.1" id="Capa_1" xmlns="http://www.w3.org/2000/svg" xmlns:xlink="http://www.w3.org/1999/xlink" x="0px" y="0px"
	 viewBox="0 0 512 512" style="enable-background:new 0 0 512 512;" xml:space="preserve">
<g>
	<g>
		<path style="fill:#FDD7AD;" d="M300.138,503.172v-16.163c-0.289-14.256,10.364-26.369,24.541-27.904
			c7.341-0.54,14.576,2,19.969,7.011c5.393,5.011,8.456,12.04,8.456,19.401v17.046c0.001,2.535,1.084,4.95,2.978,6.636
			c1.894,1.686,4.417,2.483,6.936,2.191c39.736-4.997,69.541-38.79,69.535-78.839v-79.448h8.828
			c39.003,0,70.621-31.618,70.621-70.621V220.69C512,8.828,256,0,256,0C0,0,0,229.517,0,229.517s0,203.034,203.034,203.034
			c0,43.878,35.57,79.448,79.448,79.448h8.828C296.186,512,300.138,508.048,300.138,503.172z"/>
		<g>
			<path style="fill:#41767F;" d="M432.552,397.241H264.828c-4.875,0-8.828-3.952-8.828-8.828s3.952-8.828,8.828-8.828h167.724
				c4.875,0,8.828,3.952,8.828,8.828S437.427,397.241,432.552,397.241z"/>
			<path style="fill:#41767F;" d="M282.483,414.897c-4.875,0-8.828-3.952-8.828-8.828v-35.31c0-4.875,3.952-8.828,8.828-8.828
				s8.828,3.952,8.828,8.828v35.31C291.31,410.944,287.358,414.897,282.483,414.897z"/>
			<path style="fill:#41767F;" d="M317.793,414.897c-4.875,0-8.828-3.952-8.828-8.828v-35.31c0-4.875,3.952-8.828,8.828-8.828
				s8.828,3.952,8.828,8.828v35.31C326.621,410.944,322.668,414.897,317.793,414.897z"/>
			<path style="fill:#41767F;" d="M353.103,414.897c-4.875,0-8.828-3.952-8.828-8.828v-35.31c0-4.875,3.952-8.828,8.828-8.828
				s8.828,3.952,8.828,8.828v35.31C361.931,410.944,357.979,414.897,353.103,414.897z"/>
			<path style="fill:#41767F;" d="M388.414,414.897c-4.875,0-8.828-3.952-8.828-8.828v-35.31c0-4.875,3.952-8.828,8.828-8.828
				s8.828,3.952,8.828,8.828v35.31C397.241,410.944,393.289,414.897,388.414,414.897z"/>
		</g>
	</g>
	<path style="fill:#90BAE1;" d="M344.276,327.874c2.193,3.747,5.876,6.386,10.13,7.258c4.254,0.872,8.678-0.104,12.169-2.686
		c5.579-4.573,5.579-13.709,0-22.855c-5.866-7.788-13.512-14.057-22.298-18.282c-8.786,4.225-16.433,10.494-22.298,18.282
		c-5.579,9.145-5.579,18.282,0,22.855c3.491,2.582,7.915,3.558,12.169,2.686C338.4,334.26,342.082,331.622,344.276,327.874z"/>
	<path style="fill:#41767F;" d="M357.579,344.276c-1.384,0-2.766-0.115-4.131-0.344c-3.273-0.551-6.396-1.774-9.172-3.593
		c-2.776,1.819-5.899,3.042-9.172,3.593c-6.62,1.18-13.429-0.515-18.723-4.661c-9.11-7.468-9.896-21.239-1.942-34.277
		c6.617-9.161,15.416-16.525,25.6-21.425c2.633-1.448,5.824-1.448,8.457,0c10.282,4.938,19.154,12.388,25.794,21.663
		c7.812,12.8,7.062,26.571-2.083,34.039C368.049,342.568,362.885,344.335,357.579,344.276z M344.276,319.047
		c3.078-0.001,5.935,1.601,7.539,4.228c0.958,1.723,2.647,2.918,4.59,3.249c1.584,0.325,3.232,0.007,4.582-0.883
		c1.607-1.324,1.324-6.065-1.942-11.423c-3.928-5.274-8.97-9.618-14.769-12.721c-5.721,3.046-10.712,7.299-14.627,12.465
		c-3.407,5.588-3.69,10.328-2.083,11.652c1.347,0.896,2.998,1.214,4.582,0.883c1.944-0.33,3.632-1.525,4.59-3.249
		C338.347,320.631,341.203,319.04,344.276,319.047z"/>
	<path style="fill:none;stroke:#000000;stroke-width:2;stroke-linecap:round;stroke-linejoin:round;" d="M256,282.483v8.828"/>
	<g>
		<g>
			<path style="fill:#FF5364;" d="M414.897,185.379c-4.875,0-8.828-3.952-8.828-8.828v-8.828c0-4.875,3.952-8.828,8.828-8.828
				s8.828,3.952,8.828,8.828v8.828C423.724,181.427,419.772,185.379,414.897,185.379z"/>
			<path style="fill:#FF5364;" d="M414.897,300.138c-4.875,0-8.828-3.952-8.828-8.828v-8.828c0-4.875,3.952-8.828,8.828-8.828
				s8.828,3.952,8.828,8.828v8.828C423.724,296.186,419.772,300.138,414.897,300.138z"/>
			<path style="fill:#FF5364;" d="M388.414,192.441c-3.157,0.003-6.075-1.68-7.654-4.414l-4.414-7.645
				c-1.602-2.733-1.617-6.114-0.039-8.861c1.578-2.747,4.506-4.438,7.674-4.431c3.168,0.007,6.089,1.711,7.655,4.464l4.414,7.645
				c2.432,4.22,0.986,9.612-3.231,12.05C391.483,192.033,389.962,192.444,388.414,192.441z"/>
			<path style="fill:#FF5364;" d="M445.793,291.858c-3.157,0.003-6.075-1.68-7.654-4.414l-4.414-7.645
				c-2.398-4.218-0.942-9.582,3.26-12.008c4.202-2.426,9.575-1.006,12.029,3.18l4.414,7.645c1.576,2.73,1.577,6.093,0.002,8.824
				C451.857,290.171,448.945,291.854,445.793,291.858z"/>
			<path style="fill:#FF5364;" d="M368.993,211.862c-1.55,0.003-3.073-0.405-4.414-1.183l-7.645-4.414
				c-2.754-1.566-4.457-4.487-4.464-7.655c-0.007-3.168,1.684-6.096,4.431-7.674c2.747-1.578,6.128-1.563,8.861,0.039l7.645,4.414
				c3.46,1.998,5.147,6.07,4.113,9.929C376.485,209.178,372.988,211.862,368.993,211.862z"/>
			<path style="fill:#FF5364;" d="M468.409,269.241c-1.55,0.003-3.073-0.405-4.414-1.183l-7.654-4.414
				c-2.754-1.566-4.458-4.487-4.464-7.655c-0.007-3.168,1.684-6.096,4.431-7.674c2.747-1.578,6.129-1.563,8.861,0.039l7.654,4.414
				c3.46,1.998,5.147,6.07,4.113,9.929C475.902,266.558,472.405,269.241,468.409,269.241z"/>
			<path style="fill:#FF5364;" d="M361.931,238.345h-8.828c-4.875,0-8.828-3.952-8.828-8.828s3.952-8.828,8.828-8.828h8.828
				c4.875,0,8.828,3.952,8.828,8.828S366.806,238.345,361.931,238.345z"/>
			<path style="fill:#FF5364;" d="M476.69,238.345h-8.828c-4.875,0-8.828-3.952-8.828-8.828s3.952-8.828,8.828-8.828h8.828
				c4.875,0,8.828,3.952,8.828,8.828S481.565,238.345,476.69,238.345z"/>
			<path style="fill:#FF5364;" d="M361.384,269.241c-3.995,0-7.492-2.684-8.526-6.543c-1.034-3.859,0.653-7.932,4.113-9.929
				l7.645-4.414c4.218-2.398,9.582-0.942,12.008,3.26c2.426,4.202,1.006,9.575-3.18,12.029l-7.645,4.414
				C364.456,268.833,362.933,269.241,361.384,269.241z"/>
			<path style="fill:#FF5364;" d="M460.8,211.862c-3.995,0-7.492-2.684-8.526-6.543c-1.034-3.859,0.653-7.932,4.113-9.929
				l7.654-4.414c4.218-2.398,9.582-0.942,12.008,3.26c2.426,4.202,1.006,9.575-3.18,12.029l-7.654,4.414
				C463.873,211.457,462.35,211.865,460.8,211.862z"/>
			<path style="fill:#FF5364;" d="M384,291.858c-3.152-0.003-6.063-1.687-7.638-4.418c-1.575-2.731-1.574-6.094,0.002-8.824
				l4.414-7.645c2.454-4.186,7.827-5.607,12.029-3.18c4.202,2.426,5.658,7.79,3.26,12.008l-4.414,7.645
				C390.075,290.178,387.157,291.861,384,291.858z"/>
			<path style="fill:#FF5364;" d="M441.379,192.441c-1.551,0.004-3.076-0.407-4.414-1.192c-4.217-2.438-5.662-7.83-3.231-12.05
				l4.414-7.645c2.454-4.186,7.827-5.607,12.029-3.18c4.202,2.426,5.658,7.79,3.26,12.008l-4.414,7.645
				C447.447,190.759,444.533,192.441,441.379,192.441z"/>
		</g>
		<path style="fill:#894B9D;" d="M335.448,176.552c-4.784,0.002-8.698-3.807-8.828-8.589v-0.238
			c0-37.72-38.206-53.442-38.585-53.592c-4.529-1.809-6.735-6.947-4.926-11.476c1.809-4.529,6.947-6.735,11.476-4.926
			c16.001,6.973,29.632,18.443,39.239,33.015c7.38-17.938,21.327-33.642,45.762-33.642c4.875,0,8.828,3.952,8.828,8.828
			c0,4.875-3.952,8.828-8.828,8.828c-34.745,0-35.31,50.812-35.31,52.966C344.276,172.599,340.324,176.552,335.448,176.552z"/>
		<path style="fill:#FF5364;" d="M335.448,97.103c-4.875,0-8.828-3.952-8.828-8.828c0-28.593-12.447-36.043-12.985-36.352
			c-4.178-2.374-5.736-7.622-3.531-11.891c2.194-4.217,7.357-5.904,11.617-3.796c2.33,1.156,22.554,12.42,22.554,52.039
			C344.276,93.151,340.324,97.103,335.448,97.103z"/>
		<g>
			<path style="fill:#F0C419;" d="M238.345,344.276c-3.57-0.001-6.788-2.152-8.154-5.45c-1.366-3.298-0.611-7.094,1.913-9.619
				l8.828-8.828c3.464-3.345,8.97-3.298,12.375,0.108c3.405,3.405,3.453,8.911,0.108,12.375l-8.828,8.828
				C242.931,343.345,240.686,344.275,238.345,344.276z"/>
			<path style="fill:#F0C419;" d="M282.483,344.276c-2.341,0-4.586-0.931-6.241-2.586l-8.828-8.828
				c-3.345-3.464-3.298-8.97,0.108-12.375c3.405-3.405,8.911-3.453,12.375-0.108l8.828,8.828c2.524,2.525,3.279,6.321,1.913,9.619
				C289.271,342.124,286.053,344.275,282.483,344.276z"/>
		</g>
		<g>
			<path style="fill:#FF5364;" d="M114.052,192.353c-1.375,1.57-2.616,3.253-3.708,5.032c-7.882-4.237-17.365-4.237-25.247,0
				c-1.092-1.779-2.332-3.462-3.708-5.032c-7.15-22.51,16.331-42.284,16.331-42.284S121.203,169.843,114.052,192.353z"/>
			<path style="fill:#FF5364;" d="M97.721,291.31c0,0-23.481-19.774-16.331-42.284c1.375-1.57,2.616-3.253,3.708-5.032
				c7.882,4.237,17.365,4.237,25.247,0c1.092,1.779,2.332,3.462,3.708,5.032C121.203,271.537,97.721,291.31,97.721,291.31z"/>
			<path style="fill:#FF5364;" d="M83.862,198.091c-7.634,4.698-12.382,12.932-12.623,21.892c-2.08,0.002-4.153,0.239-6.179,0.706
				c-23.128-5.032-28.513-35.31-28.513-35.31s28.866-10.417,44.844,6.974C82.042,194.335,82.87,196.256,83.862,198.091z"/>
			<path style="fill:#FF5364;" d="M158.897,256c0,0-28.866,10.417-44.844-6.974c-0.652-1.982-1.479-3.902-2.472-5.738
				c7.634-4.698,12.382-12.932,12.623-21.892c2.109-0.002,4.211-0.239,6.268-0.706C153.512,225.81,158.897,256,158.897,256z"/>
			<path style="fill:#FF5364;" d="M83.862,243.288c-0.993,1.836-1.82,3.756-2.472,5.738C65.412,266.417,36.546,256,36.546,256
				s5.385-30.279,28.513-35.31c2.027,0.468,4.1,0.704,6.179,0.706C71.48,230.357,76.228,238.59,83.862,243.288z"/>
			<path style="fill:#FF5364;" d="M158.897,185.379c0,0-5.385,30.19-28.425,35.31c-2.056-0.467-4.159-0.704-6.268-0.706
				c-0.241-8.961-4.989-17.195-12.623-21.892c0.993-1.836,1.82-3.756,2.472-5.738C130.03,174.963,158.897,185.379,158.897,185.379z"
				/>
		</g>
		<path style="fill:#F0C419;" d="M124.204,219.983v1.412c-0.241,8.961-4.989,17.195-12.623,21.892
			c-0.353,0.177-0.794,0.441-1.236,0.706c-7.882,4.237-17.365,4.237-25.247,0c-0.441-0.265-0.883-0.53-1.236-0.706
			c-7.634-4.698-12.382-12.932-12.623-21.892v-1.412c0.241-8.961,4.989-17.195,12.623-21.892c0.353-0.177,0.794-0.441,1.236-0.706
			c7.882-4.237,17.365-4.237,25.247,0c0.441,0.265,0.883,0.53,1.236,0.706C119.215,202.789,123.963,211.023,124.204,219.983z"/>
		<g>
			<path style="fill:#894B9D;" d="M105.49,353.651c-3.29,0.029-6.578-0.195-9.834-0.671c-4.725-0.877-7.88-5.372-7.099-10.114
				c0.781-4.742,5.211-7.987,9.968-7.303c4.511,0.715,44.544,5.844,51.668-36.882c0.905-4.706,5.399-7.831,10.126-7.04
				c4.727,0.791,7.959,5.209,7.282,9.954c-2.263,22.977-18.194,42.305-40.316,48.914C120.214,352.623,112.87,353.682,105.49,353.651
				z"/>
			<path style="fill:#894B9D;" d="M141.241,379.586c-4.875,0.024-8.847-3.908-8.872-8.783c-0.024-4.875,3.908-8.847,8.783-8.872
				c8.062-0.607,15.184-5.479,18.67-12.773c2.179-4.363,7.483-6.134,11.847-3.955s6.134,7.483,3.955,11.847
				C169.159,370.294,155.966,378.942,141.241,379.586z"/>
		</g>
		<path style="fill:#41767F;" d="M176.552,150.069c-3.798-0.003-7.168-2.435-8.369-6.038c-8.827-27.17-33.702-45.921-62.252-46.927
			c-4.875,0-8.828-3.952-8.828-8.828c0-4.875,3.952-8.828,8.828-8.828c36.147,1.016,67.76,24.63,78.989,59.004
			c0.896,2.691,0.445,5.648-1.213,7.949C182.05,148.702,179.388,150.067,176.552,150.069z"/>
		<g>
			<path style="fill:#F0C419;" d="M220.69,97.103c-2.341,0-4.586-0.931-6.241-2.586l-8.828-8.828
				c-3.345-3.464-3.298-8.97,0.108-12.375s8.911-3.453,12.375-0.108l8.828,8.828c2.524,2.525,3.279,6.321,1.913,9.619
				C227.477,94.952,224.259,97.103,220.69,97.103z"/>
			<path style="fill:#F0C419;" d="M256,132.414c-2.341,0-4.586-0.931-6.241-2.586L240.931,121c-3.345-3.464-3.298-8.97,0.108-12.375
				c3.405-3.405,8.911-3.453,12.375-0.108l8.828,8.828c2.524,2.525,3.279,6.321,1.913,9.619
				C262.788,130.262,259.57,132.413,256,132.414z"/>
			<path style="fill:#F0C419;" d="M459.034,105.931c-3.574,0.003-6.797-2.149-8.163-5.451c-1.367-3.302-0.608-7.102,1.922-9.626
				l7.239-7.23c2.231-2.23,5.483-3.1,8.529-2.282c3.047,0.818,5.426,3.198,6.241,6.246c0.815,3.047-0.057,6.298-2.288,8.528
				l-7.239,7.239C463.619,105.006,461.374,105.933,459.034,105.931z"/>
			<path style="fill:#F0C419;" d="M423.724,141.241c-3.57-0.001-6.788-2.152-8.154-5.45c-1.366-3.298-0.611-7.094,1.913-9.619
				l8.828-8.828c3.464-3.345,8.97-3.298,12.375,0.108s3.453,8.911,0.108,12.375l-8.828,8.828
				C428.31,140.311,426.065,141.241,423.724,141.241z"/>
			<path style="fill:#F0C419;" d="M185.379,61.793c-2.341,0-4.586-0.931-6.241-2.586l-8.828-8.828
				c-3.345-3.464-3.298-8.97,0.108-12.375s8.911-3.453,12.375-0.108l8.828,8.828c2.524,2.525,3.279,6.321,1.913,9.619
				C192.167,59.642,188.949,61.792,185.379,61.793z"/>
		</g>
		<path style="fill:#41767F;" d="M203.034,441.379c-4.875,0-8.828-3.952-8.828-8.828V317.793c0-4.875,3.952-8.828,8.828-8.828
			s8.828,3.952,8.828,8.828v114.759C211.862,437.427,207.91,441.379,203.034,441.379z"/>
		<circle style="fill:#2C3E50;" cx="414.897" cy="229.517" r="52.966"/>
		<g>
			<path style="fill:#FF5364;" d="M256,185.379c-4.875,0-8.828-3.952-8.828-8.828v-8.828c0-4.875,3.952-8.828,8.828-8.828
				s8.828,3.952,8.828,8.828v8.828C264.828,181.427,260.875,185.379,256,185.379z"/>
			<path style="fill:#FF5364;" d="M256,300.138c-4.875,0-8.828-3.952-8.828-8.828v-8.828c0-4.875,3.952-8.828,8.828-8.828
				s8.828,3.952,8.828,8.828v8.828C264.828,296.186,260.875,300.138,256,300.138z"/>
			<path style="fill:#FF5364;" d="M229.517,192.441c-3.157,0.003-6.075-1.68-7.654-4.414l-4.414-7.645
				c-2.398-4.218-0.942-9.582,3.26-12.008c4.202-2.426,9.575-1.006,12.029,3.18l4.414,7.645c2.432,4.22,0.986,9.612-3.231,12.05
				C232.587,192.033,231.066,192.444,229.517,192.441z"/>
			<path style="fill:#FF5364;" d="M286.897,291.858c-3.157,0.003-6.075-1.68-7.654-4.414l-4.414-7.645
				c-2.398-4.218-0.942-9.582,3.26-12.008c4.202-2.426,9.575-1.006,12.029,3.18l4.414,7.645c1.576,2.73,1.577,6.093,0.002,8.824
				C292.96,290.171,290.049,291.854,286.897,291.858z"/>
			<path style="fill:#FF5364;" d="M210.097,211.862c-1.55,0.003-3.073-0.405-4.414-1.183l-7.654-4.414
				c-4.186-2.454-5.607-7.827-3.18-12.029c2.426-4.202,7.79-5.658,12.008-3.26l7.654,4.414c3.46,1.998,5.147,6.07,4.113,9.929
				C217.589,209.178,214.092,211.862,210.097,211.862z"/>
			<path style="fill:#FF5364;" d="M309.513,269.241c-1.55,0-3.072-0.408-4.414-1.183l-7.645-4.414
				c-4.186-2.454-5.607-7.827-3.18-12.029s7.79-5.658,12.008-3.26l7.645,4.414c3.46,1.998,5.147,6.07,4.113,9.929
				C317.005,266.558,313.508,269.241,309.513,269.241z"/>
			<path style="fill:#FF5364;" d="M203.034,238.345h-8.828c-4.875,0-8.828-3.952-8.828-8.828s3.952-8.828,8.828-8.828h8.828
				c4.875,0,8.828,3.952,8.828,8.828S207.91,238.345,203.034,238.345z"/>
			<path style="fill:#FF5364;" d="M317.793,238.345h-8.828c-4.875,0-8.828-3.952-8.828-8.828s3.952-8.828,8.828-8.828h8.828
				c4.875,0,8.828,3.952,8.828,8.828S322.668,238.345,317.793,238.345z"/>
			<path style="fill:#FF5364;" d="M202.487,269.241c-3.995,0-7.492-2.684-8.526-6.543c-1.034-3.859,0.653-7.932,4.113-9.929
				l7.654-4.414c2.733-1.602,6.114-1.617,8.861-0.039c2.747,1.578,4.438,4.506,4.431,7.674c-0.007,3.168-1.711,6.089-4.464,7.655
				l-7.654,4.414C205.56,268.836,204.037,269.245,202.487,269.241z"/>
			<path style="fill:#FF5364;" d="M301.903,211.862c-3.995,0-7.492-2.684-8.526-6.543c-1.034-3.859,0.653-7.932,4.113-9.929
				l7.645-4.414c2.733-1.602,6.114-1.617,8.861-0.039c2.747,1.578,4.438,4.506,4.431,7.674c-0.007,3.168-1.711,6.089-4.464,7.655
				l-7.645,4.414C304.977,211.457,303.453,211.865,301.903,211.862z"/>
			<path style="fill:#FF5364;" d="M225.103,291.858c-3.152-0.003-6.063-1.687-7.638-4.418c-1.575-2.731-1.574-6.094,0.002-8.824
				l4.414-7.645c2.454-4.186,7.827-5.607,12.029-3.18s5.658,7.79,3.26,12.008l-4.414,7.645
				C231.179,290.178,228.26,291.861,225.103,291.858z"/>
			<path style="fill:#FF5364;" d="M282.483,192.441c-1.551,0.004-3.076-0.407-4.414-1.192c-4.217-2.438-5.662-7.83-3.231-12.05
				l4.414-7.645c1.566-2.754,4.487-4.458,7.655-4.464c3.168-0.007,6.096,1.684,7.674,4.431c1.578,2.747,1.563,6.129-0.039,8.861
				l-4.414,7.645C288.551,190.759,285.636,192.441,282.483,192.441z"/>
		</g>
		<circle style="fill:#2C3E50;" cx="256" cy="229.517" r="52.966"/>
	</g>
</g>
<g>
</g>
<g>
</g>
<g>
</g>
<g>
</g>
<g>
</g>
<g>
</g>
<g>
</g>
<g>
</g>
<g>
</g>
<g>
</g>
<g>
</g>
<g>
</g>
<g>
</g>
<g>
</g>
<g>
</g>
</svg>
