<?xml version="1.0" encoding="iso-8859-1"?>
<!-- Generator: Adobe Illustrator 19.0.0, SVG Export Plug-In . SVG Version: 6.00 Build 0)  -->
<svg version="1.1" id="Capa_1" xmlns="http://www.w3.org/2000/svg" xmlns:xlink="http://www.w3.org/1999/xlink" x="0px" y="0px"
	 viewBox="0 0 511.748 511.748" style="enable-background:new 0 0 511.748 511.748;" xml:space="preserve">
<g>
	<g>
		<path style="fill:#B49ACA;" d="M455.024,237.034c-0.016,0.359-0.075,0.715-0.177,1.059"/>
		<path style="fill:#B49ACA;" d="M123.46,352.852l-18.538,6.179"/>
		<path style="fill:#B49ACA;" d="M61.667,220.438l-4.414,14.566"/>
		<path style="fill:#B49ACA;" d="M467.206,325.133l-8.033,13.948c-10.413,18.285-32.31,26.644-52.259,19.95h-0.088l-0.883,2.648
			c-8.147,14.522-13.337,30.513-15.272,47.051c-4.237,27.277-6.356,60.028-29.308,79.272c-27.719,23.481-71.15,23.746-105.49,23.746
			s-77.771-0.265-105.49-23.746c-22.952-19.244-25.07-51.995-29.308-79.272c-1.935-16.538-7.125-32.529-15.272-47.051l-0.883-2.648
			h-0.088c-19.949,6.694-41.846-1.665-52.259-19.95l-8.033-13.948c-6.005-10.475-7.411-22.968-3.884-34.516l16.596-55.614
			l-0.971-0.265c-16.66-93.615,35.063-185.977,123.586-220.69c21.444-8.399,44.161-13.086,67.178-13.859
			c5.883-0.279,11.776-0.25,17.655,0.088c64.982,2.815,124.84,36.08,161.545,89.777c28.685,43.246,39.035,96.108,28.778,146.979
			l16.066,53.583C474.617,302.165,473.212,314.658,467.206,325.133z"/>
		<path style="fill:#B49ACA;" d="M406.826,359.031l-18.538-6.179"/>
		<path style="fill:#B49ACA;" d="M455.024,237.034l-4.943-16.596"/>
	</g>
	<path style="fill:#3D324C;" d="M96.978,230.766c-0.492-15.907,3.553-31.626,11.661-45.321
		c17.537-26.609,49.216-40.242,80.596-34.684c15.898,1.685,30.277,10.198,39.401,23.326c9.124,13.128,12.089,29.573,8.127,45.061
		c-7.477,36.643-33.739,65.668-66.728,70.921c-17.88,3.304-36.337-0.737-51.2-11.211C104.602,266.995,96.555,249.29,96.978,230.766z
		"/>
	<path style="fill:#804169;" d="M290.302,346.54c-7.68,6.797-19.686,11.211-34.428-3.531c-14.742,14.742-26.748,10.328-34.428,3.531
		c-6.56-5.894-8.303-15.479-4.237-23.305l12.182-24.364c4.899-9.723,16.73-13.667,26.483-8.828
		c9.753-4.839,21.584-0.896,26.483,8.828l12.182,24.364C298.605,331.061,296.862,340.646,290.302,346.54z"/>
	<g>
		<path style="fill:#7D6599;" d="M275.215,361.741c-7.047-0.172-13.842-2.653-19.341-7.062c-11.824,9.922-29.246,9.258-40.28-1.536
			c-9.612-8.527-12.192-22.5-6.259-33.898l12.156-24.32c6.344-12.62,20.94-18.732,34.383-14.398
			c13.457-4.359,28.081,1.757,34.428,14.398l12.129,24.382c5.911,11.411,3.31,25.379-6.312,33.898
			C290.402,358.467,282.982,361.497,275.215,361.741z M255.874,334.181c2.342-0.006,4.59,0.925,6.241,2.587
			c10.708,10.708,17.302,7.609,22.334,3.16l0.071-0.062c3.475-3.257,4.349-8.432,2.136-12.65l-12.244-24.399
			c-2.711-5.369-9.245-7.548-14.636-4.882c-2.484,1.241-5.408,1.241-7.892,0c-5.392-2.667-11.925-0.488-14.636,4.882l-12.182,24.364
			c-2.235,4.222-1.367,9.418,2.119,12.685c5.102,4.52,11.679,7.618,22.404-3.098C251.251,335.095,253.516,334.163,255.874,334.181z"
			/>
		<g>
			<path style="fill:#BBD1B5;" d="M238.219,414.645V432.3h-35.31v-17.655c0.029-9.739,7.917-17.626,17.655-17.655
				C230.284,397.062,238.147,404.924,238.219,414.645z"/>
			<path style="fill:#BBD1B5;" d="M238.219,432.3v17.655c0,9.751-7.904,17.655-17.655,17.655c-9.751,0-17.655-7.904-17.655-17.655
				V432.3H238.219z"/>
			<path style="fill:#BBD1B5;" d="M202.909,405.817v17.655h-35.31v-17.655c0.029-9.739,7.917-17.626,17.655-17.655
				C194.974,388.234,202.836,396.096,202.909,405.817z"/>
			<path style="fill:#BBD1B5;" d="M202.909,423.472v17.655c0,9.751-7.904,17.655-17.655,17.655s-17.655-7.905-17.655-17.655v-17.655
				H202.909z"/>
			<path style="fill:#BBD1B5;" d="M308.84,414.645V432.3h-35.31v-17.655c0.029-9.739,7.917-17.626,17.655-17.655
				C300.905,397.062,308.767,404.924,308.84,414.645z"/>
			<path style="fill:#BBD1B5;" d="M308.84,432.3v17.655c0,9.751-7.904,17.655-17.655,17.655s-17.655-7.904-17.655-17.655V432.3
				H308.84z"/>
			<path style="fill:#BBD1B5;" d="M344.15,405.817v17.655h-35.31v-17.655c0.029-9.739,7.917-17.626,17.655-17.655
				C336.215,388.234,344.078,396.096,344.15,405.817z"/>
			<path style="fill:#BBD1B5;" d="M344.15,423.472v17.655c0,9.751-7.905,17.655-17.655,17.655s-17.655-7.905-17.655-17.655v-17.655
				H344.15z"/>
			<path style="fill:#BBD1B5;" d="M273.529,414.645V432.3h-35.31v-17.655c0.029-9.739,7.917-17.626,17.655-17.655
				C265.595,397.062,273.457,404.924,273.529,414.645z"/>
			<path style="fill:#BBD1B5;" d="M273.529,432.3v17.655c0,9.751-7.904,17.655-17.655,17.655s-17.655-7.904-17.655-17.655V432.3
				H273.529z"/>
		</g>
		<g>
			<path style="fill:#3D324C;" d="M238.219,441.127h-35.31c-4.875,0-8.828-3.952-8.828-8.828v-17.655
				c0-14.626,11.857-26.483,26.483-26.483c14.596,0.072,26.41,11.887,26.483,26.483V432.3
				C247.046,437.175,243.094,441.127,238.219,441.127z M211.736,423.472h17.655v-8.828c0.023-2.303-0.895-4.516-2.542-6.126
				c-1.631-1.731-3.907-2.709-6.285-2.701c-4.875,0-8.828,3.952-8.828,8.828V423.472z"/>
			<path style="fill:#3D324C;" d="M220.564,476.438c-14.626,0-26.483-11.857-26.483-26.483V432.3c0-4.875,3.952-8.828,8.828-8.828
				h35.31c4.875,0,8.828,3.952,8.828,8.828v17.655C247.046,464.581,235.19,476.438,220.564,476.438z M211.736,441.127v8.828
				c0,4.875,3.952,8.828,8.828,8.828s8.828-3.952,8.828-8.828v-8.828H211.736z"/>
			<path style="fill:#3D324C;" d="M202.909,432.3h-35.31c-4.875,0-8.828-3.952-8.828-8.828v-17.655
				c0-14.626,11.857-26.483,26.483-26.483c14.596,0.072,26.41,11.887,26.483,26.483v17.655
				C211.736,428.348,207.784,432.3,202.909,432.3z M176.426,414.645h17.655v-8.828c0.023-2.303-0.895-4.516-2.542-6.126
				c-1.631-1.731-3.907-2.709-6.285-2.701c-4.875,0-8.828,3.952-8.828,8.828V414.645z"/>
			<path style="fill:#3D324C;" d="M185.253,467.61c-14.626,0-26.483-11.857-26.483-26.483v-17.655c0-4.875,3.952-8.828,8.828-8.828
				h35.31c4.875,0,8.828,3.952,8.828,8.828v17.655C211.736,455.753,199.879,467.61,185.253,467.61z M176.426,432.3v8.828
				c0,4.875,3.952,8.828,8.828,8.828s8.828-3.952,8.828-8.828V432.3H176.426z"/>
			<path style="fill:#3D324C;" d="M308.84,441.127h-35.31c-4.875,0-8.828-3.952-8.828-8.828v-17.655
				c0-14.626,11.857-26.483,26.483-26.483c14.596,0.072,26.41,11.887,26.483,26.483V432.3
				C317.667,437.175,313.715,441.127,308.84,441.127z M282.357,423.472h17.655v-8.828c0.023-2.303-0.895-4.516-2.542-6.126
				c-1.631-1.731-3.907-2.709-6.285-2.701c-4.875,0-8.828,3.952-8.828,8.828V423.472z"/>
			<path style="fill:#3D324C;" d="M291.184,476.438c-14.626,0-26.483-11.857-26.483-26.483V432.3c0-4.875,3.952-8.828,8.828-8.828
				h35.31c4.875,0,8.828,3.952,8.828,8.828v17.655C317.667,464.581,305.81,476.438,291.184,476.438z M282.357,441.127v8.828
				c0,4.875,3.952,8.828,8.828,8.828s8.828-3.952,8.828-8.828v-8.828H282.357z"/>
			<path style="fill:#3D324C;" d="M344.15,432.3h-35.31c-4.875,0-8.828-3.952-8.828-8.828v-17.655
				c0-14.626,11.857-26.483,26.483-26.483c14.596,0.072,26.41,11.887,26.483,26.483v17.655
				C352.978,428.348,349.025,432.3,344.15,432.3z M317.667,414.645h17.655v-8.828c0.023-2.303-0.895-4.516-2.542-6.126
				c-1.631-1.731-3.907-2.709-6.285-2.701c-4.875,0-8.828,3.952-8.828,8.828V414.645z"/>
			<path style="fill:#3D324C;" d="M326.495,467.61c-14.626,0-26.483-11.857-26.483-26.483v-17.655c0-4.875,3.952-8.828,8.828-8.828
				h35.31c4.875,0,8.828,3.952,8.828,8.828v17.655C352.978,455.753,341.121,467.61,326.495,467.61z M317.667,432.3v8.828
				c0,4.875,3.952,8.828,8.828,8.828s8.828-3.952,8.828-8.828V432.3H317.667z"/>
			<path style="fill:#3D324C;" d="M273.529,441.127h-35.31c-4.875,0-8.828-3.952-8.828-8.828v-17.655
				c0-14.626,11.857-26.483,26.483-26.483c14.596,0.072,26.41,11.887,26.483,26.483V432.3
				C282.357,437.175,278.405,441.127,273.529,441.127z M247.046,423.472h17.655v-8.828c0.023-2.303-0.895-4.516-2.542-6.126
				c-1.631-1.731-3.907-2.709-6.285-2.701c-4.875,0-8.828,3.952-8.828,8.828V423.472z"/>
			<path style="fill:#3D324C;" d="M255.874,476.438c-14.626,0-26.483-11.857-26.483-26.483V432.3c0-4.875,3.952-8.828,8.828-8.828
				h35.31c4.875,0,8.828,3.952,8.828,8.828v17.655C282.357,464.581,270.5,476.438,255.874,476.438z M247.046,441.127v8.828
				c0,4.875,3.952,8.828,8.828,8.828c4.875,0,8.828-3.952,8.828-8.828v-8.828H247.046z"/>
			<path style="fill:#3D324C;" d="M167.598,414.645c-4.875,0-8.828-3.952-8.828-8.828v-26.483c0-4.875-3.952-8.828-8.828-8.828
				s-8.828-3.952-8.828-8.828s3.952-8.828,8.828-8.828c14.626,0,26.483,11.857,26.483,26.483v26.483
				C176.426,410.692,172.474,414.645,167.598,414.645z"/>
			<path style="fill:#3D324C;" d="M344.15,414.645c-4.875,0-8.828-3.952-8.828-8.828v-26.483c0-14.626,11.857-26.483,26.483-26.483
				c4.875,0,8.828,3.952,8.828,8.828s-3.952,8.828-8.828,8.828s-8.828,3.952-8.828,8.828v26.483
				C352.978,410.692,349.025,414.645,344.15,414.645z"/>
		</g>
	</g>
	<path style="fill:#C03A2B;" d="M255.874,61.797c1.607-4.305,5.238-7.537,9.7-8.634c4.462-1.097,9.178,0.083,12.598,3.152
		c5.579,5.482,5.579,16.455,0,27.427c-5.538,9.017-13.192,16.547-22.298,21.937c-9.106-5.39-16.76-12.92-22.298-21.937
		c-5.579-10.973-5.579-21.945,0-27.427c3.42-3.069,8.136-4.249,12.598-3.152C250.636,54.26,254.267,57.492,255.874,61.797z"/>
	<g>
		<g>
			<path style="fill:#F9EAB0;" d="M194.081,255.748c-2.341-0.001-4.586-0.931-6.241-2.586l-52.966-52.966
				c-3.345-3.464-3.298-8.97,0.108-12.375c3.405-3.405,8.911-3.453,12.375-0.108l52.966,52.966c2.524,2.525,3.279,6.321,1.913,9.619
				C200.869,253.597,197.651,255.747,194.081,255.748z"/>
			<path style="fill:#F9EAB0;" d="M141.115,255.748c-3.57-0.001-6.788-2.152-8.154-5.45c-1.366-3.298-0.611-7.094,1.913-9.619
				l52.966-52.966c3.464-3.345,8.97-3.298,12.375,0.108s3.453,8.911,0.108,12.375l-52.966,52.966
				C145.701,254.817,143.456,255.748,141.115,255.748z"/>
		</g>
		<g>
			<path style="fill:#F0C419;" d="M167.598,264.576c-4.875,0-8.828-3.952-8.828-8.828v-70.621c0-4.875,3.952-8.828,8.828-8.828
				s8.828,3.952,8.828,8.828v70.621C176.426,260.623,172.474,264.576,167.598,264.576z"/>
			<path style="fill:#F0C419;" d="M202.909,229.265h-70.621c-4.875,0-8.828-3.952-8.828-8.828s3.952-8.828,8.828-8.828h70.621
				c4.875,0,8.828,3.952,8.828,8.828S207.784,229.265,202.909,229.265z"/>
		</g>
	</g>
	<path style="fill:#3D324C;" d="M414.771,230.766c0.492-15.907-3.553-31.626-11.661-45.321
		c-17.537-26.609-49.216-40.242-80.596-34.684c-15.898,1.685-30.277,10.198-39.401,23.326c-9.124,13.128-12.089,29.573-8.127,45.061
		c7.477,36.643,33.739,65.668,66.728,70.921c17.88,3.304,36.337-0.737,51.2-11.211C407.146,266.995,415.193,249.29,414.771,230.766z
		"/>
	<g>
		<g>
			<path style="fill:#F9EAB0;" d="M317.667,255.748c-3.57-0.001-6.788-2.152-8.154-5.45c-1.366-3.298-0.611-7.094,1.913-9.619
				l52.966-52.966c3.464-3.345,8.97-3.298,12.375,0.108s3.453,8.911,0.108,12.375l-52.966,52.966
				C322.253,254.817,320.008,255.748,317.667,255.748z"/>
			<path style="fill:#F9EAB0;" d="M370.633,255.748c-2.341-0.001-4.586-0.931-6.241-2.586l-52.966-52.966
				c-3.345-3.464-3.298-8.97,0.108-12.375c3.405-3.405,8.911-3.453,12.375-0.108l52.966,52.966c2.524,2.525,3.279,6.321,1.913,9.619
				C377.421,253.597,374.203,255.747,370.633,255.748z"/>
		</g>
		<g>
			<path style="fill:#F0C419;" d="M344.15,264.576c-4.875,0-8.828-3.952-8.828-8.828v-70.621c0-4.875,3.952-8.828,8.828-8.828
				s8.828,3.952,8.828,8.828v70.621C352.978,260.623,349.025,264.576,344.15,264.576z"/>
			<path style="fill:#F0C419;" d="M379.46,229.265H308.84c-4.875,0-8.828-3.952-8.828-8.828s3.952-8.828,8.828-8.828h70.621
				c4.875,0,8.828,3.952,8.828,8.828S384.336,229.265,379.46,229.265z"/>
		</g>
		<g>
			<path style="fill:#894B9D;" d="M264.702,0.278v17.126c0,4.875-3.952,8.828-8.828,8.828c-4.875,0-8.828-3.952-8.828-8.828V0.19
				C252.929-0.09,258.822-0.06,264.702,0.278z"/>
			<path style="fill:#894B9D;" d="M255.874,158.645c-4.875,0-8.828-3.952-8.828-8.828v-17.655c0-4.875,3.952-8.828,8.828-8.828
				c4.875,0,8.828,3.952,8.828,8.828v17.655C264.702,154.692,260.749,158.645,255.874,158.645z"/>
		</g>
		<g>
			<path style="fill:#F0C419;" d="M114.633,326.369c-9.448,0.279-18.592-3.352-25.275-10.035s-10.314-15.828-10.035-25.275
				c-0.015-4.875,3.926-8.839,8.801-8.854c4.875-0.015,8.839,3.926,8.854,8.801c-0.317,4.777,1.439,9.46,4.82,12.85
				c3.38,3.391,8.057,5.161,12.836,4.858c4.875,0,8.828,3.952,8.828,8.828S119.508,326.369,114.633,326.369z"/>
			<path style="fill:#F0C419;" d="M397.115,326.369c-4.875,0-8.828-3.952-8.828-8.828s3.952-8.828,8.828-8.828
				c4.771,0.31,9.444-1.451,12.824-4.831s5.141-8.053,4.831-12.824c0-4.875,3.952-8.828,8.828-8.828s8.828,3.952,8.828,8.828
				c0.279,9.448-3.352,18.592-10.035,25.275C415.707,323.017,406.563,326.648,397.115,326.369z"/>
		</g>
	</g>
	<g>
		<path style="fill:#F29C1F;" d="M148.513,72.585c7.177-7.186,28.919-16.269,44.05-22.016c2.804-0.815,5.83-0.038,7.895,2.027
			c2.065,2.065,2.842,5.09,2.027,7.895c-5.756,15.13-14.839,36.873-22.016,44.05c-11.405,11.405-27.816,13.497-36.634,4.679
			S137.099,83.99,148.513,72.585z"/>
		<path style="fill:#F29C1F;" d="M363.235,72.585c-7.177-7.186-28.919-16.269-44.05-22.016c-2.804-0.815-5.83-0.038-7.895,2.027
			c-2.065,2.065-2.842,5.09-2.027,7.895c5.756,15.13,14.839,36.873,22.016,44.05c11.405,11.405,27.816,13.497,36.635,4.679
			C376.733,100.4,374.649,83.99,363.235,72.585z"/>
	</g>
</g>
<g>
</g>
<g>
</g>
<g>
</g>
<g>
</g>
<g>
</g>
<g>
</g>
<g>
</g>
<g>
</g>
<g>
</g>
<g>
</g>
<g>
</g>
<g>
</g>
<g>
</g>
<g>
</g>
<g>
</g>
</svg>
